<mxfile host="65bd71144e">
    <diagram id="zBbb_w2fufU70cdOGtND" name="1 oldal">
        <mxGraphModel dx="531" dy="1302" grid="1" gridSize="10" guides="1" tooltips="1" connect="1" arrows="1" fold="1" page="0" pageScale="1" pageWidth="660" pageHeight="610" background="none" math="0" shadow="0">
            <root>
                <mxCell id="0"/>
                <mxCell id="1" parent="0"/>
                <mxCell id="5927" value="" style="rounded=0;whiteSpace=wrap;html=1;fillColor=#5E5B61;fontColor=#FFFFFF;strokeColor=none;spacing=0;" parent="1" vertex="1">
                    <mxGeometry y="-20" width="740" height="340" as="geometry"/>
                </mxCell>
                <mxCell id="5928" value="Explicit Memory Management" style="text;strokeColor=none;fillColor=none;align=center;verticalAlign=middle;rounded=0;fontFamily=Helvetica;fontSize=17;fontColor=#FFFFFF;" parent="1" vertex="1">
                    <mxGeometry x="30" y="-10" width="330" height="30" as="geometry"/>
                </mxCell>
                <mxCell id="UvHuP5o6jSuoLTm0AUZA-5953" value="" style="group" parent="1" vertex="1" connectable="0">
                    <mxGeometry x="30" y="40" width="140" height="120" as="geometry"/>
                </mxCell>
                <mxCell id="LV0FwBpydXXZrUbya0PG-5966" style="edgeStyle=orthogonalEdgeStyle;rounded=0;orthogonalLoop=1;jettySize=auto;html=1;exitX=0.5;exitY=1;exitDx=0;exitDy=0;" parent="UvHuP5o6jSuoLTm0AUZA-5953" source="5925" edge="1">
                    <mxGeometry relative="1" as="geometry">
                        <mxPoint x="70" y="100" as="targetPoint"/>
                    </mxGeometry>
                </mxCell>
                <mxCell id="5925" value="" style="rounded=0;whiteSpace=wrap;html=1;fillColor=#4F1623;fontColor=#FFFFFF;strokeColor=none;" parent="UvHuP5o6jSuoLTm0AUZA-5953" vertex="1">
                    <mxGeometry width="140" height="100" as="geometry"/>
                </mxCell>
                <mxCell id="LV0FwBpydXXZrUbya0PG-6775" value="" style="rounded=0;whiteSpace=wrap;html=1;strokeColor=none;fillColor=#9C2A44;" parent="UvHuP5o6jSuoLTm0AUZA-5953" vertex="1">
                    <mxGeometry x="6" y="7" width="130" height="85" as="geometry"/>
                </mxCell>
                <mxCell id="LV0FwBpydXXZrUbya0PG-6733" value="" style="shape=table;startSize=0;container=1;collapsible=0;childLayout=tableLayout;strokeColor=#9C2A44;fillColor=#C23555;" parent="UvHuP5o6jSuoLTm0AUZA-5953" vertex="1">
                    <mxGeometry x="10" y="33" width="120" height="50" as="geometry"/>
                </mxCell>
                <mxCell id="LV0FwBpydXXZrUbya0PG-6734" value="" style="shape=tableRow;horizontal=0;startSize=0;swimlaneHead=0;swimlaneBody=0;strokeColor=inherit;top=0;left=0;bottom=0;right=0;collapsible=0;dropTarget=0;fillColor=none;points=[[0,0.5],[1,0.5]];portConstraint=eastwest;" parent="LV0FwBpydXXZrUbya0PG-6733" vertex="1">
                    <mxGeometry width="120" height="25" as="geometry"/>
                </mxCell>
                <mxCell id="LV0FwBpydXXZrUbya0PG-6735" value="" style="shape=partialRectangle;html=1;whiteSpace=wrap;connectable=0;strokeColor=inherit;overflow=hidden;fillColor=none;top=0;left=0;bottom=0;right=0;pointerEvents=1;" parent="LV0FwBpydXXZrUbya0PG-6734" vertex="1">
                    <mxGeometry width="30" height="25" as="geometry">
                        <mxRectangle width="30" height="25" as="alternateBounds"/>
                    </mxGeometry>
                </mxCell>
                <mxCell id="LV0FwBpydXXZrUbya0PG-6736" value="" style="shape=partialRectangle;html=1;whiteSpace=wrap;connectable=0;strokeColor=inherit;overflow=hidden;fillColor=none;top=0;left=0;bottom=0;right=0;pointerEvents=1;" parent="LV0FwBpydXXZrUbya0PG-6734" vertex="1">
                    <mxGeometry x="30" width="30" height="25" as="geometry">
                        <mxRectangle width="30" height="25" as="alternateBounds"/>
                    </mxGeometry>
                </mxCell>
                <mxCell id="LV0FwBpydXXZrUbya0PG-6737" value="" style="shape=partialRectangle;html=1;whiteSpace=wrap;connectable=0;strokeColor=inherit;overflow=hidden;fillColor=none;top=0;left=0;bottom=0;right=0;pointerEvents=1;" parent="LV0FwBpydXXZrUbya0PG-6734" vertex="1">
                    <mxGeometry x="60" width="30" height="25" as="geometry">
                        <mxRectangle width="30" height="25" as="alternateBounds"/>
                    </mxGeometry>
                </mxCell>
                <mxCell id="LV0FwBpydXXZrUbya0PG-6738" value="" style="shape=partialRectangle;html=1;whiteSpace=wrap;connectable=0;strokeColor=inherit;overflow=hidden;fillColor=none;top=0;left=0;bottom=0;right=0;pointerEvents=1;" parent="LV0FwBpydXXZrUbya0PG-6734" vertex="1">
                    <mxGeometry x="90" width="30" height="25" as="geometry">
                        <mxRectangle width="30" height="25" as="alternateBounds"/>
                    </mxGeometry>
                </mxCell>
                <mxCell id="LV0FwBpydXXZrUbya0PG-6739" value="" style="shape=tableRow;horizontal=0;startSize=0;swimlaneHead=0;swimlaneBody=0;strokeColor=inherit;top=0;left=0;bottom=0;right=0;collapsible=0;dropTarget=0;fillColor=none;points=[[0,0.5],[1,0.5]];portConstraint=eastwest;" parent="LV0FwBpydXXZrUbya0PG-6733" vertex="1">
                    <mxGeometry y="25" width="120" height="25" as="geometry"/>
                </mxCell>
                <mxCell id="LV0FwBpydXXZrUbya0PG-6740" value="" style="shape=partialRectangle;html=1;whiteSpace=wrap;connectable=0;strokeColor=inherit;overflow=hidden;fillColor=none;top=0;left=0;bottom=0;right=0;pointerEvents=1;" parent="LV0FwBpydXXZrUbya0PG-6739" vertex="1">
                    <mxGeometry width="30" height="25" as="geometry">
                        <mxRectangle width="30" height="25" as="alternateBounds"/>
                    </mxGeometry>
                </mxCell>
                <mxCell id="LV0FwBpydXXZrUbya0PG-6741" value="" style="shape=partialRectangle;html=1;whiteSpace=wrap;connectable=0;strokeColor=inherit;overflow=hidden;fillColor=none;top=0;left=0;bottom=0;right=0;pointerEvents=1;" parent="LV0FwBpydXXZrUbya0PG-6739" vertex="1">
                    <mxGeometry x="30" width="30" height="25" as="geometry">
                        <mxRectangle width="30" height="25" as="alternateBounds"/>
                    </mxGeometry>
                </mxCell>
                <mxCell id="LV0FwBpydXXZrUbya0PG-6742" value="" style="shape=partialRectangle;html=1;whiteSpace=wrap;connectable=0;strokeColor=inherit;overflow=hidden;fillColor=none;top=0;left=0;bottom=0;right=0;pointerEvents=1;" parent="LV0FwBpydXXZrUbya0PG-6739" vertex="1">
                    <mxGeometry x="60" width="30" height="25" as="geometry">
                        <mxRectangle width="30" height="25" as="alternateBounds"/>
                    </mxGeometry>
                </mxCell>
                <mxCell id="LV0FwBpydXXZrUbya0PG-6743" value="" style="shape=partialRectangle;html=1;whiteSpace=wrap;connectable=0;strokeColor=inherit;overflow=hidden;fillColor=none;top=0;left=0;bottom=0;right=0;pointerEvents=1;" parent="LV0FwBpydXXZrUbya0PG-6739" vertex="1">
                    <mxGeometry x="90" width="30" height="25" as="geometry">
                        <mxRectangle width="30" height="25" as="alternateBounds"/>
                    </mxGeometry>
                </mxCell>
                <mxCell id="UvHuP5o6jSuoLTm0AUZA-5949" value="&lt;font face=&quot;Helvetica&quot;&gt;CPU cores&lt;br&gt;&lt;/font&gt;" style="text;html=1;strokeColor=none;fillColor=none;align=center;verticalAlign=middle;whiteSpace=wrap;rounded=0;fontSize=17;fontColor=#FFFFFF;" parent="UvHuP5o6jSuoLTm0AUZA-5953" vertex="1">
                    <mxGeometry x="11" y="34" width="119" height="48" as="geometry"/>
                </mxCell>
                <mxCell id="LV0FwBpydXXZrUbya0PG-5967" value="&lt;font face=&quot;Helvetica&quot;&gt;CPU&lt;br&gt;&lt;/font&gt;" style="text;html=1;strokeColor=none;fillColor=none;align=center;verticalAlign=middle;whiteSpace=wrap;rounded=0;fontSize=17;fontColor=#FFFFFF;" parent="UvHuP5o6jSuoLTm0AUZA-5953" vertex="1">
                    <mxGeometry y="7" width="135" height="27" as="geometry"/>
                </mxCell>
                <mxCell id="UvHuP5o6jSuoLTm0AUZA-5985" value="" style="endArrow=classic;startArrow=classic;html=1;rounded=0;exitX=0.5;exitY=1;exitDx=0;exitDy=0;strokeWidth=2;strokeColor=#FFFFFF;" parent="1" edge="1" source="LV0FwBpydXXZrUbya0PG-6775">
                    <mxGeometry width="50" height="50" relative="1" as="geometry">
                        <mxPoint x="100.5" y="140" as="sourcePoint"/>
                        <mxPoint x="101" y="170" as="targetPoint"/>
                    </mxGeometry>
                </mxCell>
                <mxCell id="UvHuP5o6jSuoLTm0AUZA-5955" value="" style="rounded=0;whiteSpace=wrap;html=1;fillColor=#4F1623;fontColor=#FFFFFF;strokeColor=none;" parent="1" vertex="1">
                    <mxGeometry x="220" y="40" width="140" height="260" as="geometry"/>
                </mxCell>
                <mxCell id="UvHuP5o6jSuoLTm0AUZA-5959" value="" style="group" parent="1" vertex="1" connectable="0">
                    <mxGeometry x="230" y="169" width="120" height="120" as="geometry"/>
                </mxCell>
                <mxCell id="UvHuP5o6jSuoLTm0AUZA-5960" value="" style="rounded=0;whiteSpace=wrap;html=1;fillColor=#C23555;fontColor=#FFFFFF;strokeColor=none;" parent="UvHuP5o6jSuoLTm0AUZA-5959" vertex="1">
                    <mxGeometry width="120" height="120" as="geometry"/>
                </mxCell>
                <mxCell id="UvHuP5o6jSuoLTm0AUZA-5961" value="&lt;div&gt;GPU Memory&lt;br&gt;(HBM)&lt;/div&gt;" style="text;html=1;strokeColor=none;fillColor=none;align=center;verticalAlign=middle;whiteSpace=wrap;rounded=0;fontSize=17;fontColor=#FFFFFF;" parent="UvHuP5o6jSuoLTm0AUZA-5959" vertex="1">
                    <mxGeometry width="120" height="120" as="geometry"/>
                </mxCell>
                <mxCell id="LV0FwBpydXXZrUbya0PG-5946" value="Unified Memory Management" style="text;strokeColor=none;fillColor=none;align=center;verticalAlign=middle;rounded=0;fontFamily=Helvetica;fontSize=17;fontColor=#FFFFFF;" parent="1" vertex="1">
                    <mxGeometry x="420" y="-10" width="290" height="30" as="geometry"/>
                </mxCell>
                <mxCell id="LV0FwBpydXXZrUbya0PG-5947" value="" style="group" parent="1" vertex="1" connectable="0">
                    <mxGeometry x="420" y="40" width="290" height="260" as="geometry"/>
                </mxCell>
                <mxCell id="LV0FwBpydXXZrUbya0PG-5948" value="" style="rounded=0;whiteSpace=wrap;html=1;fillColor=#4F1623;fontColor=#FFFFFF;strokeColor=none;" parent="LV0FwBpydXXZrUbya0PG-5947" vertex="1">
                    <mxGeometry y="-1" width="290" height="260" as="geometry"/>
                </mxCell>
                <mxCell id="LV0FwBpydXXZrUbya0PG-5952" value="" style="group" parent="LV0FwBpydXXZrUbya0PG-5947" vertex="1" connectable="0">
                    <mxGeometry x="10" y="90" width="270" height="160" as="geometry"/>
                </mxCell>
                <mxCell id="LV0FwBpydXXZrUbya0PG-5953" value="" style="rounded=0;whiteSpace=wrap;html=1;fillColor=#C23555;fontColor=#FFFFFF;strokeColor=none;" parent="LV0FwBpydXXZrUbya0PG-5952" vertex="1">
                    <mxGeometry y="38" width="270" height="120" as="geometry"/>
                </mxCell>
                <mxCell id="LV0FwBpydXXZrUbya0PG-5954" value="&lt;div&gt;Unified Memory&lt;br&gt;(HBM)&lt;/div&gt;" style="text;html=1;strokeColor=none;fillColor=none;align=center;verticalAlign=middle;whiteSpace=wrap;rounded=0;fontSize=17;fontColor=#FFFFFF;" parent="LV0FwBpydXXZrUbya0PG-5952" vertex="1">
                    <mxGeometry y="40" width="270" height="120" as="geometry"/>
                </mxCell>
                <mxCell id="LV0FwBpydXXZrUbya0PG-6781" value="" style="endArrow=classic;startArrow=classic;html=1;rounded=0;entryX=0.5;entryY=0;entryDx=0;entryDy=0;strokeWidth=2;strokeColor=#ffffff;exitX=0.5;exitY=1;exitDx=0;exitDy=0;" parent="LV0FwBpydXXZrUbya0PG-5952" edge="1">
                    <mxGeometry width="50" height="50" relative="1" as="geometry">
                        <mxPoint x="68" y="1" as="sourcePoint"/>
                        <mxPoint x="68" y="38" as="targetPoint"/>
                    </mxGeometry>
                </mxCell>
                <mxCell id="LV0FwBpydXXZrUbya0PG-6782" value="" style="endArrow=classic;startArrow=classic;html=1;rounded=0;entryX=0.5;entryY=0;entryDx=0;entryDy=0;strokeWidth=2;strokeColor=#ffffff;exitX=0.5;exitY=1;exitDx=0;exitDy=0;" parent="LV0FwBpydXXZrUbya0PG-5947" edge="1">
                    <mxGeometry width="50" height="50" relative="1" as="geometry">
                        <mxPoint x="218" y="90" as="sourcePoint"/>
                        <mxPoint x="218" y="127" as="targetPoint"/>
                    </mxGeometry>
                </mxCell>
                <mxCell id="LV0FwBpydXXZrUbya0PG-6779" value="" style="rounded=0;whiteSpace=wrap;html=1;strokeColor=none;fillColor=#9C2A44;" parent="1" vertex="1">
                    <mxGeometry x="430" y="46.5" width="270" height="85" as="geometry"/>
                </mxCell>
                <mxCell id="LV0FwBpydXXZrUbya0PG-6755" value="" style="shape=table;startSize=0;container=1;collapsible=0;childLayout=tableLayout;strokeColor=#9C2A44;fillColor=#C23555;" parent="1" vertex="1">
                    <mxGeometry x="438" y="73" width="120" height="50" as="geometry"/>
                </mxCell>
                <mxCell id="LV0FwBpydXXZrUbya0PG-6756" value="" style="shape=tableRow;horizontal=0;startSize=0;swimlaneHead=0;swimlaneBody=0;strokeColor=inherit;top=0;left=0;bottom=0;right=0;collapsible=0;dropTarget=0;fillColor=none;points=[[0,0.5],[1,0.5]];portConstraint=eastwest;" parent="LV0FwBpydXXZrUbya0PG-6755" vertex="1">
                    <mxGeometry width="120" height="25" as="geometry"/>
                </mxCell>
                <mxCell id="LV0FwBpydXXZrUbya0PG-6757" value="" style="shape=partialRectangle;html=1;whiteSpace=wrap;connectable=0;strokeColor=inherit;overflow=hidden;fillColor=none;top=0;left=0;bottom=0;right=0;pointerEvents=1;" parent="LV0FwBpydXXZrUbya0PG-6756" vertex="1">
                    <mxGeometry width="30" height="25" as="geometry">
                        <mxRectangle width="30" height="25" as="alternateBounds"/>
                    </mxGeometry>
                </mxCell>
                <mxCell id="LV0FwBpydXXZrUbya0PG-6758" value="" style="shape=partialRectangle;html=1;whiteSpace=wrap;connectable=0;strokeColor=inherit;overflow=hidden;fillColor=none;top=0;left=0;bottom=0;right=0;pointerEvents=1;" parent="LV0FwBpydXXZrUbya0PG-6756" vertex="1">
                    <mxGeometry x="30" width="30" height="25" as="geometry">
                        <mxRectangle width="30" height="25" as="alternateBounds"/>
                    </mxGeometry>
                </mxCell>
                <mxCell id="LV0FwBpydXXZrUbya0PG-6759" value="" style="shape=partialRectangle;html=1;whiteSpace=wrap;connectable=0;strokeColor=inherit;overflow=hidden;fillColor=none;top=0;left=0;bottom=0;right=0;pointerEvents=1;" parent="LV0FwBpydXXZrUbya0PG-6756" vertex="1">
                    <mxGeometry x="60" width="30" height="25" as="geometry">
                        <mxRectangle width="30" height="25" as="alternateBounds"/>
                    </mxGeometry>
                </mxCell>
                <mxCell id="LV0FwBpydXXZrUbya0PG-6760" value="" style="shape=partialRectangle;html=1;whiteSpace=wrap;connectable=0;strokeColor=inherit;overflow=hidden;fillColor=none;top=0;left=0;bottom=0;right=0;pointerEvents=1;" parent="LV0FwBpydXXZrUbya0PG-6756" vertex="1">
                    <mxGeometry x="90" width="30" height="25" as="geometry">
                        <mxRectangle width="30" height="25" as="alternateBounds"/>
                    </mxGeometry>
                </mxCell>
                <mxCell id="LV0FwBpydXXZrUbya0PG-6761" value="" style="shape=tableRow;horizontal=0;startSize=0;swimlaneHead=0;swimlaneBody=0;strokeColor=inherit;top=0;left=0;bottom=0;right=0;collapsible=0;dropTarget=0;fillColor=none;points=[[0,0.5],[1,0.5]];portConstraint=eastwest;" parent="LV0FwBpydXXZrUbya0PG-6755" vertex="1">
                    <mxGeometry y="25" width="120" height="25" as="geometry"/>
                </mxCell>
                <mxCell id="LV0FwBpydXXZrUbya0PG-6762" value="" style="shape=partialRectangle;html=1;whiteSpace=wrap;connectable=0;strokeColor=inherit;overflow=hidden;fillColor=none;top=0;left=0;bottom=0;right=0;pointerEvents=1;" parent="LV0FwBpydXXZrUbya0PG-6761" vertex="1">
                    <mxGeometry width="30" height="25" as="geometry">
                        <mxRectangle width="30" height="25" as="alternateBounds"/>
                    </mxGeometry>
                </mxCell>
                <mxCell id="LV0FwBpydXXZrUbya0PG-6763" value="" style="shape=partialRectangle;html=1;whiteSpace=wrap;connectable=0;strokeColor=inherit;overflow=hidden;fillColor=none;top=0;left=0;bottom=0;right=0;pointerEvents=1;" parent="LV0FwBpydXXZrUbya0PG-6761" vertex="1">
                    <mxGeometry x="30" width="30" height="25" as="geometry">
                        <mxRectangle width="30" height="25" as="alternateBounds"/>
                    </mxGeometry>
                </mxCell>
                <mxCell id="LV0FwBpydXXZrUbya0PG-6764" value="" style="shape=partialRectangle;html=1;whiteSpace=wrap;connectable=0;strokeColor=inherit;overflow=hidden;fillColor=none;top=0;left=0;bottom=0;right=0;pointerEvents=1;" parent="LV0FwBpydXXZrUbya0PG-6761" vertex="1">
                    <mxGeometry x="60" width="30" height="25" as="geometry">
                        <mxRectangle width="30" height="25" as="alternateBounds"/>
                    </mxGeometry>
                </mxCell>
                <mxCell id="LV0FwBpydXXZrUbya0PG-6765" value="" style="shape=partialRectangle;html=1;whiteSpace=wrap;connectable=0;strokeColor=inherit;overflow=hidden;fillColor=none;top=0;left=0;bottom=0;right=0;pointerEvents=1;" parent="LV0FwBpydXXZrUbya0PG-6761" vertex="1">
                    <mxGeometry x="90" width="30" height="25" as="geometry">
                        <mxRectangle width="30" height="25" as="alternateBounds"/>
                    </mxGeometry>
                </mxCell>
                <mxCell id="LV0FwBpydXXZrUbya0PG-6395" value="" style="shape=table;startSize=0;container=1;collapsible=0;childLayout=tableLayout;fillColor=#C23555;strokeColor=#9C2A44;" parent="1" vertex="1">
                    <mxGeometry x="572" y="73" width="120" height="50" as="geometry"/>
                </mxCell>
                <mxCell id="LV0FwBpydXXZrUbya0PG-6396" value="" style="shape=tableRow;horizontal=0;startSize=0;swimlaneHead=0;swimlaneBody=0;strokeColor=inherit;top=0;left=0;bottom=0;right=0;collapsible=0;dropTarget=0;fillColor=none;points=[[0,0.5],[1,0.5]];portConstraint=eastwest;" parent="LV0FwBpydXXZrUbya0PG-6395" vertex="1">
                    <mxGeometry width="120" height="6" as="geometry"/>
                </mxCell>
                <mxCell id="LV0FwBpydXXZrUbya0PG-6397" value="" style="shape=partialRectangle;html=1;whiteSpace=wrap;connectable=0;strokeColor=inherit;overflow=hidden;fillColor=none;top=0;left=0;bottom=0;right=0;pointerEvents=1;" parent="LV0FwBpydXXZrUbya0PG-6396" vertex="1">
                    <mxGeometry width="6" height="6" as="geometry">
                        <mxRectangle width="6" height="6" as="alternateBounds"/>
                    </mxGeometry>
                </mxCell>
                <mxCell id="LV0FwBpydXXZrUbya0PG-6398" value="" style="shape=partialRectangle;html=1;whiteSpace=wrap;connectable=0;strokeColor=inherit;overflow=hidden;fillColor=none;top=0;left=0;bottom=0;right=0;pointerEvents=1;" parent="LV0FwBpydXXZrUbya0PG-6396" vertex="1">
                    <mxGeometry x="6" width="6" height="6" as="geometry">
                        <mxRectangle width="6" height="6" as="alternateBounds"/>
                    </mxGeometry>
                </mxCell>
                <mxCell id="LV0FwBpydXXZrUbya0PG-6399" value="" style="shape=partialRectangle;html=1;whiteSpace=wrap;connectable=0;strokeColor=inherit;overflow=hidden;fillColor=none;top=0;left=0;bottom=0;right=0;pointerEvents=1;" parent="LV0FwBpydXXZrUbya0PG-6396" vertex="1">
                    <mxGeometry x="12" width="6" height="6" as="geometry">
                        <mxRectangle width="6" height="6" as="alternateBounds"/>
                    </mxGeometry>
                </mxCell>
                <mxCell id="LV0FwBpydXXZrUbya0PG-6400" value="" style="shape=partialRectangle;html=1;whiteSpace=wrap;connectable=0;strokeColor=inherit;overflow=hidden;fillColor=none;top=0;left=0;bottom=0;right=0;pointerEvents=1;" parent="LV0FwBpydXXZrUbya0PG-6396" vertex="1">
                    <mxGeometry x="18" width="6" height="6" as="geometry">
                        <mxRectangle width="6" height="6" as="alternateBounds"/>
                    </mxGeometry>
                </mxCell>
                <mxCell id="LV0FwBpydXXZrUbya0PG-6401" value="" style="shape=partialRectangle;html=1;whiteSpace=wrap;connectable=0;strokeColor=inherit;overflow=hidden;fillColor=none;top=0;left=0;bottom=0;right=0;pointerEvents=1;" parent="LV0FwBpydXXZrUbya0PG-6396" vertex="1">
                    <mxGeometry x="24" width="6" height="6" as="geometry">
                        <mxRectangle width="6" height="6" as="alternateBounds"/>
                    </mxGeometry>
                </mxCell>
                <mxCell id="LV0FwBpydXXZrUbya0PG-6402" value="" style="shape=partialRectangle;html=1;whiteSpace=wrap;connectable=0;strokeColor=inherit;overflow=hidden;fillColor=none;top=0;left=0;bottom=0;right=0;pointerEvents=1;" parent="LV0FwBpydXXZrUbya0PG-6396" vertex="1">
                    <mxGeometry x="30" width="6" height="6" as="geometry">
                        <mxRectangle width="6" height="6" as="alternateBounds"/>
                    </mxGeometry>
                </mxCell>
                <mxCell id="LV0FwBpydXXZrUbya0PG-6403" value="" style="shape=partialRectangle;html=1;whiteSpace=wrap;connectable=0;strokeColor=inherit;overflow=hidden;fillColor=none;top=0;left=0;bottom=0;right=0;pointerEvents=1;" parent="LV0FwBpydXXZrUbya0PG-6396" vertex="1">
                    <mxGeometry x="36" width="6" height="6" as="geometry">
                        <mxRectangle width="6" height="6" as="alternateBounds"/>
                    </mxGeometry>
                </mxCell>
                <mxCell id="LV0FwBpydXXZrUbya0PG-6404" value="" style="shape=partialRectangle;html=1;whiteSpace=wrap;connectable=0;strokeColor=inherit;overflow=hidden;fillColor=none;top=0;left=0;bottom=0;right=0;pointerEvents=1;" parent="LV0FwBpydXXZrUbya0PG-6396" vertex="1">
                    <mxGeometry x="42" width="6" height="6" as="geometry">
                        <mxRectangle width="6" height="6" as="alternateBounds"/>
                    </mxGeometry>
                </mxCell>
                <mxCell id="LV0FwBpydXXZrUbya0PG-6405" value="" style="shape=partialRectangle;html=1;whiteSpace=wrap;connectable=0;strokeColor=inherit;overflow=hidden;fillColor=none;top=0;left=0;bottom=0;right=0;pointerEvents=1;" parent="LV0FwBpydXXZrUbya0PG-6396" vertex="1">
                    <mxGeometry x="48" width="6" height="6" as="geometry">
                        <mxRectangle width="6" height="6" as="alternateBounds"/>
                    </mxGeometry>
                </mxCell>
                <mxCell id="LV0FwBpydXXZrUbya0PG-6406" value="" style="shape=partialRectangle;html=1;whiteSpace=wrap;connectable=0;strokeColor=inherit;overflow=hidden;fillColor=none;top=0;left=0;bottom=0;right=0;pointerEvents=1;" parent="LV0FwBpydXXZrUbya0PG-6396" vertex="1">
                    <mxGeometry x="54" width="6" height="6" as="geometry">
                        <mxRectangle width="6" height="6" as="alternateBounds"/>
                    </mxGeometry>
                </mxCell>
                <mxCell id="LV0FwBpydXXZrUbya0PG-6407" value="" style="shape=partialRectangle;html=1;whiteSpace=wrap;connectable=0;strokeColor=inherit;overflow=hidden;fillColor=none;top=0;left=0;bottom=0;right=0;pointerEvents=1;" parent="LV0FwBpydXXZrUbya0PG-6396" vertex="1">
                    <mxGeometry x="60" width="6" height="6" as="geometry">
                        <mxRectangle width="6" height="6" as="alternateBounds"/>
                    </mxGeometry>
                </mxCell>
                <mxCell id="LV0FwBpydXXZrUbya0PG-6408" value="" style="shape=partialRectangle;html=1;whiteSpace=wrap;connectable=0;strokeColor=inherit;overflow=hidden;fillColor=none;top=0;left=0;bottom=0;right=0;pointerEvents=1;" parent="LV0FwBpydXXZrUbya0PG-6396" vertex="1">
                    <mxGeometry x="66" width="6" height="6" as="geometry">
                        <mxRectangle width="6" height="6" as="alternateBounds"/>
                    </mxGeometry>
                </mxCell>
                <mxCell id="LV0FwBpydXXZrUbya0PG-6409" value="" style="shape=partialRectangle;html=1;whiteSpace=wrap;connectable=0;strokeColor=inherit;overflow=hidden;fillColor=none;top=0;left=0;bottom=0;right=0;pointerEvents=1;" parent="LV0FwBpydXXZrUbya0PG-6396" vertex="1">
                    <mxGeometry x="72" width="6" height="6" as="geometry">
                        <mxRectangle width="6" height="6" as="alternateBounds"/>
                    </mxGeometry>
                </mxCell>
                <mxCell id="LV0FwBpydXXZrUbya0PG-6410" value="" style="shape=partialRectangle;html=1;whiteSpace=wrap;connectable=0;strokeColor=inherit;overflow=hidden;fillColor=none;top=0;left=0;bottom=0;right=0;pointerEvents=1;" parent="LV0FwBpydXXZrUbya0PG-6396" vertex="1">
                    <mxGeometry x="78" width="6" height="6" as="geometry">
                        <mxRectangle width="6" height="6" as="alternateBounds"/>
                    </mxGeometry>
                </mxCell>
                <mxCell id="LV0FwBpydXXZrUbya0PG-6411" value="" style="shape=partialRectangle;html=1;whiteSpace=wrap;connectable=0;strokeColor=inherit;overflow=hidden;fillColor=none;top=0;left=0;bottom=0;right=0;pointerEvents=1;" parent="LV0FwBpydXXZrUbya0PG-6396" vertex="1">
                    <mxGeometry x="84" width="6" height="6" as="geometry">
                        <mxRectangle width="6" height="6" as="alternateBounds"/>
                    </mxGeometry>
                </mxCell>
                <mxCell id="LV0FwBpydXXZrUbya0PG-6412" value="" style="shape=partialRectangle;html=1;whiteSpace=wrap;connectable=0;strokeColor=inherit;overflow=hidden;fillColor=none;top=0;left=0;bottom=0;right=0;pointerEvents=1;" parent="LV0FwBpydXXZrUbya0PG-6396" vertex="1">
                    <mxGeometry x="90" width="6" height="6" as="geometry">
                        <mxRectangle width="6" height="6" as="alternateBounds"/>
                    </mxGeometry>
                </mxCell>
                <mxCell id="LV0FwBpydXXZrUbya0PG-6413" value="" style="shape=partialRectangle;html=1;whiteSpace=wrap;connectable=0;strokeColor=inherit;overflow=hidden;fillColor=none;top=0;left=0;bottom=0;right=0;pointerEvents=1;" parent="LV0FwBpydXXZrUbya0PG-6396" vertex="1">
                    <mxGeometry x="96" width="6" height="6" as="geometry">
                        <mxRectangle width="6" height="6" as="alternateBounds"/>
                    </mxGeometry>
                </mxCell>
                <mxCell id="LV0FwBpydXXZrUbya0PG-6414" value="" style="shape=partialRectangle;html=1;whiteSpace=wrap;connectable=0;strokeColor=inherit;overflow=hidden;fillColor=none;top=0;left=0;bottom=0;right=0;pointerEvents=1;" parent="LV0FwBpydXXZrUbya0PG-6396" vertex="1">
                    <mxGeometry x="102" width="6" height="6" as="geometry">
                        <mxRectangle width="6" height="6" as="alternateBounds"/>
                    </mxGeometry>
                </mxCell>
                <mxCell id="LV0FwBpydXXZrUbya0PG-6415" value="" style="shape=partialRectangle;html=1;whiteSpace=wrap;connectable=0;strokeColor=inherit;overflow=hidden;fillColor=none;top=0;left=0;bottom=0;right=0;pointerEvents=1;" parent="LV0FwBpydXXZrUbya0PG-6396" vertex="1">
                    <mxGeometry x="108" width="6" height="6" as="geometry">
                        <mxRectangle width="6" height="6" as="alternateBounds"/>
                    </mxGeometry>
                </mxCell>
                <mxCell id="LV0FwBpydXXZrUbya0PG-6416" value="" style="shape=partialRectangle;html=1;whiteSpace=wrap;connectable=0;strokeColor=inherit;overflow=hidden;fillColor=none;top=0;left=0;bottom=0;right=0;pointerEvents=1;" parent="LV0FwBpydXXZrUbya0PG-6396" vertex="1">
                    <mxGeometry x="114" width="6" height="6" as="geometry">
                        <mxRectangle width="6" height="6" as="alternateBounds"/>
                    </mxGeometry>
                </mxCell>
                <mxCell id="LV0FwBpydXXZrUbya0PG-6417" value="" style="shape=tableRow;horizontal=0;startSize=0;swimlaneHead=0;swimlaneBody=0;strokeColor=inherit;top=0;left=0;bottom=0;right=0;collapsible=0;dropTarget=0;fillColor=none;points=[[0,0.5],[1,0.5]];portConstraint=eastwest;" parent="LV0FwBpydXXZrUbya0PG-6395" vertex="1">
                    <mxGeometry y="6" width="120" height="7" as="geometry"/>
                </mxCell>
                <mxCell id="LV0FwBpydXXZrUbya0PG-6418" value="" style="shape=partialRectangle;html=1;whiteSpace=wrap;connectable=0;strokeColor=inherit;overflow=hidden;fillColor=none;top=0;left=0;bottom=0;right=0;pointerEvents=1;" parent="LV0FwBpydXXZrUbya0PG-6417" vertex="1">
                    <mxGeometry width="6" height="7" as="geometry">
                        <mxRectangle width="6" height="7" as="alternateBounds"/>
                    </mxGeometry>
                </mxCell>
                <mxCell id="LV0FwBpydXXZrUbya0PG-6419" value="" style="shape=partialRectangle;html=1;whiteSpace=wrap;connectable=0;strokeColor=inherit;overflow=hidden;fillColor=none;top=0;left=0;bottom=0;right=0;pointerEvents=1;" parent="LV0FwBpydXXZrUbya0PG-6417" vertex="1">
                    <mxGeometry x="6" width="6" height="7" as="geometry">
                        <mxRectangle width="6" height="7" as="alternateBounds"/>
                    </mxGeometry>
                </mxCell>
                <mxCell id="LV0FwBpydXXZrUbya0PG-6420" value="" style="shape=partialRectangle;html=1;whiteSpace=wrap;connectable=0;strokeColor=inherit;overflow=hidden;fillColor=none;top=0;left=0;bottom=0;right=0;pointerEvents=1;" parent="LV0FwBpydXXZrUbya0PG-6417" vertex="1">
                    <mxGeometry x="12" width="6" height="7" as="geometry">
                        <mxRectangle width="6" height="7" as="alternateBounds"/>
                    </mxGeometry>
                </mxCell>
                <mxCell id="LV0FwBpydXXZrUbya0PG-6421" value="" style="shape=partialRectangle;html=1;whiteSpace=wrap;connectable=0;strokeColor=inherit;overflow=hidden;fillColor=none;top=0;left=0;bottom=0;right=0;pointerEvents=1;" parent="LV0FwBpydXXZrUbya0PG-6417" vertex="1">
                    <mxGeometry x="18" width="6" height="7" as="geometry">
                        <mxRectangle width="6" height="7" as="alternateBounds"/>
                    </mxGeometry>
                </mxCell>
                <mxCell id="LV0FwBpydXXZrUbya0PG-6422" value="" style="shape=partialRectangle;html=1;whiteSpace=wrap;connectable=0;strokeColor=inherit;overflow=hidden;fillColor=none;top=0;left=0;bottom=0;right=0;pointerEvents=1;" parent="LV0FwBpydXXZrUbya0PG-6417" vertex="1">
                    <mxGeometry x="24" width="6" height="7" as="geometry">
                        <mxRectangle width="6" height="7" as="alternateBounds"/>
                    </mxGeometry>
                </mxCell>
                <mxCell id="LV0FwBpydXXZrUbya0PG-6423" value="" style="shape=partialRectangle;html=1;whiteSpace=wrap;connectable=0;strokeColor=inherit;overflow=hidden;fillColor=none;top=0;left=0;bottom=0;right=0;pointerEvents=1;" parent="LV0FwBpydXXZrUbya0PG-6417" vertex="1">
                    <mxGeometry x="30" width="6" height="7" as="geometry">
                        <mxRectangle width="6" height="7" as="alternateBounds"/>
                    </mxGeometry>
                </mxCell>
                <mxCell id="LV0FwBpydXXZrUbya0PG-6424" value="" style="shape=partialRectangle;html=1;whiteSpace=wrap;connectable=0;strokeColor=inherit;overflow=hidden;fillColor=none;top=0;left=0;bottom=0;right=0;pointerEvents=1;" parent="LV0FwBpydXXZrUbya0PG-6417" vertex="1">
                    <mxGeometry x="36" width="6" height="7" as="geometry">
                        <mxRectangle width="6" height="7" as="alternateBounds"/>
                    </mxGeometry>
                </mxCell>
                <mxCell id="LV0FwBpydXXZrUbya0PG-6425" value="" style="shape=partialRectangle;html=1;whiteSpace=wrap;connectable=0;strokeColor=inherit;overflow=hidden;fillColor=none;top=0;left=0;bottom=0;right=0;pointerEvents=1;" parent="LV0FwBpydXXZrUbya0PG-6417" vertex="1">
                    <mxGeometry x="42" width="6" height="7" as="geometry">
                        <mxRectangle width="6" height="7" as="alternateBounds"/>
                    </mxGeometry>
                </mxCell>
                <mxCell id="LV0FwBpydXXZrUbya0PG-6426" value="" style="shape=partialRectangle;html=1;whiteSpace=wrap;connectable=0;strokeColor=inherit;overflow=hidden;fillColor=none;top=0;left=0;bottom=0;right=0;pointerEvents=1;" parent="LV0FwBpydXXZrUbya0PG-6417" vertex="1">
                    <mxGeometry x="48" width="6" height="7" as="geometry">
                        <mxRectangle width="6" height="7" as="alternateBounds"/>
                    </mxGeometry>
                </mxCell>
                <mxCell id="LV0FwBpydXXZrUbya0PG-6427" value="" style="shape=partialRectangle;html=1;whiteSpace=wrap;connectable=0;strokeColor=inherit;overflow=hidden;fillColor=none;top=0;left=0;bottom=0;right=0;pointerEvents=1;" parent="LV0FwBpydXXZrUbya0PG-6417" vertex="1">
                    <mxGeometry x="54" width="6" height="7" as="geometry">
                        <mxRectangle width="6" height="7" as="alternateBounds"/>
                    </mxGeometry>
                </mxCell>
                <mxCell id="LV0FwBpydXXZrUbya0PG-6428" value="" style="shape=partialRectangle;html=1;whiteSpace=wrap;connectable=0;strokeColor=inherit;overflow=hidden;fillColor=none;top=0;left=0;bottom=0;right=0;pointerEvents=1;" parent="LV0FwBpydXXZrUbya0PG-6417" vertex="1">
                    <mxGeometry x="60" width="6" height="7" as="geometry">
                        <mxRectangle width="6" height="7" as="alternateBounds"/>
                    </mxGeometry>
                </mxCell>
                <mxCell id="LV0FwBpydXXZrUbya0PG-6429" value="" style="shape=partialRectangle;html=1;whiteSpace=wrap;connectable=0;strokeColor=inherit;overflow=hidden;fillColor=none;top=0;left=0;bottom=0;right=0;pointerEvents=1;" parent="LV0FwBpydXXZrUbya0PG-6417" vertex="1">
                    <mxGeometry x="66" width="6" height="7" as="geometry">
                        <mxRectangle width="6" height="7" as="alternateBounds"/>
                    </mxGeometry>
                </mxCell>
                <mxCell id="LV0FwBpydXXZrUbya0PG-6430" value="" style="shape=partialRectangle;html=1;whiteSpace=wrap;connectable=0;strokeColor=inherit;overflow=hidden;fillColor=none;top=0;left=0;bottom=0;right=0;pointerEvents=1;" parent="LV0FwBpydXXZrUbya0PG-6417" vertex="1">
                    <mxGeometry x="72" width="6" height="7" as="geometry">
                        <mxRectangle width="6" height="7" as="alternateBounds"/>
                    </mxGeometry>
                </mxCell>
                <mxCell id="LV0FwBpydXXZrUbya0PG-6431" value="" style="shape=partialRectangle;html=1;whiteSpace=wrap;connectable=0;strokeColor=inherit;overflow=hidden;fillColor=none;top=0;left=0;bottom=0;right=0;pointerEvents=1;" parent="LV0FwBpydXXZrUbya0PG-6417" vertex="1">
                    <mxGeometry x="78" width="6" height="7" as="geometry">
                        <mxRectangle width="6" height="7" as="alternateBounds"/>
                    </mxGeometry>
                </mxCell>
                <mxCell id="LV0FwBpydXXZrUbya0PG-6432" value="" style="shape=partialRectangle;html=1;whiteSpace=wrap;connectable=0;strokeColor=inherit;overflow=hidden;fillColor=none;top=0;left=0;bottom=0;right=0;pointerEvents=1;" parent="LV0FwBpydXXZrUbya0PG-6417" vertex="1">
                    <mxGeometry x="84" width="6" height="7" as="geometry">
                        <mxRectangle width="6" height="7" as="alternateBounds"/>
                    </mxGeometry>
                </mxCell>
                <mxCell id="LV0FwBpydXXZrUbya0PG-6433" value="" style="shape=partialRectangle;html=1;whiteSpace=wrap;connectable=0;strokeColor=inherit;overflow=hidden;fillColor=none;top=0;left=0;bottom=0;right=0;pointerEvents=1;" parent="LV0FwBpydXXZrUbya0PG-6417" vertex="1">
                    <mxGeometry x="90" width="6" height="7" as="geometry">
                        <mxRectangle width="6" height="7" as="alternateBounds"/>
                    </mxGeometry>
                </mxCell>
                <mxCell id="LV0FwBpydXXZrUbya0PG-6434" value="" style="shape=partialRectangle;html=1;whiteSpace=wrap;connectable=0;strokeColor=inherit;overflow=hidden;fillColor=none;top=0;left=0;bottom=0;right=0;pointerEvents=1;" parent="LV0FwBpydXXZrUbya0PG-6417" vertex="1">
                    <mxGeometry x="96" width="6" height="7" as="geometry">
                        <mxRectangle width="6" height="7" as="alternateBounds"/>
                    </mxGeometry>
                </mxCell>
                <mxCell id="LV0FwBpydXXZrUbya0PG-6435" value="" style="shape=partialRectangle;html=1;whiteSpace=wrap;connectable=0;strokeColor=inherit;overflow=hidden;fillColor=none;top=0;left=0;bottom=0;right=0;pointerEvents=1;" parent="LV0FwBpydXXZrUbya0PG-6417" vertex="1">
                    <mxGeometry x="102" width="6" height="7" as="geometry">
                        <mxRectangle width="6" height="7" as="alternateBounds"/>
                    </mxGeometry>
                </mxCell>
                <mxCell id="LV0FwBpydXXZrUbya0PG-6436" value="" style="shape=partialRectangle;html=1;whiteSpace=wrap;connectable=0;strokeColor=inherit;overflow=hidden;fillColor=none;top=0;left=0;bottom=0;right=0;pointerEvents=1;" parent="LV0FwBpydXXZrUbya0PG-6417" vertex="1">
                    <mxGeometry x="108" width="6" height="7" as="geometry">
                        <mxRectangle width="6" height="7" as="alternateBounds"/>
                    </mxGeometry>
                </mxCell>
                <mxCell id="LV0FwBpydXXZrUbya0PG-6437" value="" style="shape=partialRectangle;html=1;whiteSpace=wrap;connectable=0;strokeColor=inherit;overflow=hidden;fillColor=none;top=0;left=0;bottom=0;right=0;pointerEvents=1;" parent="LV0FwBpydXXZrUbya0PG-6417" vertex="1">
                    <mxGeometry x="114" width="6" height="7" as="geometry">
                        <mxRectangle width="6" height="7" as="alternateBounds"/>
                    </mxGeometry>
                </mxCell>
                <mxCell id="LV0FwBpydXXZrUbya0PG-6438" value="" style="shape=tableRow;horizontal=0;startSize=0;swimlaneHead=0;swimlaneBody=0;strokeColor=inherit;top=0;left=0;bottom=0;right=0;collapsible=0;dropTarget=0;fillColor=none;points=[[0,0.5],[1,0.5]];portConstraint=eastwest;" parent="LV0FwBpydXXZrUbya0PG-6395" vertex="1">
                    <mxGeometry y="13" width="120" height="6" as="geometry"/>
                </mxCell>
                <mxCell id="LV0FwBpydXXZrUbya0PG-6439" value="" style="shape=partialRectangle;html=1;whiteSpace=wrap;connectable=0;strokeColor=inherit;overflow=hidden;fillColor=none;top=0;left=0;bottom=0;right=0;pointerEvents=1;" parent="LV0FwBpydXXZrUbya0PG-6438" vertex="1">
                    <mxGeometry width="6" height="6" as="geometry">
                        <mxRectangle width="6" height="6" as="alternateBounds"/>
                    </mxGeometry>
                </mxCell>
                <mxCell id="LV0FwBpydXXZrUbya0PG-6440" value="" style="shape=partialRectangle;html=1;whiteSpace=wrap;connectable=0;strokeColor=inherit;overflow=hidden;fillColor=none;top=0;left=0;bottom=0;right=0;pointerEvents=1;" parent="LV0FwBpydXXZrUbya0PG-6438" vertex="1">
                    <mxGeometry x="6" width="6" height="6" as="geometry">
                        <mxRectangle width="6" height="6" as="alternateBounds"/>
                    </mxGeometry>
                </mxCell>
                <mxCell id="LV0FwBpydXXZrUbya0PG-6441" value="" style="shape=partialRectangle;html=1;whiteSpace=wrap;connectable=0;strokeColor=inherit;overflow=hidden;fillColor=none;top=0;left=0;bottom=0;right=0;pointerEvents=1;" parent="LV0FwBpydXXZrUbya0PG-6438" vertex="1">
                    <mxGeometry x="12" width="6" height="6" as="geometry">
                        <mxRectangle width="6" height="6" as="alternateBounds"/>
                    </mxGeometry>
                </mxCell>
                <mxCell id="LV0FwBpydXXZrUbya0PG-6442" value="" style="shape=partialRectangle;html=1;whiteSpace=wrap;connectable=0;strokeColor=inherit;overflow=hidden;fillColor=none;top=0;left=0;bottom=0;right=0;pointerEvents=1;" parent="LV0FwBpydXXZrUbya0PG-6438" vertex="1">
                    <mxGeometry x="18" width="6" height="6" as="geometry">
                        <mxRectangle width="6" height="6" as="alternateBounds"/>
                    </mxGeometry>
                </mxCell>
                <mxCell id="LV0FwBpydXXZrUbya0PG-6443" value="" style="shape=partialRectangle;html=1;whiteSpace=wrap;connectable=0;strokeColor=inherit;overflow=hidden;fillColor=none;top=0;left=0;bottom=0;right=0;pointerEvents=1;" parent="LV0FwBpydXXZrUbya0PG-6438" vertex="1">
                    <mxGeometry x="24" width="6" height="6" as="geometry">
                        <mxRectangle width="6" height="6" as="alternateBounds"/>
                    </mxGeometry>
                </mxCell>
                <mxCell id="LV0FwBpydXXZrUbya0PG-6444" value="" style="shape=partialRectangle;html=1;whiteSpace=wrap;connectable=0;strokeColor=inherit;overflow=hidden;fillColor=none;top=0;left=0;bottom=0;right=0;pointerEvents=1;" parent="LV0FwBpydXXZrUbya0PG-6438" vertex="1">
                    <mxGeometry x="30" width="6" height="6" as="geometry">
                        <mxRectangle width="6" height="6" as="alternateBounds"/>
                    </mxGeometry>
                </mxCell>
                <mxCell id="LV0FwBpydXXZrUbya0PG-6445" value="" style="shape=partialRectangle;html=1;whiteSpace=wrap;connectable=0;strokeColor=inherit;overflow=hidden;fillColor=none;top=0;left=0;bottom=0;right=0;pointerEvents=1;" parent="LV0FwBpydXXZrUbya0PG-6438" vertex="1">
                    <mxGeometry x="36" width="6" height="6" as="geometry">
                        <mxRectangle width="6" height="6" as="alternateBounds"/>
                    </mxGeometry>
                </mxCell>
                <mxCell id="LV0FwBpydXXZrUbya0PG-6446" value="" style="shape=partialRectangle;html=1;whiteSpace=wrap;connectable=0;strokeColor=inherit;overflow=hidden;fillColor=none;top=0;left=0;bottom=0;right=0;pointerEvents=1;" parent="LV0FwBpydXXZrUbya0PG-6438" vertex="1">
                    <mxGeometry x="42" width="6" height="6" as="geometry">
                        <mxRectangle width="6" height="6" as="alternateBounds"/>
                    </mxGeometry>
                </mxCell>
                <mxCell id="LV0FwBpydXXZrUbya0PG-6447" value="" style="shape=partialRectangle;html=1;whiteSpace=wrap;connectable=0;strokeColor=inherit;overflow=hidden;fillColor=none;top=0;left=0;bottom=0;right=0;pointerEvents=1;" parent="LV0FwBpydXXZrUbya0PG-6438" vertex="1">
                    <mxGeometry x="48" width="6" height="6" as="geometry">
                        <mxRectangle width="6" height="6" as="alternateBounds"/>
                    </mxGeometry>
                </mxCell>
                <mxCell id="LV0FwBpydXXZrUbya0PG-6448" value="" style="shape=partialRectangle;html=1;whiteSpace=wrap;connectable=0;strokeColor=inherit;overflow=hidden;fillColor=none;top=0;left=0;bottom=0;right=0;pointerEvents=1;" parent="LV0FwBpydXXZrUbya0PG-6438" vertex="1">
                    <mxGeometry x="54" width="6" height="6" as="geometry">
                        <mxRectangle width="6" height="6" as="alternateBounds"/>
                    </mxGeometry>
                </mxCell>
                <mxCell id="LV0FwBpydXXZrUbya0PG-6449" value="" style="shape=partialRectangle;html=1;whiteSpace=wrap;connectable=0;strokeColor=inherit;overflow=hidden;fillColor=none;top=0;left=0;bottom=0;right=0;pointerEvents=1;" parent="LV0FwBpydXXZrUbya0PG-6438" vertex="1">
                    <mxGeometry x="60" width="6" height="6" as="geometry">
                        <mxRectangle width="6" height="6" as="alternateBounds"/>
                    </mxGeometry>
                </mxCell>
                <mxCell id="LV0FwBpydXXZrUbya0PG-6450" value="" style="shape=partialRectangle;html=1;whiteSpace=wrap;connectable=0;strokeColor=inherit;overflow=hidden;fillColor=none;top=0;left=0;bottom=0;right=0;pointerEvents=1;" parent="LV0FwBpydXXZrUbya0PG-6438" vertex="1">
                    <mxGeometry x="66" width="6" height="6" as="geometry">
                        <mxRectangle width="6" height="6" as="alternateBounds"/>
                    </mxGeometry>
                </mxCell>
                <mxCell id="LV0FwBpydXXZrUbya0PG-6451" value="" style="shape=partialRectangle;html=1;whiteSpace=wrap;connectable=0;strokeColor=inherit;overflow=hidden;fillColor=none;top=0;left=0;bottom=0;right=0;pointerEvents=1;" parent="LV0FwBpydXXZrUbya0PG-6438" vertex="1">
                    <mxGeometry x="72" width="6" height="6" as="geometry">
                        <mxRectangle width="6" height="6" as="alternateBounds"/>
                    </mxGeometry>
                </mxCell>
                <mxCell id="LV0FwBpydXXZrUbya0PG-6452" value="" style="shape=partialRectangle;html=1;whiteSpace=wrap;connectable=0;strokeColor=inherit;overflow=hidden;fillColor=none;top=0;left=0;bottom=0;right=0;pointerEvents=1;" parent="LV0FwBpydXXZrUbya0PG-6438" vertex="1">
                    <mxGeometry x="78" width="6" height="6" as="geometry">
                        <mxRectangle width="6" height="6" as="alternateBounds"/>
                    </mxGeometry>
                </mxCell>
                <mxCell id="LV0FwBpydXXZrUbya0PG-6453" value="" style="shape=partialRectangle;html=1;whiteSpace=wrap;connectable=0;strokeColor=inherit;overflow=hidden;fillColor=none;top=0;left=0;bottom=0;right=0;pointerEvents=1;" parent="LV0FwBpydXXZrUbya0PG-6438" vertex="1">
                    <mxGeometry x="84" width="6" height="6" as="geometry">
                        <mxRectangle width="6" height="6" as="alternateBounds"/>
                    </mxGeometry>
                </mxCell>
                <mxCell id="LV0FwBpydXXZrUbya0PG-6454" value="" style="shape=partialRectangle;html=1;whiteSpace=wrap;connectable=0;strokeColor=inherit;overflow=hidden;fillColor=none;top=0;left=0;bottom=0;right=0;pointerEvents=1;" parent="LV0FwBpydXXZrUbya0PG-6438" vertex="1">
                    <mxGeometry x="90" width="6" height="6" as="geometry">
                        <mxRectangle width="6" height="6" as="alternateBounds"/>
                    </mxGeometry>
                </mxCell>
                <mxCell id="LV0FwBpydXXZrUbya0PG-6455" value="" style="shape=partialRectangle;html=1;whiteSpace=wrap;connectable=0;strokeColor=inherit;overflow=hidden;fillColor=none;top=0;left=0;bottom=0;right=0;pointerEvents=1;" parent="LV0FwBpydXXZrUbya0PG-6438" vertex="1">
                    <mxGeometry x="96" width="6" height="6" as="geometry">
                        <mxRectangle width="6" height="6" as="alternateBounds"/>
                    </mxGeometry>
                </mxCell>
                <mxCell id="LV0FwBpydXXZrUbya0PG-6456" value="" style="shape=partialRectangle;html=1;whiteSpace=wrap;connectable=0;strokeColor=inherit;overflow=hidden;fillColor=none;top=0;left=0;bottom=0;right=0;pointerEvents=1;" parent="LV0FwBpydXXZrUbya0PG-6438" vertex="1">
                    <mxGeometry x="102" width="6" height="6" as="geometry">
                        <mxRectangle width="6" height="6" as="alternateBounds"/>
                    </mxGeometry>
                </mxCell>
                <mxCell id="LV0FwBpydXXZrUbya0PG-6457" value="" style="shape=partialRectangle;html=1;whiteSpace=wrap;connectable=0;strokeColor=inherit;overflow=hidden;fillColor=none;top=0;left=0;bottom=0;right=0;pointerEvents=1;" parent="LV0FwBpydXXZrUbya0PG-6438" vertex="1">
                    <mxGeometry x="108" width="6" height="6" as="geometry">
                        <mxRectangle width="6" height="6" as="alternateBounds"/>
                    </mxGeometry>
                </mxCell>
                <mxCell id="LV0FwBpydXXZrUbya0PG-6458" value="" style="shape=partialRectangle;html=1;whiteSpace=wrap;connectable=0;strokeColor=inherit;overflow=hidden;fillColor=none;top=0;left=0;bottom=0;right=0;pointerEvents=1;" parent="LV0FwBpydXXZrUbya0PG-6438" vertex="1">
                    <mxGeometry x="114" width="6" height="6" as="geometry">
                        <mxRectangle width="6" height="6" as="alternateBounds"/>
                    </mxGeometry>
                </mxCell>
                <mxCell id="LV0FwBpydXXZrUbya0PG-6459" value="" style="shape=tableRow;horizontal=0;startSize=0;swimlaneHead=0;swimlaneBody=0;strokeColor=inherit;top=0;left=0;bottom=0;right=0;collapsible=0;dropTarget=0;fillColor=none;points=[[0,0.5],[1,0.5]];portConstraint=eastwest;" parent="LV0FwBpydXXZrUbya0PG-6395" vertex="1">
                    <mxGeometry y="19" width="120" height="6" as="geometry"/>
                </mxCell>
                <mxCell id="LV0FwBpydXXZrUbya0PG-6460" value="" style="shape=partialRectangle;html=1;whiteSpace=wrap;connectable=0;strokeColor=inherit;overflow=hidden;fillColor=none;top=0;left=0;bottom=0;right=0;pointerEvents=1;" parent="LV0FwBpydXXZrUbya0PG-6459" vertex="1">
                    <mxGeometry width="6" height="6" as="geometry">
                        <mxRectangle width="6" height="6" as="alternateBounds"/>
                    </mxGeometry>
                </mxCell>
                <mxCell id="LV0FwBpydXXZrUbya0PG-6461" value="" style="shape=partialRectangle;html=1;whiteSpace=wrap;connectable=0;strokeColor=inherit;overflow=hidden;fillColor=none;top=0;left=0;bottom=0;right=0;pointerEvents=1;" parent="LV0FwBpydXXZrUbya0PG-6459" vertex="1">
                    <mxGeometry x="6" width="6" height="6" as="geometry">
                        <mxRectangle width="6" height="6" as="alternateBounds"/>
                    </mxGeometry>
                </mxCell>
                <mxCell id="LV0FwBpydXXZrUbya0PG-6462" value="" style="shape=partialRectangle;html=1;whiteSpace=wrap;connectable=0;strokeColor=inherit;overflow=hidden;fillColor=none;top=0;left=0;bottom=0;right=0;pointerEvents=1;" parent="LV0FwBpydXXZrUbya0PG-6459" vertex="1">
                    <mxGeometry x="12" width="6" height="6" as="geometry">
                        <mxRectangle width="6" height="6" as="alternateBounds"/>
                    </mxGeometry>
                </mxCell>
                <mxCell id="LV0FwBpydXXZrUbya0PG-6463" value="" style="shape=partialRectangle;html=1;whiteSpace=wrap;connectable=0;strokeColor=inherit;overflow=hidden;fillColor=none;top=0;left=0;bottom=0;right=0;pointerEvents=1;" parent="LV0FwBpydXXZrUbya0PG-6459" vertex="1">
                    <mxGeometry x="18" width="6" height="6" as="geometry">
                        <mxRectangle width="6" height="6" as="alternateBounds"/>
                    </mxGeometry>
                </mxCell>
                <mxCell id="LV0FwBpydXXZrUbya0PG-6464" value="" style="shape=partialRectangle;html=1;whiteSpace=wrap;connectable=0;strokeColor=inherit;overflow=hidden;fillColor=none;top=0;left=0;bottom=0;right=0;pointerEvents=1;" parent="LV0FwBpydXXZrUbya0PG-6459" vertex="1">
                    <mxGeometry x="24" width="6" height="6" as="geometry">
                        <mxRectangle width="6" height="6" as="alternateBounds"/>
                    </mxGeometry>
                </mxCell>
                <mxCell id="LV0FwBpydXXZrUbya0PG-6465" value="" style="shape=partialRectangle;html=1;whiteSpace=wrap;connectable=0;strokeColor=inherit;overflow=hidden;fillColor=none;top=0;left=0;bottom=0;right=0;pointerEvents=1;" parent="LV0FwBpydXXZrUbya0PG-6459" vertex="1">
                    <mxGeometry x="30" width="6" height="6" as="geometry">
                        <mxRectangle width="6" height="6" as="alternateBounds"/>
                    </mxGeometry>
                </mxCell>
                <mxCell id="LV0FwBpydXXZrUbya0PG-6466" value="" style="shape=partialRectangle;html=1;whiteSpace=wrap;connectable=0;strokeColor=inherit;overflow=hidden;fillColor=none;top=0;left=0;bottom=0;right=0;pointerEvents=1;" parent="LV0FwBpydXXZrUbya0PG-6459" vertex="1">
                    <mxGeometry x="36" width="6" height="6" as="geometry">
                        <mxRectangle width="6" height="6" as="alternateBounds"/>
                    </mxGeometry>
                </mxCell>
                <mxCell id="LV0FwBpydXXZrUbya0PG-6467" value="" style="shape=partialRectangle;html=1;whiteSpace=wrap;connectable=0;strokeColor=inherit;overflow=hidden;fillColor=none;top=0;left=0;bottom=0;right=0;pointerEvents=1;" parent="LV0FwBpydXXZrUbya0PG-6459" vertex="1">
                    <mxGeometry x="42" width="6" height="6" as="geometry">
                        <mxRectangle width="6" height="6" as="alternateBounds"/>
                    </mxGeometry>
                </mxCell>
                <mxCell id="LV0FwBpydXXZrUbya0PG-6468" value="" style="shape=partialRectangle;html=1;whiteSpace=wrap;connectable=0;strokeColor=inherit;overflow=hidden;fillColor=none;top=0;left=0;bottom=0;right=0;pointerEvents=1;" parent="LV0FwBpydXXZrUbya0PG-6459" vertex="1">
                    <mxGeometry x="48" width="6" height="6" as="geometry">
                        <mxRectangle width="6" height="6" as="alternateBounds"/>
                    </mxGeometry>
                </mxCell>
                <mxCell id="LV0FwBpydXXZrUbya0PG-6469" value="" style="shape=partialRectangle;html=1;whiteSpace=wrap;connectable=0;strokeColor=inherit;overflow=hidden;fillColor=none;top=0;left=0;bottom=0;right=0;pointerEvents=1;" parent="LV0FwBpydXXZrUbya0PG-6459" vertex="1">
                    <mxGeometry x="54" width="6" height="6" as="geometry">
                        <mxRectangle width="6" height="6" as="alternateBounds"/>
                    </mxGeometry>
                </mxCell>
                <mxCell id="LV0FwBpydXXZrUbya0PG-6470" value="" style="shape=partialRectangle;html=1;whiteSpace=wrap;connectable=0;strokeColor=inherit;overflow=hidden;fillColor=none;top=0;left=0;bottom=0;right=0;pointerEvents=1;" parent="LV0FwBpydXXZrUbya0PG-6459" vertex="1">
                    <mxGeometry x="60" width="6" height="6" as="geometry">
                        <mxRectangle width="6" height="6" as="alternateBounds"/>
                    </mxGeometry>
                </mxCell>
                <mxCell id="LV0FwBpydXXZrUbya0PG-6471" value="" style="shape=partialRectangle;html=1;whiteSpace=wrap;connectable=0;strokeColor=inherit;overflow=hidden;fillColor=none;top=0;left=0;bottom=0;right=0;pointerEvents=1;" parent="LV0FwBpydXXZrUbya0PG-6459" vertex="1">
                    <mxGeometry x="66" width="6" height="6" as="geometry">
                        <mxRectangle width="6" height="6" as="alternateBounds"/>
                    </mxGeometry>
                </mxCell>
                <mxCell id="LV0FwBpydXXZrUbya0PG-6472" value="" style="shape=partialRectangle;html=1;whiteSpace=wrap;connectable=0;strokeColor=inherit;overflow=hidden;fillColor=none;top=0;left=0;bottom=0;right=0;pointerEvents=1;" parent="LV0FwBpydXXZrUbya0PG-6459" vertex="1">
                    <mxGeometry x="72" width="6" height="6" as="geometry">
                        <mxRectangle width="6" height="6" as="alternateBounds"/>
                    </mxGeometry>
                </mxCell>
                <mxCell id="LV0FwBpydXXZrUbya0PG-6473" value="" style="shape=partialRectangle;html=1;whiteSpace=wrap;connectable=0;strokeColor=inherit;overflow=hidden;fillColor=none;top=0;left=0;bottom=0;right=0;pointerEvents=1;" parent="LV0FwBpydXXZrUbya0PG-6459" vertex="1">
                    <mxGeometry x="78" width="6" height="6" as="geometry">
                        <mxRectangle width="6" height="6" as="alternateBounds"/>
                    </mxGeometry>
                </mxCell>
                <mxCell id="LV0FwBpydXXZrUbya0PG-6474" value="" style="shape=partialRectangle;html=1;whiteSpace=wrap;connectable=0;strokeColor=inherit;overflow=hidden;fillColor=none;top=0;left=0;bottom=0;right=0;pointerEvents=1;" parent="LV0FwBpydXXZrUbya0PG-6459" vertex="1">
                    <mxGeometry x="84" width="6" height="6" as="geometry">
                        <mxRectangle width="6" height="6" as="alternateBounds"/>
                    </mxGeometry>
                </mxCell>
                <mxCell id="LV0FwBpydXXZrUbya0PG-6475" value="" style="shape=partialRectangle;html=1;whiteSpace=wrap;connectable=0;strokeColor=inherit;overflow=hidden;fillColor=none;top=0;left=0;bottom=0;right=0;pointerEvents=1;" parent="LV0FwBpydXXZrUbya0PG-6459" vertex="1">
                    <mxGeometry x="90" width="6" height="6" as="geometry">
                        <mxRectangle width="6" height="6" as="alternateBounds"/>
                    </mxGeometry>
                </mxCell>
                <mxCell id="LV0FwBpydXXZrUbya0PG-6476" value="" style="shape=partialRectangle;html=1;whiteSpace=wrap;connectable=0;strokeColor=inherit;overflow=hidden;fillColor=none;top=0;left=0;bottom=0;right=0;pointerEvents=1;" parent="LV0FwBpydXXZrUbya0PG-6459" vertex="1">
                    <mxGeometry x="96" width="6" height="6" as="geometry">
                        <mxRectangle width="6" height="6" as="alternateBounds"/>
                    </mxGeometry>
                </mxCell>
                <mxCell id="LV0FwBpydXXZrUbya0PG-6477" value="" style="shape=partialRectangle;html=1;whiteSpace=wrap;connectable=0;strokeColor=inherit;overflow=hidden;fillColor=none;top=0;left=0;bottom=0;right=0;pointerEvents=1;" parent="LV0FwBpydXXZrUbya0PG-6459" vertex="1">
                    <mxGeometry x="102" width="6" height="6" as="geometry">
                        <mxRectangle width="6" height="6" as="alternateBounds"/>
                    </mxGeometry>
                </mxCell>
                <mxCell id="LV0FwBpydXXZrUbya0PG-6478" value="" style="shape=partialRectangle;html=1;whiteSpace=wrap;connectable=0;strokeColor=inherit;overflow=hidden;fillColor=none;top=0;left=0;bottom=0;right=0;pointerEvents=1;" parent="LV0FwBpydXXZrUbya0PG-6459" vertex="1">
                    <mxGeometry x="108" width="6" height="6" as="geometry">
                        <mxRectangle width="6" height="6" as="alternateBounds"/>
                    </mxGeometry>
                </mxCell>
                <mxCell id="LV0FwBpydXXZrUbya0PG-6479" value="" style="shape=partialRectangle;html=1;whiteSpace=wrap;connectable=0;strokeColor=inherit;overflow=hidden;fillColor=none;top=0;left=0;bottom=0;right=0;pointerEvents=1;" parent="LV0FwBpydXXZrUbya0PG-6459" vertex="1">
                    <mxGeometry x="114" width="6" height="6" as="geometry">
                        <mxRectangle width="6" height="6" as="alternateBounds"/>
                    </mxGeometry>
                </mxCell>
                <mxCell id="LV0FwBpydXXZrUbya0PG-6480" value="" style="shape=tableRow;horizontal=0;startSize=0;swimlaneHead=0;swimlaneBody=0;strokeColor=inherit;top=0;left=0;bottom=0;right=0;collapsible=0;dropTarget=0;fillColor=none;points=[[0,0.5],[1,0.5]];portConstraint=eastwest;" parent="LV0FwBpydXXZrUbya0PG-6395" vertex="1">
                    <mxGeometry y="25" width="120" height="6" as="geometry"/>
                </mxCell>
                <mxCell id="LV0FwBpydXXZrUbya0PG-6481" value="" style="shape=partialRectangle;html=1;whiteSpace=wrap;connectable=0;strokeColor=inherit;overflow=hidden;fillColor=none;top=0;left=0;bottom=0;right=0;pointerEvents=1;" parent="LV0FwBpydXXZrUbya0PG-6480" vertex="1">
                    <mxGeometry width="6" height="6" as="geometry">
                        <mxRectangle width="6" height="6" as="alternateBounds"/>
                    </mxGeometry>
                </mxCell>
                <mxCell id="LV0FwBpydXXZrUbya0PG-6482" value="" style="shape=partialRectangle;html=1;whiteSpace=wrap;connectable=0;strokeColor=inherit;overflow=hidden;fillColor=none;top=0;left=0;bottom=0;right=0;pointerEvents=1;" parent="LV0FwBpydXXZrUbya0PG-6480" vertex="1">
                    <mxGeometry x="6" width="6" height="6" as="geometry">
                        <mxRectangle width="6" height="6" as="alternateBounds"/>
                    </mxGeometry>
                </mxCell>
                <mxCell id="LV0FwBpydXXZrUbya0PG-6483" value="" style="shape=partialRectangle;html=1;whiteSpace=wrap;connectable=0;strokeColor=inherit;overflow=hidden;fillColor=none;top=0;left=0;bottom=0;right=0;pointerEvents=1;" parent="LV0FwBpydXXZrUbya0PG-6480" vertex="1">
                    <mxGeometry x="12" width="6" height="6" as="geometry">
                        <mxRectangle width="6" height="6" as="alternateBounds"/>
                    </mxGeometry>
                </mxCell>
                <mxCell id="LV0FwBpydXXZrUbya0PG-6484" value="" style="shape=partialRectangle;html=1;whiteSpace=wrap;connectable=0;strokeColor=inherit;overflow=hidden;fillColor=none;top=0;left=0;bottom=0;right=0;pointerEvents=1;" parent="LV0FwBpydXXZrUbya0PG-6480" vertex="1">
                    <mxGeometry x="18" width="6" height="6" as="geometry">
                        <mxRectangle width="6" height="6" as="alternateBounds"/>
                    </mxGeometry>
                </mxCell>
                <mxCell id="LV0FwBpydXXZrUbya0PG-6485" value="" style="shape=partialRectangle;html=1;whiteSpace=wrap;connectable=0;strokeColor=inherit;overflow=hidden;fillColor=none;top=0;left=0;bottom=0;right=0;pointerEvents=1;" parent="LV0FwBpydXXZrUbya0PG-6480" vertex="1">
                    <mxGeometry x="24" width="6" height="6" as="geometry">
                        <mxRectangle width="6" height="6" as="alternateBounds"/>
                    </mxGeometry>
                </mxCell>
                <mxCell id="LV0FwBpydXXZrUbya0PG-6486" value="" style="shape=partialRectangle;html=1;whiteSpace=wrap;connectable=0;strokeColor=inherit;overflow=hidden;fillColor=none;top=0;left=0;bottom=0;right=0;pointerEvents=1;" parent="LV0FwBpydXXZrUbya0PG-6480" vertex="1">
                    <mxGeometry x="30" width="6" height="6" as="geometry">
                        <mxRectangle width="6" height="6" as="alternateBounds"/>
                    </mxGeometry>
                </mxCell>
                <mxCell id="LV0FwBpydXXZrUbya0PG-6487" value="" style="shape=partialRectangle;html=1;whiteSpace=wrap;connectable=0;strokeColor=inherit;overflow=hidden;fillColor=none;top=0;left=0;bottom=0;right=0;pointerEvents=1;" parent="LV0FwBpydXXZrUbya0PG-6480" vertex="1">
                    <mxGeometry x="36" width="6" height="6" as="geometry">
                        <mxRectangle width="6" height="6" as="alternateBounds"/>
                    </mxGeometry>
                </mxCell>
                <mxCell id="LV0FwBpydXXZrUbya0PG-6488" value="" style="shape=partialRectangle;html=1;whiteSpace=wrap;connectable=0;strokeColor=inherit;overflow=hidden;fillColor=none;top=0;left=0;bottom=0;right=0;pointerEvents=1;" parent="LV0FwBpydXXZrUbya0PG-6480" vertex="1">
                    <mxGeometry x="42" width="6" height="6" as="geometry">
                        <mxRectangle width="6" height="6" as="alternateBounds"/>
                    </mxGeometry>
                </mxCell>
                <mxCell id="LV0FwBpydXXZrUbya0PG-6489" value="" style="shape=partialRectangle;html=1;whiteSpace=wrap;connectable=0;strokeColor=inherit;overflow=hidden;fillColor=none;top=0;left=0;bottom=0;right=0;pointerEvents=1;" parent="LV0FwBpydXXZrUbya0PG-6480" vertex="1">
                    <mxGeometry x="48" width="6" height="6" as="geometry">
                        <mxRectangle width="6" height="6" as="alternateBounds"/>
                    </mxGeometry>
                </mxCell>
                <mxCell id="LV0FwBpydXXZrUbya0PG-6490" value="" style="shape=partialRectangle;html=1;whiteSpace=wrap;connectable=0;strokeColor=inherit;overflow=hidden;fillColor=none;top=0;left=0;bottom=0;right=0;pointerEvents=1;" parent="LV0FwBpydXXZrUbya0PG-6480" vertex="1">
                    <mxGeometry x="54" width="6" height="6" as="geometry">
                        <mxRectangle width="6" height="6" as="alternateBounds"/>
                    </mxGeometry>
                </mxCell>
                <mxCell id="LV0FwBpydXXZrUbya0PG-6491" value="" style="shape=partialRectangle;html=1;whiteSpace=wrap;connectable=0;strokeColor=inherit;overflow=hidden;fillColor=none;top=0;left=0;bottom=0;right=0;pointerEvents=1;" parent="LV0FwBpydXXZrUbya0PG-6480" vertex="1">
                    <mxGeometry x="60" width="6" height="6" as="geometry">
                        <mxRectangle width="6" height="6" as="alternateBounds"/>
                    </mxGeometry>
                </mxCell>
                <mxCell id="LV0FwBpydXXZrUbya0PG-6492" value="" style="shape=partialRectangle;html=1;whiteSpace=wrap;connectable=0;strokeColor=inherit;overflow=hidden;fillColor=none;top=0;left=0;bottom=0;right=0;pointerEvents=1;" parent="LV0FwBpydXXZrUbya0PG-6480" vertex="1">
                    <mxGeometry x="66" width="6" height="6" as="geometry">
                        <mxRectangle width="6" height="6" as="alternateBounds"/>
                    </mxGeometry>
                </mxCell>
                <mxCell id="LV0FwBpydXXZrUbya0PG-6493" value="" style="shape=partialRectangle;html=1;whiteSpace=wrap;connectable=0;strokeColor=inherit;overflow=hidden;fillColor=none;top=0;left=0;bottom=0;right=0;pointerEvents=1;" parent="LV0FwBpydXXZrUbya0PG-6480" vertex="1">
                    <mxGeometry x="72" width="6" height="6" as="geometry">
                        <mxRectangle width="6" height="6" as="alternateBounds"/>
                    </mxGeometry>
                </mxCell>
                <mxCell id="LV0FwBpydXXZrUbya0PG-6494" value="" style="shape=partialRectangle;html=1;whiteSpace=wrap;connectable=0;strokeColor=inherit;overflow=hidden;fillColor=none;top=0;left=0;bottom=0;right=0;pointerEvents=1;" parent="LV0FwBpydXXZrUbya0PG-6480" vertex="1">
                    <mxGeometry x="78" width="6" height="6" as="geometry">
                        <mxRectangle width="6" height="6" as="alternateBounds"/>
                    </mxGeometry>
                </mxCell>
                <mxCell id="LV0FwBpydXXZrUbya0PG-6495" value="" style="shape=partialRectangle;html=1;whiteSpace=wrap;connectable=0;strokeColor=inherit;overflow=hidden;fillColor=none;top=0;left=0;bottom=0;right=0;pointerEvents=1;" parent="LV0FwBpydXXZrUbya0PG-6480" vertex="1">
                    <mxGeometry x="84" width="6" height="6" as="geometry">
                        <mxRectangle width="6" height="6" as="alternateBounds"/>
                    </mxGeometry>
                </mxCell>
                <mxCell id="LV0FwBpydXXZrUbya0PG-6496" value="" style="shape=partialRectangle;html=1;whiteSpace=wrap;connectable=0;strokeColor=inherit;overflow=hidden;fillColor=none;top=0;left=0;bottom=0;right=0;pointerEvents=1;" parent="LV0FwBpydXXZrUbya0PG-6480" vertex="1">
                    <mxGeometry x="90" width="6" height="6" as="geometry">
                        <mxRectangle width="6" height="6" as="alternateBounds"/>
                    </mxGeometry>
                </mxCell>
                <mxCell id="LV0FwBpydXXZrUbya0PG-6497" value="" style="shape=partialRectangle;html=1;whiteSpace=wrap;connectable=0;strokeColor=inherit;overflow=hidden;fillColor=none;top=0;left=0;bottom=0;right=0;pointerEvents=1;" parent="LV0FwBpydXXZrUbya0PG-6480" vertex="1">
                    <mxGeometry x="96" width="6" height="6" as="geometry">
                        <mxRectangle width="6" height="6" as="alternateBounds"/>
                    </mxGeometry>
                </mxCell>
                <mxCell id="LV0FwBpydXXZrUbya0PG-6498" value="" style="shape=partialRectangle;html=1;whiteSpace=wrap;connectable=0;strokeColor=inherit;overflow=hidden;fillColor=none;top=0;left=0;bottom=0;right=0;pointerEvents=1;" parent="LV0FwBpydXXZrUbya0PG-6480" vertex="1">
                    <mxGeometry x="102" width="6" height="6" as="geometry">
                        <mxRectangle width="6" height="6" as="alternateBounds"/>
                    </mxGeometry>
                </mxCell>
                <mxCell id="LV0FwBpydXXZrUbya0PG-6499" value="" style="shape=partialRectangle;html=1;whiteSpace=wrap;connectable=0;strokeColor=inherit;overflow=hidden;fillColor=none;top=0;left=0;bottom=0;right=0;pointerEvents=1;" parent="LV0FwBpydXXZrUbya0PG-6480" vertex="1">
                    <mxGeometry x="108" width="6" height="6" as="geometry">
                        <mxRectangle width="6" height="6" as="alternateBounds"/>
                    </mxGeometry>
                </mxCell>
                <mxCell id="LV0FwBpydXXZrUbya0PG-6500" value="" style="shape=partialRectangle;html=1;whiteSpace=wrap;connectable=0;strokeColor=inherit;overflow=hidden;fillColor=none;top=0;left=0;bottom=0;right=0;pointerEvents=1;" parent="LV0FwBpydXXZrUbya0PG-6480" vertex="1">
                    <mxGeometry x="114" width="6" height="6" as="geometry">
                        <mxRectangle width="6" height="6" as="alternateBounds"/>
                    </mxGeometry>
                </mxCell>
                <mxCell id="LV0FwBpydXXZrUbya0PG-6501" value="" style="shape=tableRow;horizontal=0;startSize=0;swimlaneHead=0;swimlaneBody=0;strokeColor=inherit;top=0;left=0;bottom=0;right=0;collapsible=0;dropTarget=0;fillColor=none;points=[[0,0.5],[1,0.5]];portConstraint=eastwest;" parent="LV0FwBpydXXZrUbya0PG-6395" vertex="1">
                    <mxGeometry y="31" width="120" height="7" as="geometry"/>
                </mxCell>
                <mxCell id="LV0FwBpydXXZrUbya0PG-6502" value="" style="shape=partialRectangle;html=1;whiteSpace=wrap;connectable=0;strokeColor=inherit;overflow=hidden;fillColor=none;top=0;left=0;bottom=0;right=0;pointerEvents=1;" parent="LV0FwBpydXXZrUbya0PG-6501" vertex="1">
                    <mxGeometry width="6" height="7" as="geometry">
                        <mxRectangle width="6" height="7" as="alternateBounds"/>
                    </mxGeometry>
                </mxCell>
                <mxCell id="LV0FwBpydXXZrUbya0PG-6503" value="" style="shape=partialRectangle;html=1;whiteSpace=wrap;connectable=0;strokeColor=inherit;overflow=hidden;fillColor=none;top=0;left=0;bottom=0;right=0;pointerEvents=1;" parent="LV0FwBpydXXZrUbya0PG-6501" vertex="1">
                    <mxGeometry x="6" width="6" height="7" as="geometry">
                        <mxRectangle width="6" height="7" as="alternateBounds"/>
                    </mxGeometry>
                </mxCell>
                <mxCell id="LV0FwBpydXXZrUbya0PG-6504" value="" style="shape=partialRectangle;html=1;whiteSpace=wrap;connectable=0;strokeColor=inherit;overflow=hidden;fillColor=none;top=0;left=0;bottom=0;right=0;pointerEvents=1;" parent="LV0FwBpydXXZrUbya0PG-6501" vertex="1">
                    <mxGeometry x="12" width="6" height="7" as="geometry">
                        <mxRectangle width="6" height="7" as="alternateBounds"/>
                    </mxGeometry>
                </mxCell>
                <mxCell id="LV0FwBpydXXZrUbya0PG-6505" value="" style="shape=partialRectangle;html=1;whiteSpace=wrap;connectable=0;strokeColor=inherit;overflow=hidden;fillColor=none;top=0;left=0;bottom=0;right=0;pointerEvents=1;" parent="LV0FwBpydXXZrUbya0PG-6501" vertex="1">
                    <mxGeometry x="18" width="6" height="7" as="geometry">
                        <mxRectangle width="6" height="7" as="alternateBounds"/>
                    </mxGeometry>
                </mxCell>
                <mxCell id="LV0FwBpydXXZrUbya0PG-6506" value="" style="shape=partialRectangle;html=1;whiteSpace=wrap;connectable=0;strokeColor=inherit;overflow=hidden;fillColor=none;top=0;left=0;bottom=0;right=0;pointerEvents=1;" parent="LV0FwBpydXXZrUbya0PG-6501" vertex="1">
                    <mxGeometry x="24" width="6" height="7" as="geometry">
                        <mxRectangle width="6" height="7" as="alternateBounds"/>
                    </mxGeometry>
                </mxCell>
                <mxCell id="LV0FwBpydXXZrUbya0PG-6507" value="" style="shape=partialRectangle;html=1;whiteSpace=wrap;connectable=0;strokeColor=inherit;overflow=hidden;fillColor=none;top=0;left=0;bottom=0;right=0;pointerEvents=1;" parent="LV0FwBpydXXZrUbya0PG-6501" vertex="1">
                    <mxGeometry x="30" width="6" height="7" as="geometry">
                        <mxRectangle width="6" height="7" as="alternateBounds"/>
                    </mxGeometry>
                </mxCell>
                <mxCell id="LV0FwBpydXXZrUbya0PG-6508" value="" style="shape=partialRectangle;html=1;whiteSpace=wrap;connectable=0;strokeColor=inherit;overflow=hidden;fillColor=none;top=0;left=0;bottom=0;right=0;pointerEvents=1;" parent="LV0FwBpydXXZrUbya0PG-6501" vertex="1">
                    <mxGeometry x="36" width="6" height="7" as="geometry">
                        <mxRectangle width="6" height="7" as="alternateBounds"/>
                    </mxGeometry>
                </mxCell>
                <mxCell id="LV0FwBpydXXZrUbya0PG-6509" value="" style="shape=partialRectangle;html=1;whiteSpace=wrap;connectable=0;strokeColor=inherit;overflow=hidden;fillColor=none;top=0;left=0;bottom=0;right=0;pointerEvents=1;" parent="LV0FwBpydXXZrUbya0PG-6501" vertex="1">
                    <mxGeometry x="42" width="6" height="7" as="geometry">
                        <mxRectangle width="6" height="7" as="alternateBounds"/>
                    </mxGeometry>
                </mxCell>
                <mxCell id="LV0FwBpydXXZrUbya0PG-6510" value="" style="shape=partialRectangle;html=1;whiteSpace=wrap;connectable=0;strokeColor=inherit;overflow=hidden;fillColor=none;top=0;left=0;bottom=0;right=0;pointerEvents=1;" parent="LV0FwBpydXXZrUbya0PG-6501" vertex="1">
                    <mxGeometry x="48" width="6" height="7" as="geometry">
                        <mxRectangle width="6" height="7" as="alternateBounds"/>
                    </mxGeometry>
                </mxCell>
                <mxCell id="LV0FwBpydXXZrUbya0PG-6511" value="" style="shape=partialRectangle;html=1;whiteSpace=wrap;connectable=0;strokeColor=inherit;overflow=hidden;fillColor=none;top=0;left=0;bottom=0;right=0;pointerEvents=1;" parent="LV0FwBpydXXZrUbya0PG-6501" vertex="1">
                    <mxGeometry x="54" width="6" height="7" as="geometry">
                        <mxRectangle width="6" height="7" as="alternateBounds"/>
                    </mxGeometry>
                </mxCell>
                <mxCell id="LV0FwBpydXXZrUbya0PG-6512" value="" style="shape=partialRectangle;html=1;whiteSpace=wrap;connectable=0;strokeColor=inherit;overflow=hidden;fillColor=none;top=0;left=0;bottom=0;right=0;pointerEvents=1;" parent="LV0FwBpydXXZrUbya0PG-6501" vertex="1">
                    <mxGeometry x="60" width="6" height="7" as="geometry">
                        <mxRectangle width="6" height="7" as="alternateBounds"/>
                    </mxGeometry>
                </mxCell>
                <mxCell id="LV0FwBpydXXZrUbya0PG-6513" value="" style="shape=partialRectangle;html=1;whiteSpace=wrap;connectable=0;strokeColor=inherit;overflow=hidden;fillColor=none;top=0;left=0;bottom=0;right=0;pointerEvents=1;" parent="LV0FwBpydXXZrUbya0PG-6501" vertex="1">
                    <mxGeometry x="66" width="6" height="7" as="geometry">
                        <mxRectangle width="6" height="7" as="alternateBounds"/>
                    </mxGeometry>
                </mxCell>
                <mxCell id="LV0FwBpydXXZrUbya0PG-6514" value="" style="shape=partialRectangle;html=1;whiteSpace=wrap;connectable=0;strokeColor=inherit;overflow=hidden;fillColor=none;top=0;left=0;bottom=0;right=0;pointerEvents=1;" parent="LV0FwBpydXXZrUbya0PG-6501" vertex="1">
                    <mxGeometry x="72" width="6" height="7" as="geometry">
                        <mxRectangle width="6" height="7" as="alternateBounds"/>
                    </mxGeometry>
                </mxCell>
                <mxCell id="LV0FwBpydXXZrUbya0PG-6515" value="" style="shape=partialRectangle;html=1;whiteSpace=wrap;connectable=0;strokeColor=inherit;overflow=hidden;fillColor=none;top=0;left=0;bottom=0;right=0;pointerEvents=1;" parent="LV0FwBpydXXZrUbya0PG-6501" vertex="1">
                    <mxGeometry x="78" width="6" height="7" as="geometry">
                        <mxRectangle width="6" height="7" as="alternateBounds"/>
                    </mxGeometry>
                </mxCell>
                <mxCell id="LV0FwBpydXXZrUbya0PG-6516" value="" style="shape=partialRectangle;html=1;whiteSpace=wrap;connectable=0;strokeColor=inherit;overflow=hidden;fillColor=none;top=0;left=0;bottom=0;right=0;pointerEvents=1;" parent="LV0FwBpydXXZrUbya0PG-6501" vertex="1">
                    <mxGeometry x="84" width="6" height="7" as="geometry">
                        <mxRectangle width="6" height="7" as="alternateBounds"/>
                    </mxGeometry>
                </mxCell>
                <mxCell id="LV0FwBpydXXZrUbya0PG-6517" value="" style="shape=partialRectangle;html=1;whiteSpace=wrap;connectable=0;strokeColor=inherit;overflow=hidden;fillColor=none;top=0;left=0;bottom=0;right=0;pointerEvents=1;" parent="LV0FwBpydXXZrUbya0PG-6501" vertex="1">
                    <mxGeometry x="90" width="6" height="7" as="geometry">
                        <mxRectangle width="6" height="7" as="alternateBounds"/>
                    </mxGeometry>
                </mxCell>
                <mxCell id="LV0FwBpydXXZrUbya0PG-6518" value="" style="shape=partialRectangle;html=1;whiteSpace=wrap;connectable=0;strokeColor=inherit;overflow=hidden;fillColor=none;top=0;left=0;bottom=0;right=0;pointerEvents=1;" parent="LV0FwBpydXXZrUbya0PG-6501" vertex="1">
                    <mxGeometry x="96" width="6" height="7" as="geometry">
                        <mxRectangle width="6" height="7" as="alternateBounds"/>
                    </mxGeometry>
                </mxCell>
                <mxCell id="LV0FwBpydXXZrUbya0PG-6519" value="" style="shape=partialRectangle;html=1;whiteSpace=wrap;connectable=0;strokeColor=inherit;overflow=hidden;fillColor=none;top=0;left=0;bottom=0;right=0;pointerEvents=1;" parent="LV0FwBpydXXZrUbya0PG-6501" vertex="1">
                    <mxGeometry x="102" width="6" height="7" as="geometry">
                        <mxRectangle width="6" height="7" as="alternateBounds"/>
                    </mxGeometry>
                </mxCell>
                <mxCell id="LV0FwBpydXXZrUbya0PG-6520" value="" style="shape=partialRectangle;html=1;whiteSpace=wrap;connectable=0;strokeColor=inherit;overflow=hidden;fillColor=none;top=0;left=0;bottom=0;right=0;pointerEvents=1;" parent="LV0FwBpydXXZrUbya0PG-6501" vertex="1">
                    <mxGeometry x="108" width="6" height="7" as="geometry">
                        <mxRectangle width="6" height="7" as="alternateBounds"/>
                    </mxGeometry>
                </mxCell>
                <mxCell id="LV0FwBpydXXZrUbya0PG-6521" value="" style="shape=partialRectangle;html=1;whiteSpace=wrap;connectable=0;strokeColor=inherit;overflow=hidden;fillColor=none;top=0;left=0;bottom=0;right=0;pointerEvents=1;" parent="LV0FwBpydXXZrUbya0PG-6501" vertex="1">
                    <mxGeometry x="114" width="6" height="7" as="geometry">
                        <mxRectangle width="6" height="7" as="alternateBounds"/>
                    </mxGeometry>
                </mxCell>
                <mxCell id="LV0FwBpydXXZrUbya0PG-6522" value="" style="shape=tableRow;horizontal=0;startSize=0;swimlaneHead=0;swimlaneBody=0;strokeColor=inherit;top=0;left=0;bottom=0;right=0;collapsible=0;dropTarget=0;fillColor=none;points=[[0,0.5],[1,0.5]];portConstraint=eastwest;" parent="LV0FwBpydXXZrUbya0PG-6395" vertex="1">
                    <mxGeometry y="38" width="120" height="6" as="geometry"/>
                </mxCell>
                <mxCell id="LV0FwBpydXXZrUbya0PG-6523" value="" style="shape=partialRectangle;html=1;whiteSpace=wrap;connectable=0;strokeColor=inherit;overflow=hidden;fillColor=none;top=0;left=0;bottom=0;right=0;pointerEvents=1;" parent="LV0FwBpydXXZrUbya0PG-6522" vertex="1">
                    <mxGeometry width="6" height="6" as="geometry">
                        <mxRectangle width="6" height="6" as="alternateBounds"/>
                    </mxGeometry>
                </mxCell>
                <mxCell id="LV0FwBpydXXZrUbya0PG-6524" value="" style="shape=partialRectangle;html=1;whiteSpace=wrap;connectable=0;strokeColor=inherit;overflow=hidden;fillColor=none;top=0;left=0;bottom=0;right=0;pointerEvents=1;" parent="LV0FwBpydXXZrUbya0PG-6522" vertex="1">
                    <mxGeometry x="6" width="6" height="6" as="geometry">
                        <mxRectangle width="6" height="6" as="alternateBounds"/>
                    </mxGeometry>
                </mxCell>
                <mxCell id="LV0FwBpydXXZrUbya0PG-6525" value="" style="shape=partialRectangle;html=1;whiteSpace=wrap;connectable=0;strokeColor=inherit;overflow=hidden;fillColor=none;top=0;left=0;bottom=0;right=0;pointerEvents=1;" parent="LV0FwBpydXXZrUbya0PG-6522" vertex="1">
                    <mxGeometry x="12" width="6" height="6" as="geometry">
                        <mxRectangle width="6" height="6" as="alternateBounds"/>
                    </mxGeometry>
                </mxCell>
                <mxCell id="LV0FwBpydXXZrUbya0PG-6526" value="" style="shape=partialRectangle;html=1;whiteSpace=wrap;connectable=0;strokeColor=inherit;overflow=hidden;fillColor=none;top=0;left=0;bottom=0;right=0;pointerEvents=1;" parent="LV0FwBpydXXZrUbya0PG-6522" vertex="1">
                    <mxGeometry x="18" width="6" height="6" as="geometry">
                        <mxRectangle width="6" height="6" as="alternateBounds"/>
                    </mxGeometry>
                </mxCell>
                <mxCell id="LV0FwBpydXXZrUbya0PG-6527" value="" style="shape=partialRectangle;html=1;whiteSpace=wrap;connectable=0;strokeColor=inherit;overflow=hidden;fillColor=none;top=0;left=0;bottom=0;right=0;pointerEvents=1;" parent="LV0FwBpydXXZrUbya0PG-6522" vertex="1">
                    <mxGeometry x="24" width="6" height="6" as="geometry">
                        <mxRectangle width="6" height="6" as="alternateBounds"/>
                    </mxGeometry>
                </mxCell>
                <mxCell id="LV0FwBpydXXZrUbya0PG-6528" value="" style="shape=partialRectangle;html=1;whiteSpace=wrap;connectable=0;strokeColor=inherit;overflow=hidden;fillColor=none;top=0;left=0;bottom=0;right=0;pointerEvents=1;" parent="LV0FwBpydXXZrUbya0PG-6522" vertex="1">
                    <mxGeometry x="30" width="6" height="6" as="geometry">
                        <mxRectangle width="6" height="6" as="alternateBounds"/>
                    </mxGeometry>
                </mxCell>
                <mxCell id="LV0FwBpydXXZrUbya0PG-6529" value="" style="shape=partialRectangle;html=1;whiteSpace=wrap;connectable=0;strokeColor=inherit;overflow=hidden;fillColor=none;top=0;left=0;bottom=0;right=0;pointerEvents=1;" parent="LV0FwBpydXXZrUbya0PG-6522" vertex="1">
                    <mxGeometry x="36" width="6" height="6" as="geometry">
                        <mxRectangle width="6" height="6" as="alternateBounds"/>
                    </mxGeometry>
                </mxCell>
                <mxCell id="LV0FwBpydXXZrUbya0PG-6530" value="" style="shape=partialRectangle;html=1;whiteSpace=wrap;connectable=0;strokeColor=inherit;overflow=hidden;fillColor=none;top=0;left=0;bottom=0;right=0;pointerEvents=1;" parent="LV0FwBpydXXZrUbya0PG-6522" vertex="1">
                    <mxGeometry x="42" width="6" height="6" as="geometry">
                        <mxRectangle width="6" height="6" as="alternateBounds"/>
                    </mxGeometry>
                </mxCell>
                <mxCell id="LV0FwBpydXXZrUbya0PG-6531" value="" style="shape=partialRectangle;html=1;whiteSpace=wrap;connectable=0;strokeColor=inherit;overflow=hidden;fillColor=none;top=0;left=0;bottom=0;right=0;pointerEvents=1;" parent="LV0FwBpydXXZrUbya0PG-6522" vertex="1">
                    <mxGeometry x="48" width="6" height="6" as="geometry">
                        <mxRectangle width="6" height="6" as="alternateBounds"/>
                    </mxGeometry>
                </mxCell>
                <mxCell id="LV0FwBpydXXZrUbya0PG-6532" value="" style="shape=partialRectangle;html=1;whiteSpace=wrap;connectable=0;strokeColor=inherit;overflow=hidden;fillColor=none;top=0;left=0;bottom=0;right=0;pointerEvents=1;" parent="LV0FwBpydXXZrUbya0PG-6522" vertex="1">
                    <mxGeometry x="54" width="6" height="6" as="geometry">
                        <mxRectangle width="6" height="6" as="alternateBounds"/>
                    </mxGeometry>
                </mxCell>
                <mxCell id="LV0FwBpydXXZrUbya0PG-6533" value="" style="shape=partialRectangle;html=1;whiteSpace=wrap;connectable=0;strokeColor=inherit;overflow=hidden;fillColor=none;top=0;left=0;bottom=0;right=0;pointerEvents=1;" parent="LV0FwBpydXXZrUbya0PG-6522" vertex="1">
                    <mxGeometry x="60" width="6" height="6" as="geometry">
                        <mxRectangle width="6" height="6" as="alternateBounds"/>
                    </mxGeometry>
                </mxCell>
                <mxCell id="LV0FwBpydXXZrUbya0PG-6534" value="" style="shape=partialRectangle;html=1;whiteSpace=wrap;connectable=0;strokeColor=inherit;overflow=hidden;fillColor=none;top=0;left=0;bottom=0;right=0;pointerEvents=1;" parent="LV0FwBpydXXZrUbya0PG-6522" vertex="1">
                    <mxGeometry x="66" width="6" height="6" as="geometry">
                        <mxRectangle width="6" height="6" as="alternateBounds"/>
                    </mxGeometry>
                </mxCell>
                <mxCell id="LV0FwBpydXXZrUbya0PG-6535" value="" style="shape=partialRectangle;html=1;whiteSpace=wrap;connectable=0;strokeColor=inherit;overflow=hidden;fillColor=none;top=0;left=0;bottom=0;right=0;pointerEvents=1;" parent="LV0FwBpydXXZrUbya0PG-6522" vertex="1">
                    <mxGeometry x="72" width="6" height="6" as="geometry">
                        <mxRectangle width="6" height="6" as="alternateBounds"/>
                    </mxGeometry>
                </mxCell>
                <mxCell id="LV0FwBpydXXZrUbya0PG-6536" value="" style="shape=partialRectangle;html=1;whiteSpace=wrap;connectable=0;strokeColor=inherit;overflow=hidden;fillColor=none;top=0;left=0;bottom=0;right=0;pointerEvents=1;" parent="LV0FwBpydXXZrUbya0PG-6522" vertex="1">
                    <mxGeometry x="78" width="6" height="6" as="geometry">
                        <mxRectangle width="6" height="6" as="alternateBounds"/>
                    </mxGeometry>
                </mxCell>
                <mxCell id="LV0FwBpydXXZrUbya0PG-6537" value="" style="shape=partialRectangle;html=1;whiteSpace=wrap;connectable=0;strokeColor=inherit;overflow=hidden;fillColor=none;top=0;left=0;bottom=0;right=0;pointerEvents=1;" parent="LV0FwBpydXXZrUbya0PG-6522" vertex="1">
                    <mxGeometry x="84" width="6" height="6" as="geometry">
                        <mxRectangle width="6" height="6" as="alternateBounds"/>
                    </mxGeometry>
                </mxCell>
                <mxCell id="LV0FwBpydXXZrUbya0PG-6538" value="" style="shape=partialRectangle;html=1;whiteSpace=wrap;connectable=0;strokeColor=inherit;overflow=hidden;fillColor=none;top=0;left=0;bottom=0;right=0;pointerEvents=1;" parent="LV0FwBpydXXZrUbya0PG-6522" vertex="1">
                    <mxGeometry x="90" width="6" height="6" as="geometry">
                        <mxRectangle width="6" height="6" as="alternateBounds"/>
                    </mxGeometry>
                </mxCell>
                <mxCell id="LV0FwBpydXXZrUbya0PG-6539" value="" style="shape=partialRectangle;html=1;whiteSpace=wrap;connectable=0;strokeColor=inherit;overflow=hidden;fillColor=none;top=0;left=0;bottom=0;right=0;pointerEvents=1;" parent="LV0FwBpydXXZrUbya0PG-6522" vertex="1">
                    <mxGeometry x="96" width="6" height="6" as="geometry">
                        <mxRectangle width="6" height="6" as="alternateBounds"/>
                    </mxGeometry>
                </mxCell>
                <mxCell id="LV0FwBpydXXZrUbya0PG-6540" value="" style="shape=partialRectangle;html=1;whiteSpace=wrap;connectable=0;strokeColor=inherit;overflow=hidden;fillColor=none;top=0;left=0;bottom=0;right=0;pointerEvents=1;" parent="LV0FwBpydXXZrUbya0PG-6522" vertex="1">
                    <mxGeometry x="102" width="6" height="6" as="geometry">
                        <mxRectangle width="6" height="6" as="alternateBounds"/>
                    </mxGeometry>
                </mxCell>
                <mxCell id="LV0FwBpydXXZrUbya0PG-6541" value="" style="shape=partialRectangle;html=1;whiteSpace=wrap;connectable=0;strokeColor=inherit;overflow=hidden;fillColor=none;top=0;left=0;bottom=0;right=0;pointerEvents=1;" parent="LV0FwBpydXXZrUbya0PG-6522" vertex="1">
                    <mxGeometry x="108" width="6" height="6" as="geometry">
                        <mxRectangle width="6" height="6" as="alternateBounds"/>
                    </mxGeometry>
                </mxCell>
                <mxCell id="LV0FwBpydXXZrUbya0PG-6542" value="" style="shape=partialRectangle;html=1;whiteSpace=wrap;connectable=0;strokeColor=inherit;overflow=hidden;fillColor=none;top=0;left=0;bottom=0;right=0;pointerEvents=1;" parent="LV0FwBpydXXZrUbya0PG-6522" vertex="1">
                    <mxGeometry x="114" width="6" height="6" as="geometry">
                        <mxRectangle width="6" height="6" as="alternateBounds"/>
                    </mxGeometry>
                </mxCell>
                <mxCell id="LV0FwBpydXXZrUbya0PG-6543" value="" style="shape=tableRow;horizontal=0;startSize=0;swimlaneHead=0;swimlaneBody=0;strokeColor=inherit;top=0;left=0;bottom=0;right=0;collapsible=0;dropTarget=0;fillColor=none;points=[[0,0.5],[1,0.5]];portConstraint=eastwest;" parent="LV0FwBpydXXZrUbya0PG-6395" vertex="1">
                    <mxGeometry y="44" width="120" height="6" as="geometry"/>
                </mxCell>
                <mxCell id="LV0FwBpydXXZrUbya0PG-6544" value="" style="shape=partialRectangle;html=1;whiteSpace=wrap;connectable=0;strokeColor=inherit;overflow=hidden;fillColor=none;top=0;left=0;bottom=0;right=0;pointerEvents=1;" parent="LV0FwBpydXXZrUbya0PG-6543" vertex="1">
                    <mxGeometry width="6" height="6" as="geometry">
                        <mxRectangle width="6" height="6" as="alternateBounds"/>
                    </mxGeometry>
                </mxCell>
                <mxCell id="LV0FwBpydXXZrUbya0PG-6545" value="" style="shape=partialRectangle;html=1;whiteSpace=wrap;connectable=0;strokeColor=inherit;overflow=hidden;fillColor=none;top=0;left=0;bottom=0;right=0;pointerEvents=1;" parent="LV0FwBpydXXZrUbya0PG-6543" vertex="1">
                    <mxGeometry x="6" width="6" height="6" as="geometry">
                        <mxRectangle width="6" height="6" as="alternateBounds"/>
                    </mxGeometry>
                </mxCell>
                <mxCell id="LV0FwBpydXXZrUbya0PG-6546" value="" style="shape=partialRectangle;html=1;whiteSpace=wrap;connectable=0;strokeColor=inherit;overflow=hidden;fillColor=none;top=0;left=0;bottom=0;right=0;pointerEvents=1;" parent="LV0FwBpydXXZrUbya0PG-6543" vertex="1">
                    <mxGeometry x="12" width="6" height="6" as="geometry">
                        <mxRectangle width="6" height="6" as="alternateBounds"/>
                    </mxGeometry>
                </mxCell>
                <mxCell id="LV0FwBpydXXZrUbya0PG-6547" value="" style="shape=partialRectangle;html=1;whiteSpace=wrap;connectable=0;strokeColor=inherit;overflow=hidden;fillColor=none;top=0;left=0;bottom=0;right=0;pointerEvents=1;" parent="LV0FwBpydXXZrUbya0PG-6543" vertex="1">
                    <mxGeometry x="18" width="6" height="6" as="geometry">
                        <mxRectangle width="6" height="6" as="alternateBounds"/>
                    </mxGeometry>
                </mxCell>
                <mxCell id="LV0FwBpydXXZrUbya0PG-6548" value="" style="shape=partialRectangle;html=1;whiteSpace=wrap;connectable=0;strokeColor=inherit;overflow=hidden;fillColor=none;top=0;left=0;bottom=0;right=0;pointerEvents=1;" parent="LV0FwBpydXXZrUbya0PG-6543" vertex="1">
                    <mxGeometry x="24" width="6" height="6" as="geometry">
                        <mxRectangle width="6" height="6" as="alternateBounds"/>
                    </mxGeometry>
                </mxCell>
                <mxCell id="LV0FwBpydXXZrUbya0PG-6549" value="" style="shape=partialRectangle;html=1;whiteSpace=wrap;connectable=0;strokeColor=inherit;overflow=hidden;fillColor=none;top=0;left=0;bottom=0;right=0;pointerEvents=1;" parent="LV0FwBpydXXZrUbya0PG-6543" vertex="1">
                    <mxGeometry x="30" width="6" height="6" as="geometry">
                        <mxRectangle width="6" height="6" as="alternateBounds"/>
                    </mxGeometry>
                </mxCell>
                <mxCell id="LV0FwBpydXXZrUbya0PG-6550" value="" style="shape=partialRectangle;html=1;whiteSpace=wrap;connectable=0;strokeColor=inherit;overflow=hidden;fillColor=none;top=0;left=0;bottom=0;right=0;pointerEvents=1;" parent="LV0FwBpydXXZrUbya0PG-6543" vertex="1">
                    <mxGeometry x="36" width="6" height="6" as="geometry">
                        <mxRectangle width="6" height="6" as="alternateBounds"/>
                    </mxGeometry>
                </mxCell>
                <mxCell id="LV0FwBpydXXZrUbya0PG-6551" value="" style="shape=partialRectangle;html=1;whiteSpace=wrap;connectable=0;strokeColor=inherit;overflow=hidden;fillColor=none;top=0;left=0;bottom=0;right=0;pointerEvents=1;" parent="LV0FwBpydXXZrUbya0PG-6543" vertex="1">
                    <mxGeometry x="42" width="6" height="6" as="geometry">
                        <mxRectangle width="6" height="6" as="alternateBounds"/>
                    </mxGeometry>
                </mxCell>
                <mxCell id="LV0FwBpydXXZrUbya0PG-6552" value="" style="shape=partialRectangle;html=1;whiteSpace=wrap;connectable=0;strokeColor=inherit;overflow=hidden;fillColor=none;top=0;left=0;bottom=0;right=0;pointerEvents=1;" parent="LV0FwBpydXXZrUbya0PG-6543" vertex="1">
                    <mxGeometry x="48" width="6" height="6" as="geometry">
                        <mxRectangle width="6" height="6" as="alternateBounds"/>
                    </mxGeometry>
                </mxCell>
                <mxCell id="LV0FwBpydXXZrUbya0PG-6553" value="" style="shape=partialRectangle;html=1;whiteSpace=wrap;connectable=0;strokeColor=inherit;overflow=hidden;fillColor=none;top=0;left=0;bottom=0;right=0;pointerEvents=1;" parent="LV0FwBpydXXZrUbya0PG-6543" vertex="1">
                    <mxGeometry x="54" width="6" height="6" as="geometry">
                        <mxRectangle width="6" height="6" as="alternateBounds"/>
                    </mxGeometry>
                </mxCell>
                <mxCell id="LV0FwBpydXXZrUbya0PG-6554" value="" style="shape=partialRectangle;html=1;whiteSpace=wrap;connectable=0;strokeColor=inherit;overflow=hidden;fillColor=none;top=0;left=0;bottom=0;right=0;pointerEvents=1;" parent="LV0FwBpydXXZrUbya0PG-6543" vertex="1">
                    <mxGeometry x="60" width="6" height="6" as="geometry">
                        <mxRectangle width="6" height="6" as="alternateBounds"/>
                    </mxGeometry>
                </mxCell>
                <mxCell id="LV0FwBpydXXZrUbya0PG-6555" value="" style="shape=partialRectangle;html=1;whiteSpace=wrap;connectable=0;strokeColor=inherit;overflow=hidden;fillColor=none;top=0;left=0;bottom=0;right=0;pointerEvents=1;" parent="LV0FwBpydXXZrUbya0PG-6543" vertex="1">
                    <mxGeometry x="66" width="6" height="6" as="geometry">
                        <mxRectangle width="6" height="6" as="alternateBounds"/>
                    </mxGeometry>
                </mxCell>
                <mxCell id="LV0FwBpydXXZrUbya0PG-6556" value="" style="shape=partialRectangle;html=1;whiteSpace=wrap;connectable=0;strokeColor=inherit;overflow=hidden;fillColor=none;top=0;left=0;bottom=0;right=0;pointerEvents=1;" parent="LV0FwBpydXXZrUbya0PG-6543" vertex="1">
                    <mxGeometry x="72" width="6" height="6" as="geometry">
                        <mxRectangle width="6" height="6" as="alternateBounds"/>
                    </mxGeometry>
                </mxCell>
                <mxCell id="LV0FwBpydXXZrUbya0PG-6557" value="" style="shape=partialRectangle;html=1;whiteSpace=wrap;connectable=0;strokeColor=inherit;overflow=hidden;fillColor=none;top=0;left=0;bottom=0;right=0;pointerEvents=1;" parent="LV0FwBpydXXZrUbya0PG-6543" vertex="1">
                    <mxGeometry x="78" width="6" height="6" as="geometry">
                        <mxRectangle width="6" height="6" as="alternateBounds"/>
                    </mxGeometry>
                </mxCell>
                <mxCell id="LV0FwBpydXXZrUbya0PG-6558" value="" style="shape=partialRectangle;html=1;whiteSpace=wrap;connectable=0;strokeColor=inherit;overflow=hidden;fillColor=none;top=0;left=0;bottom=0;right=0;pointerEvents=1;" parent="LV0FwBpydXXZrUbya0PG-6543" vertex="1">
                    <mxGeometry x="84" width="6" height="6" as="geometry">
                        <mxRectangle width="6" height="6" as="alternateBounds"/>
                    </mxGeometry>
                </mxCell>
                <mxCell id="LV0FwBpydXXZrUbya0PG-6559" value="" style="shape=partialRectangle;html=1;whiteSpace=wrap;connectable=0;strokeColor=inherit;overflow=hidden;fillColor=none;top=0;left=0;bottom=0;right=0;pointerEvents=1;" parent="LV0FwBpydXXZrUbya0PG-6543" vertex="1">
                    <mxGeometry x="90" width="6" height="6" as="geometry">
                        <mxRectangle width="6" height="6" as="alternateBounds"/>
                    </mxGeometry>
                </mxCell>
                <mxCell id="LV0FwBpydXXZrUbya0PG-6560" value="" style="shape=partialRectangle;html=1;whiteSpace=wrap;connectable=0;strokeColor=inherit;overflow=hidden;fillColor=none;top=0;left=0;bottom=0;right=0;pointerEvents=1;" parent="LV0FwBpydXXZrUbya0PG-6543" vertex="1">
                    <mxGeometry x="96" width="6" height="6" as="geometry">
                        <mxRectangle width="6" height="6" as="alternateBounds"/>
                    </mxGeometry>
                </mxCell>
                <mxCell id="LV0FwBpydXXZrUbya0PG-6561" value="" style="shape=partialRectangle;html=1;whiteSpace=wrap;connectable=0;strokeColor=inherit;overflow=hidden;fillColor=none;top=0;left=0;bottom=0;right=0;pointerEvents=1;" parent="LV0FwBpydXXZrUbya0PG-6543" vertex="1">
                    <mxGeometry x="102" width="6" height="6" as="geometry">
                        <mxRectangle width="6" height="6" as="alternateBounds"/>
                    </mxGeometry>
                </mxCell>
                <mxCell id="LV0FwBpydXXZrUbya0PG-6562" value="" style="shape=partialRectangle;html=1;whiteSpace=wrap;connectable=0;strokeColor=inherit;overflow=hidden;fillColor=none;top=0;left=0;bottom=0;right=0;pointerEvents=1;" parent="LV0FwBpydXXZrUbya0PG-6543" vertex="1">
                    <mxGeometry x="108" width="6" height="6" as="geometry">
                        <mxRectangle width="6" height="6" as="alternateBounds"/>
                    </mxGeometry>
                </mxCell>
                <mxCell id="LV0FwBpydXXZrUbya0PG-6563" value="" style="shape=partialRectangle;html=1;whiteSpace=wrap;connectable=0;strokeColor=inherit;overflow=hidden;fillColor=none;top=0;left=0;bottom=0;right=0;pointerEvents=1;" parent="LV0FwBpydXXZrUbya0PG-6543" vertex="1">
                    <mxGeometry x="114" width="6" height="6" as="geometry">
                        <mxRectangle width="6" height="6" as="alternateBounds"/>
                    </mxGeometry>
                </mxCell>
                <mxCell id="LV0FwBpydXXZrUbya0PG-5960" value="GPU cores" style="text;html=1;strokeColor=none;fillColor=none;align=center;verticalAlign=middle;whiteSpace=wrap;rounded=0;fontSize=17;fontColor=#FFFFFF;" parent="1" vertex="1">
                    <mxGeometry x="572" y="73" width="120" height="50" as="geometry"/>
                </mxCell>
                <mxCell id="LV0FwBpydXXZrUbya0PG-5968" value="" style="endArrow=classic;startArrow=classic;html=1;rounded=0;entryX=0.5;entryY=0;entryDx=0;entryDy=0;strokeWidth=2;strokeColor=#ffffff;exitX=0.5;exitY=1;exitDx=0;exitDy=0;" parent="1" source="LV0FwBpydXXZrUbya0PG-6778" target="UvHuP5o6jSuoLTm0AUZA-5960" edge="1">
                    <mxGeometry width="50" height="50" relative="1" as="geometry">
                        <mxPoint x="290" y="130" as="sourcePoint"/>
                        <mxPoint x="289.5" y="160" as="targetPoint"/>
                    </mxGeometry>
                </mxCell>
                <mxCell id="LV0FwBpydXXZrUbya0PG-6778" value="" style="rounded=0;whiteSpace=wrap;html=1;strokeColor=none;fillColor=#9C2A44;" parent="1" vertex="1">
                    <mxGeometry x="225" y="46.5" width="130" height="85" as="geometry"/>
                </mxCell>
                <mxCell id="LV0FwBpydXXZrUbya0PG-6564" value="" style="shape=table;startSize=0;container=1;collapsible=0;childLayout=tableLayout;fillColor=#C23555;strokeColor=#9C2A44;" parent="1" vertex="1">
                    <mxGeometry x="229" y="73" width="120" height="50" as="geometry"/>
                </mxCell>
                <mxCell id="LV0FwBpydXXZrUbya0PG-6565" value="" style="shape=tableRow;horizontal=0;startSize=0;swimlaneHead=0;swimlaneBody=0;strokeColor=inherit;top=0;left=0;bottom=0;right=0;collapsible=0;dropTarget=0;fillColor=none;points=[[0,0.5],[1,0.5]];portConstraint=eastwest;" parent="LV0FwBpydXXZrUbya0PG-6564" vertex="1">
                    <mxGeometry width="120" height="6" as="geometry"/>
                </mxCell>
                <mxCell id="LV0FwBpydXXZrUbya0PG-6566" value="" style="shape=partialRectangle;html=1;whiteSpace=wrap;connectable=0;strokeColor=inherit;overflow=hidden;fillColor=none;top=0;left=0;bottom=0;right=0;pointerEvents=1;" parent="LV0FwBpydXXZrUbya0PG-6565" vertex="1">
                    <mxGeometry width="6" height="6" as="geometry">
                        <mxRectangle width="6" height="6" as="alternateBounds"/>
                    </mxGeometry>
                </mxCell>
                <mxCell id="LV0FwBpydXXZrUbya0PG-6567" value="" style="shape=partialRectangle;html=1;whiteSpace=wrap;connectable=0;strokeColor=inherit;overflow=hidden;fillColor=none;top=0;left=0;bottom=0;right=0;pointerEvents=1;" parent="LV0FwBpydXXZrUbya0PG-6565" vertex="1">
                    <mxGeometry x="6" width="6" height="6" as="geometry">
                        <mxRectangle width="6" height="6" as="alternateBounds"/>
                    </mxGeometry>
                </mxCell>
                <mxCell id="LV0FwBpydXXZrUbya0PG-6568" value="" style="shape=partialRectangle;html=1;whiteSpace=wrap;connectable=0;strokeColor=inherit;overflow=hidden;fillColor=none;top=0;left=0;bottom=0;right=0;pointerEvents=1;" parent="LV0FwBpydXXZrUbya0PG-6565" vertex="1">
                    <mxGeometry x="12" width="6" height="6" as="geometry">
                        <mxRectangle width="6" height="6" as="alternateBounds"/>
                    </mxGeometry>
                </mxCell>
                <mxCell id="LV0FwBpydXXZrUbya0PG-6569" value="" style="shape=partialRectangle;html=1;whiteSpace=wrap;connectable=0;strokeColor=inherit;overflow=hidden;fillColor=none;top=0;left=0;bottom=0;right=0;pointerEvents=1;" parent="LV0FwBpydXXZrUbya0PG-6565" vertex="1">
                    <mxGeometry x="18" width="6" height="6" as="geometry">
                        <mxRectangle width="6" height="6" as="alternateBounds"/>
                    </mxGeometry>
                </mxCell>
                <mxCell id="LV0FwBpydXXZrUbya0PG-6570" value="" style="shape=partialRectangle;html=1;whiteSpace=wrap;connectable=0;strokeColor=inherit;overflow=hidden;fillColor=none;top=0;left=0;bottom=0;right=0;pointerEvents=1;" parent="LV0FwBpydXXZrUbya0PG-6565" vertex="1">
                    <mxGeometry x="24" width="6" height="6" as="geometry">
                        <mxRectangle width="6" height="6" as="alternateBounds"/>
                    </mxGeometry>
                </mxCell>
                <mxCell id="LV0FwBpydXXZrUbya0PG-6571" value="" style="shape=partialRectangle;html=1;whiteSpace=wrap;connectable=0;strokeColor=inherit;overflow=hidden;fillColor=none;top=0;left=0;bottom=0;right=0;pointerEvents=1;" parent="LV0FwBpydXXZrUbya0PG-6565" vertex="1">
                    <mxGeometry x="30" width="6" height="6" as="geometry">
                        <mxRectangle width="6" height="6" as="alternateBounds"/>
                    </mxGeometry>
                </mxCell>
                <mxCell id="LV0FwBpydXXZrUbya0PG-6572" value="" style="shape=partialRectangle;html=1;whiteSpace=wrap;connectable=0;strokeColor=inherit;overflow=hidden;fillColor=none;top=0;left=0;bottom=0;right=0;pointerEvents=1;" parent="LV0FwBpydXXZrUbya0PG-6565" vertex="1">
                    <mxGeometry x="36" width="6" height="6" as="geometry">
                        <mxRectangle width="6" height="6" as="alternateBounds"/>
                    </mxGeometry>
                </mxCell>
                <mxCell id="LV0FwBpydXXZrUbya0PG-6573" value="" style="shape=partialRectangle;html=1;whiteSpace=wrap;connectable=0;strokeColor=inherit;overflow=hidden;fillColor=none;top=0;left=0;bottom=0;right=0;pointerEvents=1;" parent="LV0FwBpydXXZrUbya0PG-6565" vertex="1">
                    <mxGeometry x="42" width="6" height="6" as="geometry">
                        <mxRectangle width="6" height="6" as="alternateBounds"/>
                    </mxGeometry>
                </mxCell>
                <mxCell id="LV0FwBpydXXZrUbya0PG-6574" value="" style="shape=partialRectangle;html=1;whiteSpace=wrap;connectable=0;strokeColor=inherit;overflow=hidden;fillColor=none;top=0;left=0;bottom=0;right=0;pointerEvents=1;" parent="LV0FwBpydXXZrUbya0PG-6565" vertex="1">
                    <mxGeometry x="48" width="6" height="6" as="geometry">
                        <mxRectangle width="6" height="6" as="alternateBounds"/>
                    </mxGeometry>
                </mxCell>
                <mxCell id="LV0FwBpydXXZrUbya0PG-6575" value="" style="shape=partialRectangle;html=1;whiteSpace=wrap;connectable=0;strokeColor=inherit;overflow=hidden;fillColor=none;top=0;left=0;bottom=0;right=0;pointerEvents=1;" parent="LV0FwBpydXXZrUbya0PG-6565" vertex="1">
                    <mxGeometry x="54" width="6" height="6" as="geometry">
                        <mxRectangle width="6" height="6" as="alternateBounds"/>
                    </mxGeometry>
                </mxCell>
                <mxCell id="LV0FwBpydXXZrUbya0PG-6576" value="" style="shape=partialRectangle;html=1;whiteSpace=wrap;connectable=0;strokeColor=inherit;overflow=hidden;fillColor=none;top=0;left=0;bottom=0;right=0;pointerEvents=1;" parent="LV0FwBpydXXZrUbya0PG-6565" vertex="1">
                    <mxGeometry x="60" width="6" height="6" as="geometry">
                        <mxRectangle width="6" height="6" as="alternateBounds"/>
                    </mxGeometry>
                </mxCell>
                <mxCell id="LV0FwBpydXXZrUbya0PG-6577" value="" style="shape=partialRectangle;html=1;whiteSpace=wrap;connectable=0;strokeColor=inherit;overflow=hidden;fillColor=none;top=0;left=0;bottom=0;right=0;pointerEvents=1;" parent="LV0FwBpydXXZrUbya0PG-6565" vertex="1">
                    <mxGeometry x="66" width="6" height="6" as="geometry">
                        <mxRectangle width="6" height="6" as="alternateBounds"/>
                    </mxGeometry>
                </mxCell>
                <mxCell id="LV0FwBpydXXZrUbya0PG-6578" value="" style="shape=partialRectangle;html=1;whiteSpace=wrap;connectable=0;strokeColor=inherit;overflow=hidden;fillColor=none;top=0;left=0;bottom=0;right=0;pointerEvents=1;" parent="LV0FwBpydXXZrUbya0PG-6565" vertex="1">
                    <mxGeometry x="72" width="6" height="6" as="geometry">
                        <mxRectangle width="6" height="6" as="alternateBounds"/>
                    </mxGeometry>
                </mxCell>
                <mxCell id="LV0FwBpydXXZrUbya0PG-6579" value="" style="shape=partialRectangle;html=1;whiteSpace=wrap;connectable=0;strokeColor=inherit;overflow=hidden;fillColor=none;top=0;left=0;bottom=0;right=0;pointerEvents=1;" parent="LV0FwBpydXXZrUbya0PG-6565" vertex="1">
                    <mxGeometry x="78" width="6" height="6" as="geometry">
                        <mxRectangle width="6" height="6" as="alternateBounds"/>
                    </mxGeometry>
                </mxCell>
                <mxCell id="LV0FwBpydXXZrUbya0PG-6580" value="" style="shape=partialRectangle;html=1;whiteSpace=wrap;connectable=0;strokeColor=inherit;overflow=hidden;fillColor=none;top=0;left=0;bottom=0;right=0;pointerEvents=1;" parent="LV0FwBpydXXZrUbya0PG-6565" vertex="1">
                    <mxGeometry x="84" width="6" height="6" as="geometry">
                        <mxRectangle width="6" height="6" as="alternateBounds"/>
                    </mxGeometry>
                </mxCell>
                <mxCell id="LV0FwBpydXXZrUbya0PG-6581" value="" style="shape=partialRectangle;html=1;whiteSpace=wrap;connectable=0;strokeColor=inherit;overflow=hidden;fillColor=none;top=0;left=0;bottom=0;right=0;pointerEvents=1;" parent="LV0FwBpydXXZrUbya0PG-6565" vertex="1">
                    <mxGeometry x="90" width="6" height="6" as="geometry">
                        <mxRectangle width="6" height="6" as="alternateBounds"/>
                    </mxGeometry>
                </mxCell>
                <mxCell id="LV0FwBpydXXZrUbya0PG-6582" value="" style="shape=partialRectangle;html=1;whiteSpace=wrap;connectable=0;strokeColor=inherit;overflow=hidden;fillColor=none;top=0;left=0;bottom=0;right=0;pointerEvents=1;" parent="LV0FwBpydXXZrUbya0PG-6565" vertex="1">
                    <mxGeometry x="96" width="6" height="6" as="geometry">
                        <mxRectangle width="6" height="6" as="alternateBounds"/>
                    </mxGeometry>
                </mxCell>
                <mxCell id="LV0FwBpydXXZrUbya0PG-6583" value="" style="shape=partialRectangle;html=1;whiteSpace=wrap;connectable=0;strokeColor=inherit;overflow=hidden;fillColor=none;top=0;left=0;bottom=0;right=0;pointerEvents=1;" parent="LV0FwBpydXXZrUbya0PG-6565" vertex="1">
                    <mxGeometry x="102" width="6" height="6" as="geometry">
                        <mxRectangle width="6" height="6" as="alternateBounds"/>
                    </mxGeometry>
                </mxCell>
                <mxCell id="LV0FwBpydXXZrUbya0PG-6584" value="" style="shape=partialRectangle;html=1;whiteSpace=wrap;connectable=0;strokeColor=inherit;overflow=hidden;fillColor=none;top=0;left=0;bottom=0;right=0;pointerEvents=1;" parent="LV0FwBpydXXZrUbya0PG-6565" vertex="1">
                    <mxGeometry x="108" width="6" height="6" as="geometry">
                        <mxRectangle width="6" height="6" as="alternateBounds"/>
                    </mxGeometry>
                </mxCell>
                <mxCell id="LV0FwBpydXXZrUbya0PG-6585" value="" style="shape=partialRectangle;html=1;whiteSpace=wrap;connectable=0;strokeColor=inherit;overflow=hidden;fillColor=none;top=0;left=0;bottom=0;right=0;pointerEvents=1;" parent="LV0FwBpydXXZrUbya0PG-6565" vertex="1">
                    <mxGeometry x="114" width="6" height="6" as="geometry">
                        <mxRectangle width="6" height="6" as="alternateBounds"/>
                    </mxGeometry>
                </mxCell>
                <mxCell id="LV0FwBpydXXZrUbya0PG-6586" value="" style="shape=tableRow;horizontal=0;startSize=0;swimlaneHead=0;swimlaneBody=0;strokeColor=inherit;top=0;left=0;bottom=0;right=0;collapsible=0;dropTarget=0;fillColor=none;points=[[0,0.5],[1,0.5]];portConstraint=eastwest;" parent="LV0FwBpydXXZrUbya0PG-6564" vertex="1">
                    <mxGeometry y="6" width="120" height="7" as="geometry"/>
                </mxCell>
                <mxCell id="LV0FwBpydXXZrUbya0PG-6587" value="" style="shape=partialRectangle;html=1;whiteSpace=wrap;connectable=0;strokeColor=inherit;overflow=hidden;fillColor=none;top=0;left=0;bottom=0;right=0;pointerEvents=1;" parent="LV0FwBpydXXZrUbya0PG-6586" vertex="1">
                    <mxGeometry width="6" height="7" as="geometry">
                        <mxRectangle width="6" height="7" as="alternateBounds"/>
                    </mxGeometry>
                </mxCell>
                <mxCell id="LV0FwBpydXXZrUbya0PG-6588" value="" style="shape=partialRectangle;html=1;whiteSpace=wrap;connectable=0;strokeColor=inherit;overflow=hidden;fillColor=none;top=0;left=0;bottom=0;right=0;pointerEvents=1;" parent="LV0FwBpydXXZrUbya0PG-6586" vertex="1">
                    <mxGeometry x="6" width="6" height="7" as="geometry">
                        <mxRectangle width="6" height="7" as="alternateBounds"/>
                    </mxGeometry>
                </mxCell>
                <mxCell id="LV0FwBpydXXZrUbya0PG-6589" value="" style="shape=partialRectangle;html=1;whiteSpace=wrap;connectable=0;strokeColor=inherit;overflow=hidden;fillColor=none;top=0;left=0;bottom=0;right=0;pointerEvents=1;" parent="LV0FwBpydXXZrUbya0PG-6586" vertex="1">
                    <mxGeometry x="12" width="6" height="7" as="geometry">
                        <mxRectangle width="6" height="7" as="alternateBounds"/>
                    </mxGeometry>
                </mxCell>
                <mxCell id="LV0FwBpydXXZrUbya0PG-6590" value="" style="shape=partialRectangle;html=1;whiteSpace=wrap;connectable=0;strokeColor=inherit;overflow=hidden;fillColor=none;top=0;left=0;bottom=0;right=0;pointerEvents=1;" parent="LV0FwBpydXXZrUbya0PG-6586" vertex="1">
                    <mxGeometry x="18" width="6" height="7" as="geometry">
                        <mxRectangle width="6" height="7" as="alternateBounds"/>
                    </mxGeometry>
                </mxCell>
                <mxCell id="LV0FwBpydXXZrUbya0PG-6591" value="" style="shape=partialRectangle;html=1;whiteSpace=wrap;connectable=0;strokeColor=inherit;overflow=hidden;fillColor=none;top=0;left=0;bottom=0;right=0;pointerEvents=1;" parent="LV0FwBpydXXZrUbya0PG-6586" vertex="1">
                    <mxGeometry x="24" width="6" height="7" as="geometry">
                        <mxRectangle width="6" height="7" as="alternateBounds"/>
                    </mxGeometry>
                </mxCell>
                <mxCell id="LV0FwBpydXXZrUbya0PG-6592" value="" style="shape=partialRectangle;html=1;whiteSpace=wrap;connectable=0;strokeColor=inherit;overflow=hidden;fillColor=none;top=0;left=0;bottom=0;right=0;pointerEvents=1;" parent="LV0FwBpydXXZrUbya0PG-6586" vertex="1">
                    <mxGeometry x="30" width="6" height="7" as="geometry">
                        <mxRectangle width="6" height="7" as="alternateBounds"/>
                    </mxGeometry>
                </mxCell>
                <mxCell id="LV0FwBpydXXZrUbya0PG-6593" value="" style="shape=partialRectangle;html=1;whiteSpace=wrap;connectable=0;strokeColor=inherit;overflow=hidden;fillColor=none;top=0;left=0;bottom=0;right=0;pointerEvents=1;" parent="LV0FwBpydXXZrUbya0PG-6586" vertex="1">
                    <mxGeometry x="36" width="6" height="7" as="geometry">
                        <mxRectangle width="6" height="7" as="alternateBounds"/>
                    </mxGeometry>
                </mxCell>
                <mxCell id="LV0FwBpydXXZrUbya0PG-6594" value="" style="shape=partialRectangle;html=1;whiteSpace=wrap;connectable=0;strokeColor=inherit;overflow=hidden;fillColor=none;top=0;left=0;bottom=0;right=0;pointerEvents=1;" parent="LV0FwBpydXXZrUbya0PG-6586" vertex="1">
                    <mxGeometry x="42" width="6" height="7" as="geometry">
                        <mxRectangle width="6" height="7" as="alternateBounds"/>
                    </mxGeometry>
                </mxCell>
                <mxCell id="LV0FwBpydXXZrUbya0PG-6595" value="" style="shape=partialRectangle;html=1;whiteSpace=wrap;connectable=0;strokeColor=inherit;overflow=hidden;fillColor=none;top=0;left=0;bottom=0;right=0;pointerEvents=1;" parent="LV0FwBpydXXZrUbya0PG-6586" vertex="1">
                    <mxGeometry x="48" width="6" height="7" as="geometry">
                        <mxRectangle width="6" height="7" as="alternateBounds"/>
                    </mxGeometry>
                </mxCell>
                <mxCell id="LV0FwBpydXXZrUbya0PG-6596" value="" style="shape=partialRectangle;html=1;whiteSpace=wrap;connectable=0;strokeColor=inherit;overflow=hidden;fillColor=none;top=0;left=0;bottom=0;right=0;pointerEvents=1;" parent="LV0FwBpydXXZrUbya0PG-6586" vertex="1">
                    <mxGeometry x="54" width="6" height="7" as="geometry">
                        <mxRectangle width="6" height="7" as="alternateBounds"/>
                    </mxGeometry>
                </mxCell>
                <mxCell id="LV0FwBpydXXZrUbya0PG-6597" value="" style="shape=partialRectangle;html=1;whiteSpace=wrap;connectable=0;strokeColor=inherit;overflow=hidden;fillColor=none;top=0;left=0;bottom=0;right=0;pointerEvents=1;" parent="LV0FwBpydXXZrUbya0PG-6586" vertex="1">
                    <mxGeometry x="60" width="6" height="7" as="geometry">
                        <mxRectangle width="6" height="7" as="alternateBounds"/>
                    </mxGeometry>
                </mxCell>
                <mxCell id="LV0FwBpydXXZrUbya0PG-6598" value="" style="shape=partialRectangle;html=1;whiteSpace=wrap;connectable=0;strokeColor=inherit;overflow=hidden;fillColor=none;top=0;left=0;bottom=0;right=0;pointerEvents=1;" parent="LV0FwBpydXXZrUbya0PG-6586" vertex="1">
                    <mxGeometry x="66" width="6" height="7" as="geometry">
                        <mxRectangle width="6" height="7" as="alternateBounds"/>
                    </mxGeometry>
                </mxCell>
                <mxCell id="LV0FwBpydXXZrUbya0PG-6599" value="" style="shape=partialRectangle;html=1;whiteSpace=wrap;connectable=0;strokeColor=inherit;overflow=hidden;fillColor=none;top=0;left=0;bottom=0;right=0;pointerEvents=1;" parent="LV0FwBpydXXZrUbya0PG-6586" vertex="1">
                    <mxGeometry x="72" width="6" height="7" as="geometry">
                        <mxRectangle width="6" height="7" as="alternateBounds"/>
                    </mxGeometry>
                </mxCell>
                <mxCell id="LV0FwBpydXXZrUbya0PG-6600" value="" style="shape=partialRectangle;html=1;whiteSpace=wrap;connectable=0;strokeColor=inherit;overflow=hidden;fillColor=none;top=0;left=0;bottom=0;right=0;pointerEvents=1;" parent="LV0FwBpydXXZrUbya0PG-6586" vertex="1">
                    <mxGeometry x="78" width="6" height="7" as="geometry">
                        <mxRectangle width="6" height="7" as="alternateBounds"/>
                    </mxGeometry>
                </mxCell>
                <mxCell id="LV0FwBpydXXZrUbya0PG-6601" value="" style="shape=partialRectangle;html=1;whiteSpace=wrap;connectable=0;strokeColor=inherit;overflow=hidden;fillColor=none;top=0;left=0;bottom=0;right=0;pointerEvents=1;" parent="LV0FwBpydXXZrUbya0PG-6586" vertex="1">
                    <mxGeometry x="84" width="6" height="7" as="geometry">
                        <mxRectangle width="6" height="7" as="alternateBounds"/>
                    </mxGeometry>
                </mxCell>
                <mxCell id="LV0FwBpydXXZrUbya0PG-6602" value="" style="shape=partialRectangle;html=1;whiteSpace=wrap;connectable=0;strokeColor=inherit;overflow=hidden;fillColor=none;top=0;left=0;bottom=0;right=0;pointerEvents=1;" parent="LV0FwBpydXXZrUbya0PG-6586" vertex="1">
                    <mxGeometry x="90" width="6" height="7" as="geometry">
                        <mxRectangle width="6" height="7" as="alternateBounds"/>
                    </mxGeometry>
                </mxCell>
                <mxCell id="LV0FwBpydXXZrUbya0PG-6603" value="" style="shape=partialRectangle;html=1;whiteSpace=wrap;connectable=0;strokeColor=inherit;overflow=hidden;fillColor=none;top=0;left=0;bottom=0;right=0;pointerEvents=1;" parent="LV0FwBpydXXZrUbya0PG-6586" vertex="1">
                    <mxGeometry x="96" width="6" height="7" as="geometry">
                        <mxRectangle width="6" height="7" as="alternateBounds"/>
                    </mxGeometry>
                </mxCell>
                <mxCell id="LV0FwBpydXXZrUbya0PG-6604" value="" style="shape=partialRectangle;html=1;whiteSpace=wrap;connectable=0;strokeColor=inherit;overflow=hidden;fillColor=none;top=0;left=0;bottom=0;right=0;pointerEvents=1;" parent="LV0FwBpydXXZrUbya0PG-6586" vertex="1">
                    <mxGeometry x="102" width="6" height="7" as="geometry">
                        <mxRectangle width="6" height="7" as="alternateBounds"/>
                    </mxGeometry>
                </mxCell>
                <mxCell id="LV0FwBpydXXZrUbya0PG-6605" value="" style="shape=partialRectangle;html=1;whiteSpace=wrap;connectable=0;strokeColor=inherit;overflow=hidden;fillColor=none;top=0;left=0;bottom=0;right=0;pointerEvents=1;" parent="LV0FwBpydXXZrUbya0PG-6586" vertex="1">
                    <mxGeometry x="108" width="6" height="7" as="geometry">
                        <mxRectangle width="6" height="7" as="alternateBounds"/>
                    </mxGeometry>
                </mxCell>
                <mxCell id="LV0FwBpydXXZrUbya0PG-6606" value="" style="shape=partialRectangle;html=1;whiteSpace=wrap;connectable=0;strokeColor=inherit;overflow=hidden;fillColor=none;top=0;left=0;bottom=0;right=0;pointerEvents=1;" parent="LV0FwBpydXXZrUbya0PG-6586" vertex="1">
                    <mxGeometry x="114" width="6" height="7" as="geometry">
                        <mxRectangle width="6" height="7" as="alternateBounds"/>
                    </mxGeometry>
                </mxCell>
                <mxCell id="LV0FwBpydXXZrUbya0PG-6607" value="" style="shape=tableRow;horizontal=0;startSize=0;swimlaneHead=0;swimlaneBody=0;strokeColor=inherit;top=0;left=0;bottom=0;right=0;collapsible=0;dropTarget=0;fillColor=none;points=[[0,0.5],[1,0.5]];portConstraint=eastwest;" parent="LV0FwBpydXXZrUbya0PG-6564" vertex="1">
                    <mxGeometry y="13" width="120" height="6" as="geometry"/>
                </mxCell>
                <mxCell id="LV0FwBpydXXZrUbya0PG-6608" value="" style="shape=partialRectangle;html=1;whiteSpace=wrap;connectable=0;strokeColor=inherit;overflow=hidden;fillColor=none;top=0;left=0;bottom=0;right=0;pointerEvents=1;" parent="LV0FwBpydXXZrUbya0PG-6607" vertex="1">
                    <mxGeometry width="6" height="6" as="geometry">
                        <mxRectangle width="6" height="6" as="alternateBounds"/>
                    </mxGeometry>
                </mxCell>
                <mxCell id="LV0FwBpydXXZrUbya0PG-6609" value="" style="shape=partialRectangle;html=1;whiteSpace=wrap;connectable=0;strokeColor=inherit;overflow=hidden;fillColor=none;top=0;left=0;bottom=0;right=0;pointerEvents=1;" parent="LV0FwBpydXXZrUbya0PG-6607" vertex="1">
                    <mxGeometry x="6" width="6" height="6" as="geometry">
                        <mxRectangle width="6" height="6" as="alternateBounds"/>
                    </mxGeometry>
                </mxCell>
                <mxCell id="LV0FwBpydXXZrUbya0PG-6610" value="" style="shape=partialRectangle;html=1;whiteSpace=wrap;connectable=0;strokeColor=inherit;overflow=hidden;fillColor=none;top=0;left=0;bottom=0;right=0;pointerEvents=1;" parent="LV0FwBpydXXZrUbya0PG-6607" vertex="1">
                    <mxGeometry x="12" width="6" height="6" as="geometry">
                        <mxRectangle width="6" height="6" as="alternateBounds"/>
                    </mxGeometry>
                </mxCell>
                <mxCell id="LV0FwBpydXXZrUbya0PG-6611" value="" style="shape=partialRectangle;html=1;whiteSpace=wrap;connectable=0;strokeColor=inherit;overflow=hidden;fillColor=none;top=0;left=0;bottom=0;right=0;pointerEvents=1;" parent="LV0FwBpydXXZrUbya0PG-6607" vertex="1">
                    <mxGeometry x="18" width="6" height="6" as="geometry">
                        <mxRectangle width="6" height="6" as="alternateBounds"/>
                    </mxGeometry>
                </mxCell>
                <mxCell id="LV0FwBpydXXZrUbya0PG-6612" value="" style="shape=partialRectangle;html=1;whiteSpace=wrap;connectable=0;strokeColor=inherit;overflow=hidden;fillColor=none;top=0;left=0;bottom=0;right=0;pointerEvents=1;" parent="LV0FwBpydXXZrUbya0PG-6607" vertex="1">
                    <mxGeometry x="24" width="6" height="6" as="geometry">
                        <mxRectangle width="6" height="6" as="alternateBounds"/>
                    </mxGeometry>
                </mxCell>
                <mxCell id="LV0FwBpydXXZrUbya0PG-6613" value="" style="shape=partialRectangle;html=1;whiteSpace=wrap;connectable=0;strokeColor=inherit;overflow=hidden;fillColor=none;top=0;left=0;bottom=0;right=0;pointerEvents=1;" parent="LV0FwBpydXXZrUbya0PG-6607" vertex="1">
                    <mxGeometry x="30" width="6" height="6" as="geometry">
                        <mxRectangle width="6" height="6" as="alternateBounds"/>
                    </mxGeometry>
                </mxCell>
                <mxCell id="LV0FwBpydXXZrUbya0PG-6614" value="" style="shape=partialRectangle;html=1;whiteSpace=wrap;connectable=0;strokeColor=inherit;overflow=hidden;fillColor=none;top=0;left=0;bottom=0;right=0;pointerEvents=1;" parent="LV0FwBpydXXZrUbya0PG-6607" vertex="1">
                    <mxGeometry x="36" width="6" height="6" as="geometry">
                        <mxRectangle width="6" height="6" as="alternateBounds"/>
                    </mxGeometry>
                </mxCell>
                <mxCell id="LV0FwBpydXXZrUbya0PG-6615" value="" style="shape=partialRectangle;html=1;whiteSpace=wrap;connectable=0;strokeColor=inherit;overflow=hidden;fillColor=none;top=0;left=0;bottom=0;right=0;pointerEvents=1;" parent="LV0FwBpydXXZrUbya0PG-6607" vertex="1">
                    <mxGeometry x="42" width="6" height="6" as="geometry">
                        <mxRectangle width="6" height="6" as="alternateBounds"/>
                    </mxGeometry>
                </mxCell>
                <mxCell id="LV0FwBpydXXZrUbya0PG-6616" value="" style="shape=partialRectangle;html=1;whiteSpace=wrap;connectable=0;strokeColor=inherit;overflow=hidden;fillColor=none;top=0;left=0;bottom=0;right=0;pointerEvents=1;" parent="LV0FwBpydXXZrUbya0PG-6607" vertex="1">
                    <mxGeometry x="48" width="6" height="6" as="geometry">
                        <mxRectangle width="6" height="6" as="alternateBounds"/>
                    </mxGeometry>
                </mxCell>
                <mxCell id="LV0FwBpydXXZrUbya0PG-6617" value="" style="shape=partialRectangle;html=1;whiteSpace=wrap;connectable=0;strokeColor=inherit;overflow=hidden;fillColor=none;top=0;left=0;bottom=0;right=0;pointerEvents=1;" parent="LV0FwBpydXXZrUbya0PG-6607" vertex="1">
                    <mxGeometry x="54" width="6" height="6" as="geometry">
                        <mxRectangle width="6" height="6" as="alternateBounds"/>
                    </mxGeometry>
                </mxCell>
                <mxCell id="LV0FwBpydXXZrUbya0PG-6618" value="" style="shape=partialRectangle;html=1;whiteSpace=wrap;connectable=0;strokeColor=inherit;overflow=hidden;fillColor=none;top=0;left=0;bottom=0;right=0;pointerEvents=1;" parent="LV0FwBpydXXZrUbya0PG-6607" vertex="1">
                    <mxGeometry x="60" width="6" height="6" as="geometry">
                        <mxRectangle width="6" height="6" as="alternateBounds"/>
                    </mxGeometry>
                </mxCell>
                <mxCell id="LV0FwBpydXXZrUbya0PG-6619" value="" style="shape=partialRectangle;html=1;whiteSpace=wrap;connectable=0;strokeColor=inherit;overflow=hidden;fillColor=none;top=0;left=0;bottom=0;right=0;pointerEvents=1;" parent="LV0FwBpydXXZrUbya0PG-6607" vertex="1">
                    <mxGeometry x="66" width="6" height="6" as="geometry">
                        <mxRectangle width="6" height="6" as="alternateBounds"/>
                    </mxGeometry>
                </mxCell>
                <mxCell id="LV0FwBpydXXZrUbya0PG-6620" value="" style="shape=partialRectangle;html=1;whiteSpace=wrap;connectable=0;strokeColor=inherit;overflow=hidden;fillColor=none;top=0;left=0;bottom=0;right=0;pointerEvents=1;" parent="LV0FwBpydXXZrUbya0PG-6607" vertex="1">
                    <mxGeometry x="72" width="6" height="6" as="geometry">
                        <mxRectangle width="6" height="6" as="alternateBounds"/>
                    </mxGeometry>
                </mxCell>
                <mxCell id="LV0FwBpydXXZrUbya0PG-6621" value="" style="shape=partialRectangle;html=1;whiteSpace=wrap;connectable=0;strokeColor=inherit;overflow=hidden;fillColor=none;top=0;left=0;bottom=0;right=0;pointerEvents=1;" parent="LV0FwBpydXXZrUbya0PG-6607" vertex="1">
                    <mxGeometry x="78" width="6" height="6" as="geometry">
                        <mxRectangle width="6" height="6" as="alternateBounds"/>
                    </mxGeometry>
                </mxCell>
                <mxCell id="LV0FwBpydXXZrUbya0PG-6622" value="" style="shape=partialRectangle;html=1;whiteSpace=wrap;connectable=0;strokeColor=inherit;overflow=hidden;fillColor=none;top=0;left=0;bottom=0;right=0;pointerEvents=1;" parent="LV0FwBpydXXZrUbya0PG-6607" vertex="1">
                    <mxGeometry x="84" width="6" height="6" as="geometry">
                        <mxRectangle width="6" height="6" as="alternateBounds"/>
                    </mxGeometry>
                </mxCell>
                <mxCell id="LV0FwBpydXXZrUbya0PG-6623" value="" style="shape=partialRectangle;html=1;whiteSpace=wrap;connectable=0;strokeColor=inherit;overflow=hidden;fillColor=none;top=0;left=0;bottom=0;right=0;pointerEvents=1;" parent="LV0FwBpydXXZrUbya0PG-6607" vertex="1">
                    <mxGeometry x="90" width="6" height="6" as="geometry">
                        <mxRectangle width="6" height="6" as="alternateBounds"/>
                    </mxGeometry>
                </mxCell>
                <mxCell id="LV0FwBpydXXZrUbya0PG-6624" value="" style="shape=partialRectangle;html=1;whiteSpace=wrap;connectable=0;strokeColor=inherit;overflow=hidden;fillColor=none;top=0;left=0;bottom=0;right=0;pointerEvents=1;" parent="LV0FwBpydXXZrUbya0PG-6607" vertex="1">
                    <mxGeometry x="96" width="6" height="6" as="geometry">
                        <mxRectangle width="6" height="6" as="alternateBounds"/>
                    </mxGeometry>
                </mxCell>
                <mxCell id="LV0FwBpydXXZrUbya0PG-6625" value="" style="shape=partialRectangle;html=1;whiteSpace=wrap;connectable=0;strokeColor=inherit;overflow=hidden;fillColor=none;top=0;left=0;bottom=0;right=0;pointerEvents=1;" parent="LV0FwBpydXXZrUbya0PG-6607" vertex="1">
                    <mxGeometry x="102" width="6" height="6" as="geometry">
                        <mxRectangle width="6" height="6" as="alternateBounds"/>
                    </mxGeometry>
                </mxCell>
                <mxCell id="LV0FwBpydXXZrUbya0PG-6626" value="" style="shape=partialRectangle;html=1;whiteSpace=wrap;connectable=0;strokeColor=inherit;overflow=hidden;fillColor=none;top=0;left=0;bottom=0;right=0;pointerEvents=1;" parent="LV0FwBpydXXZrUbya0PG-6607" vertex="1">
                    <mxGeometry x="108" width="6" height="6" as="geometry">
                        <mxRectangle width="6" height="6" as="alternateBounds"/>
                    </mxGeometry>
                </mxCell>
                <mxCell id="LV0FwBpydXXZrUbya0PG-6627" value="" style="shape=partialRectangle;html=1;whiteSpace=wrap;connectable=0;strokeColor=inherit;overflow=hidden;fillColor=none;top=0;left=0;bottom=0;right=0;pointerEvents=1;" parent="LV0FwBpydXXZrUbya0PG-6607" vertex="1">
                    <mxGeometry x="114" width="6" height="6" as="geometry">
                        <mxRectangle width="6" height="6" as="alternateBounds"/>
                    </mxGeometry>
                </mxCell>
                <mxCell id="LV0FwBpydXXZrUbya0PG-6628" value="" style="shape=tableRow;horizontal=0;startSize=0;swimlaneHead=0;swimlaneBody=0;strokeColor=inherit;top=0;left=0;bottom=0;right=0;collapsible=0;dropTarget=0;fillColor=none;points=[[0,0.5],[1,0.5]];portConstraint=eastwest;" parent="LV0FwBpydXXZrUbya0PG-6564" vertex="1">
                    <mxGeometry y="19" width="120" height="6" as="geometry"/>
                </mxCell>
                <mxCell id="LV0FwBpydXXZrUbya0PG-6629" value="" style="shape=partialRectangle;html=1;whiteSpace=wrap;connectable=0;strokeColor=inherit;overflow=hidden;fillColor=none;top=0;left=0;bottom=0;right=0;pointerEvents=1;" parent="LV0FwBpydXXZrUbya0PG-6628" vertex="1">
                    <mxGeometry width="6" height="6" as="geometry">
                        <mxRectangle width="6" height="6" as="alternateBounds"/>
                    </mxGeometry>
                </mxCell>
                <mxCell id="LV0FwBpydXXZrUbya0PG-6630" value="" style="shape=partialRectangle;html=1;whiteSpace=wrap;connectable=0;strokeColor=inherit;overflow=hidden;fillColor=none;top=0;left=0;bottom=0;right=0;pointerEvents=1;" parent="LV0FwBpydXXZrUbya0PG-6628" vertex="1">
                    <mxGeometry x="6" width="6" height="6" as="geometry">
                        <mxRectangle width="6" height="6" as="alternateBounds"/>
                    </mxGeometry>
                </mxCell>
                <mxCell id="LV0FwBpydXXZrUbya0PG-6631" value="" style="shape=partialRectangle;html=1;whiteSpace=wrap;connectable=0;strokeColor=inherit;overflow=hidden;fillColor=none;top=0;left=0;bottom=0;right=0;pointerEvents=1;" parent="LV0FwBpydXXZrUbya0PG-6628" vertex="1">
                    <mxGeometry x="12" width="6" height="6" as="geometry">
                        <mxRectangle width="6" height="6" as="alternateBounds"/>
                    </mxGeometry>
                </mxCell>
                <mxCell id="LV0FwBpydXXZrUbya0PG-6632" value="" style="shape=partialRectangle;html=1;whiteSpace=wrap;connectable=0;strokeColor=inherit;overflow=hidden;fillColor=none;top=0;left=0;bottom=0;right=0;pointerEvents=1;" parent="LV0FwBpydXXZrUbya0PG-6628" vertex="1">
                    <mxGeometry x="18" width="6" height="6" as="geometry">
                        <mxRectangle width="6" height="6" as="alternateBounds"/>
                    </mxGeometry>
                </mxCell>
                <mxCell id="LV0FwBpydXXZrUbya0PG-6633" value="" style="shape=partialRectangle;html=1;whiteSpace=wrap;connectable=0;strokeColor=inherit;overflow=hidden;fillColor=none;top=0;left=0;bottom=0;right=0;pointerEvents=1;" parent="LV0FwBpydXXZrUbya0PG-6628" vertex="1">
                    <mxGeometry x="24" width="6" height="6" as="geometry">
                        <mxRectangle width="6" height="6" as="alternateBounds"/>
                    </mxGeometry>
                </mxCell>
                <mxCell id="LV0FwBpydXXZrUbya0PG-6634" value="" style="shape=partialRectangle;html=1;whiteSpace=wrap;connectable=0;strokeColor=inherit;overflow=hidden;fillColor=none;top=0;left=0;bottom=0;right=0;pointerEvents=1;" parent="LV0FwBpydXXZrUbya0PG-6628" vertex="1">
                    <mxGeometry x="30" width="6" height="6" as="geometry">
                        <mxRectangle width="6" height="6" as="alternateBounds"/>
                    </mxGeometry>
                </mxCell>
                <mxCell id="LV0FwBpydXXZrUbya0PG-6635" value="" style="shape=partialRectangle;html=1;whiteSpace=wrap;connectable=0;strokeColor=inherit;overflow=hidden;fillColor=none;top=0;left=0;bottom=0;right=0;pointerEvents=1;" parent="LV0FwBpydXXZrUbya0PG-6628" vertex="1">
                    <mxGeometry x="36" width="6" height="6" as="geometry">
                        <mxRectangle width="6" height="6" as="alternateBounds"/>
                    </mxGeometry>
                </mxCell>
                <mxCell id="LV0FwBpydXXZrUbya0PG-6636" value="" style="shape=partialRectangle;html=1;whiteSpace=wrap;connectable=0;strokeColor=inherit;overflow=hidden;fillColor=none;top=0;left=0;bottom=0;right=0;pointerEvents=1;" parent="LV0FwBpydXXZrUbya0PG-6628" vertex="1">
                    <mxGeometry x="42" width="6" height="6" as="geometry">
                        <mxRectangle width="6" height="6" as="alternateBounds"/>
                    </mxGeometry>
                </mxCell>
                <mxCell id="LV0FwBpydXXZrUbya0PG-6637" value="" style="shape=partialRectangle;html=1;whiteSpace=wrap;connectable=0;strokeColor=inherit;overflow=hidden;fillColor=none;top=0;left=0;bottom=0;right=0;pointerEvents=1;" parent="LV0FwBpydXXZrUbya0PG-6628" vertex="1">
                    <mxGeometry x="48" width="6" height="6" as="geometry">
                        <mxRectangle width="6" height="6" as="alternateBounds"/>
                    </mxGeometry>
                </mxCell>
                <mxCell id="LV0FwBpydXXZrUbya0PG-6638" value="" style="shape=partialRectangle;html=1;whiteSpace=wrap;connectable=0;strokeColor=inherit;overflow=hidden;fillColor=none;top=0;left=0;bottom=0;right=0;pointerEvents=1;" parent="LV0FwBpydXXZrUbya0PG-6628" vertex="1">
                    <mxGeometry x="54" width="6" height="6" as="geometry">
                        <mxRectangle width="6" height="6" as="alternateBounds"/>
                    </mxGeometry>
                </mxCell>
                <mxCell id="LV0FwBpydXXZrUbya0PG-6639" value="" style="shape=partialRectangle;html=1;whiteSpace=wrap;connectable=0;strokeColor=inherit;overflow=hidden;fillColor=none;top=0;left=0;bottom=0;right=0;pointerEvents=1;" parent="LV0FwBpydXXZrUbya0PG-6628" vertex="1">
                    <mxGeometry x="60" width="6" height="6" as="geometry">
                        <mxRectangle width="6" height="6" as="alternateBounds"/>
                    </mxGeometry>
                </mxCell>
                <mxCell id="LV0FwBpydXXZrUbya0PG-6640" value="" style="shape=partialRectangle;html=1;whiteSpace=wrap;connectable=0;strokeColor=inherit;overflow=hidden;fillColor=none;top=0;left=0;bottom=0;right=0;pointerEvents=1;" parent="LV0FwBpydXXZrUbya0PG-6628" vertex="1">
                    <mxGeometry x="66" width="6" height="6" as="geometry">
                        <mxRectangle width="6" height="6" as="alternateBounds"/>
                    </mxGeometry>
                </mxCell>
                <mxCell id="LV0FwBpydXXZrUbya0PG-6641" value="" style="shape=partialRectangle;html=1;whiteSpace=wrap;connectable=0;strokeColor=inherit;overflow=hidden;fillColor=none;top=0;left=0;bottom=0;right=0;pointerEvents=1;" parent="LV0FwBpydXXZrUbya0PG-6628" vertex="1">
                    <mxGeometry x="72" width="6" height="6" as="geometry">
                        <mxRectangle width="6" height="6" as="alternateBounds"/>
                    </mxGeometry>
                </mxCell>
                <mxCell id="LV0FwBpydXXZrUbya0PG-6642" value="" style="shape=partialRectangle;html=1;whiteSpace=wrap;connectable=0;strokeColor=inherit;overflow=hidden;fillColor=none;top=0;left=0;bottom=0;right=0;pointerEvents=1;" parent="LV0FwBpydXXZrUbya0PG-6628" vertex="1">
                    <mxGeometry x="78" width="6" height="6" as="geometry">
                        <mxRectangle width="6" height="6" as="alternateBounds"/>
                    </mxGeometry>
                </mxCell>
                <mxCell id="LV0FwBpydXXZrUbya0PG-6643" value="" style="shape=partialRectangle;html=1;whiteSpace=wrap;connectable=0;strokeColor=inherit;overflow=hidden;fillColor=none;top=0;left=0;bottom=0;right=0;pointerEvents=1;" parent="LV0FwBpydXXZrUbya0PG-6628" vertex="1">
                    <mxGeometry x="84" width="6" height="6" as="geometry">
                        <mxRectangle width="6" height="6" as="alternateBounds"/>
                    </mxGeometry>
                </mxCell>
                <mxCell id="LV0FwBpydXXZrUbya0PG-6644" value="" style="shape=partialRectangle;html=1;whiteSpace=wrap;connectable=0;strokeColor=inherit;overflow=hidden;fillColor=none;top=0;left=0;bottom=0;right=0;pointerEvents=1;" parent="LV0FwBpydXXZrUbya0PG-6628" vertex="1">
                    <mxGeometry x="90" width="6" height="6" as="geometry">
                        <mxRectangle width="6" height="6" as="alternateBounds"/>
                    </mxGeometry>
                </mxCell>
                <mxCell id="LV0FwBpydXXZrUbya0PG-6645" value="" style="shape=partialRectangle;html=1;whiteSpace=wrap;connectable=0;strokeColor=inherit;overflow=hidden;fillColor=none;top=0;left=0;bottom=0;right=0;pointerEvents=1;" parent="LV0FwBpydXXZrUbya0PG-6628" vertex="1">
                    <mxGeometry x="96" width="6" height="6" as="geometry">
                        <mxRectangle width="6" height="6" as="alternateBounds"/>
                    </mxGeometry>
                </mxCell>
                <mxCell id="LV0FwBpydXXZrUbya0PG-6646" value="" style="shape=partialRectangle;html=1;whiteSpace=wrap;connectable=0;strokeColor=inherit;overflow=hidden;fillColor=none;top=0;left=0;bottom=0;right=0;pointerEvents=1;" parent="LV0FwBpydXXZrUbya0PG-6628" vertex="1">
                    <mxGeometry x="102" width="6" height="6" as="geometry">
                        <mxRectangle width="6" height="6" as="alternateBounds"/>
                    </mxGeometry>
                </mxCell>
                <mxCell id="LV0FwBpydXXZrUbya0PG-6647" value="" style="shape=partialRectangle;html=1;whiteSpace=wrap;connectable=0;strokeColor=inherit;overflow=hidden;fillColor=none;top=0;left=0;bottom=0;right=0;pointerEvents=1;" parent="LV0FwBpydXXZrUbya0PG-6628" vertex="1">
                    <mxGeometry x="108" width="6" height="6" as="geometry">
                        <mxRectangle width="6" height="6" as="alternateBounds"/>
                    </mxGeometry>
                </mxCell>
                <mxCell id="LV0FwBpydXXZrUbya0PG-6648" value="" style="shape=partialRectangle;html=1;whiteSpace=wrap;connectable=0;strokeColor=inherit;overflow=hidden;fillColor=none;top=0;left=0;bottom=0;right=0;pointerEvents=1;" parent="LV0FwBpydXXZrUbya0PG-6628" vertex="1">
                    <mxGeometry x="114" width="6" height="6" as="geometry">
                        <mxRectangle width="6" height="6" as="alternateBounds"/>
                    </mxGeometry>
                </mxCell>
                <mxCell id="LV0FwBpydXXZrUbya0PG-6649" value="" style="shape=tableRow;horizontal=0;startSize=0;swimlaneHead=0;swimlaneBody=0;strokeColor=inherit;top=0;left=0;bottom=0;right=0;collapsible=0;dropTarget=0;fillColor=none;points=[[0,0.5],[1,0.5]];portConstraint=eastwest;" parent="LV0FwBpydXXZrUbya0PG-6564" vertex="1">
                    <mxGeometry y="25" width="120" height="6" as="geometry"/>
                </mxCell>
                <mxCell id="LV0FwBpydXXZrUbya0PG-6650" value="" style="shape=partialRectangle;html=1;whiteSpace=wrap;connectable=0;strokeColor=inherit;overflow=hidden;fillColor=none;top=0;left=0;bottom=0;right=0;pointerEvents=1;" parent="LV0FwBpydXXZrUbya0PG-6649" vertex="1">
                    <mxGeometry width="6" height="6" as="geometry">
                        <mxRectangle width="6" height="6" as="alternateBounds"/>
                    </mxGeometry>
                </mxCell>
                <mxCell id="LV0FwBpydXXZrUbya0PG-6651" value="" style="shape=partialRectangle;html=1;whiteSpace=wrap;connectable=0;strokeColor=inherit;overflow=hidden;fillColor=none;top=0;left=0;bottom=0;right=0;pointerEvents=1;" parent="LV0FwBpydXXZrUbya0PG-6649" vertex="1">
                    <mxGeometry x="6" width="6" height="6" as="geometry">
                        <mxRectangle width="6" height="6" as="alternateBounds"/>
                    </mxGeometry>
                </mxCell>
                <mxCell id="LV0FwBpydXXZrUbya0PG-6652" value="" style="shape=partialRectangle;html=1;whiteSpace=wrap;connectable=0;strokeColor=inherit;overflow=hidden;fillColor=none;top=0;left=0;bottom=0;right=0;pointerEvents=1;" parent="LV0FwBpydXXZrUbya0PG-6649" vertex="1">
                    <mxGeometry x="12" width="6" height="6" as="geometry">
                        <mxRectangle width="6" height="6" as="alternateBounds"/>
                    </mxGeometry>
                </mxCell>
                <mxCell id="LV0FwBpydXXZrUbya0PG-6653" value="" style="shape=partialRectangle;html=1;whiteSpace=wrap;connectable=0;strokeColor=inherit;overflow=hidden;fillColor=none;top=0;left=0;bottom=0;right=0;pointerEvents=1;" parent="LV0FwBpydXXZrUbya0PG-6649" vertex="1">
                    <mxGeometry x="18" width="6" height="6" as="geometry">
                        <mxRectangle width="6" height="6" as="alternateBounds"/>
                    </mxGeometry>
                </mxCell>
                <mxCell id="LV0FwBpydXXZrUbya0PG-6654" value="" style="shape=partialRectangle;html=1;whiteSpace=wrap;connectable=0;strokeColor=inherit;overflow=hidden;fillColor=none;top=0;left=0;bottom=0;right=0;pointerEvents=1;" parent="LV0FwBpydXXZrUbya0PG-6649" vertex="1">
                    <mxGeometry x="24" width="6" height="6" as="geometry">
                        <mxRectangle width="6" height="6" as="alternateBounds"/>
                    </mxGeometry>
                </mxCell>
                <mxCell id="LV0FwBpydXXZrUbya0PG-6655" value="" style="shape=partialRectangle;html=1;whiteSpace=wrap;connectable=0;strokeColor=inherit;overflow=hidden;fillColor=none;top=0;left=0;bottom=0;right=0;pointerEvents=1;" parent="LV0FwBpydXXZrUbya0PG-6649" vertex="1">
                    <mxGeometry x="30" width="6" height="6" as="geometry">
                        <mxRectangle width="6" height="6" as="alternateBounds"/>
                    </mxGeometry>
                </mxCell>
                <mxCell id="LV0FwBpydXXZrUbya0PG-6656" value="" style="shape=partialRectangle;html=1;whiteSpace=wrap;connectable=0;strokeColor=inherit;overflow=hidden;fillColor=none;top=0;left=0;bottom=0;right=0;pointerEvents=1;" parent="LV0FwBpydXXZrUbya0PG-6649" vertex="1">
                    <mxGeometry x="36" width="6" height="6" as="geometry">
                        <mxRectangle width="6" height="6" as="alternateBounds"/>
                    </mxGeometry>
                </mxCell>
                <mxCell id="LV0FwBpydXXZrUbya0PG-6657" value="" style="shape=partialRectangle;html=1;whiteSpace=wrap;connectable=0;strokeColor=inherit;overflow=hidden;fillColor=none;top=0;left=0;bottom=0;right=0;pointerEvents=1;" parent="LV0FwBpydXXZrUbya0PG-6649" vertex="1">
                    <mxGeometry x="42" width="6" height="6" as="geometry">
                        <mxRectangle width="6" height="6" as="alternateBounds"/>
                    </mxGeometry>
                </mxCell>
                <mxCell id="LV0FwBpydXXZrUbya0PG-6658" value="" style="shape=partialRectangle;html=1;whiteSpace=wrap;connectable=0;strokeColor=inherit;overflow=hidden;fillColor=none;top=0;left=0;bottom=0;right=0;pointerEvents=1;" parent="LV0FwBpydXXZrUbya0PG-6649" vertex="1">
                    <mxGeometry x="48" width="6" height="6" as="geometry">
                        <mxRectangle width="6" height="6" as="alternateBounds"/>
                    </mxGeometry>
                </mxCell>
                <mxCell id="LV0FwBpydXXZrUbya0PG-6659" value="" style="shape=partialRectangle;html=1;whiteSpace=wrap;connectable=0;strokeColor=inherit;overflow=hidden;fillColor=none;top=0;left=0;bottom=0;right=0;pointerEvents=1;" parent="LV0FwBpydXXZrUbya0PG-6649" vertex="1">
                    <mxGeometry x="54" width="6" height="6" as="geometry">
                        <mxRectangle width="6" height="6" as="alternateBounds"/>
                    </mxGeometry>
                </mxCell>
                <mxCell id="LV0FwBpydXXZrUbya0PG-6660" value="" style="shape=partialRectangle;html=1;whiteSpace=wrap;connectable=0;strokeColor=inherit;overflow=hidden;fillColor=none;top=0;left=0;bottom=0;right=0;pointerEvents=1;" parent="LV0FwBpydXXZrUbya0PG-6649" vertex="1">
                    <mxGeometry x="60" width="6" height="6" as="geometry">
                        <mxRectangle width="6" height="6" as="alternateBounds"/>
                    </mxGeometry>
                </mxCell>
                <mxCell id="LV0FwBpydXXZrUbya0PG-6661" value="" style="shape=partialRectangle;html=1;whiteSpace=wrap;connectable=0;strokeColor=inherit;overflow=hidden;fillColor=none;top=0;left=0;bottom=0;right=0;pointerEvents=1;" parent="LV0FwBpydXXZrUbya0PG-6649" vertex="1">
                    <mxGeometry x="66" width="6" height="6" as="geometry">
                        <mxRectangle width="6" height="6" as="alternateBounds"/>
                    </mxGeometry>
                </mxCell>
                <mxCell id="LV0FwBpydXXZrUbya0PG-6662" value="" style="shape=partialRectangle;html=1;whiteSpace=wrap;connectable=0;strokeColor=inherit;overflow=hidden;fillColor=none;top=0;left=0;bottom=0;right=0;pointerEvents=1;" parent="LV0FwBpydXXZrUbya0PG-6649" vertex="1">
                    <mxGeometry x="72" width="6" height="6" as="geometry">
                        <mxRectangle width="6" height="6" as="alternateBounds"/>
                    </mxGeometry>
                </mxCell>
                <mxCell id="LV0FwBpydXXZrUbya0PG-6663" value="" style="shape=partialRectangle;html=1;whiteSpace=wrap;connectable=0;strokeColor=inherit;overflow=hidden;fillColor=none;top=0;left=0;bottom=0;right=0;pointerEvents=1;" parent="LV0FwBpydXXZrUbya0PG-6649" vertex="1">
                    <mxGeometry x="78" width="6" height="6" as="geometry">
                        <mxRectangle width="6" height="6" as="alternateBounds"/>
                    </mxGeometry>
                </mxCell>
                <mxCell id="LV0FwBpydXXZrUbya0PG-6664" value="" style="shape=partialRectangle;html=1;whiteSpace=wrap;connectable=0;strokeColor=inherit;overflow=hidden;fillColor=none;top=0;left=0;bottom=0;right=0;pointerEvents=1;" parent="LV0FwBpydXXZrUbya0PG-6649" vertex="1">
                    <mxGeometry x="84" width="6" height="6" as="geometry">
                        <mxRectangle width="6" height="6" as="alternateBounds"/>
                    </mxGeometry>
                </mxCell>
                <mxCell id="LV0FwBpydXXZrUbya0PG-6665" value="" style="shape=partialRectangle;html=1;whiteSpace=wrap;connectable=0;strokeColor=inherit;overflow=hidden;fillColor=none;top=0;left=0;bottom=0;right=0;pointerEvents=1;" parent="LV0FwBpydXXZrUbya0PG-6649" vertex="1">
                    <mxGeometry x="90" width="6" height="6" as="geometry">
                        <mxRectangle width="6" height="6" as="alternateBounds"/>
                    </mxGeometry>
                </mxCell>
                <mxCell id="LV0FwBpydXXZrUbya0PG-6666" value="" style="shape=partialRectangle;html=1;whiteSpace=wrap;connectable=0;strokeColor=inherit;overflow=hidden;fillColor=none;top=0;left=0;bottom=0;right=0;pointerEvents=1;" parent="LV0FwBpydXXZrUbya0PG-6649" vertex="1">
                    <mxGeometry x="96" width="6" height="6" as="geometry">
                        <mxRectangle width="6" height="6" as="alternateBounds"/>
                    </mxGeometry>
                </mxCell>
                <mxCell id="LV0FwBpydXXZrUbya0PG-6667" value="" style="shape=partialRectangle;html=1;whiteSpace=wrap;connectable=0;strokeColor=inherit;overflow=hidden;fillColor=none;top=0;left=0;bottom=0;right=0;pointerEvents=1;" parent="LV0FwBpydXXZrUbya0PG-6649" vertex="1">
                    <mxGeometry x="102" width="6" height="6" as="geometry">
                        <mxRectangle width="6" height="6" as="alternateBounds"/>
                    </mxGeometry>
                </mxCell>
                <mxCell id="LV0FwBpydXXZrUbya0PG-6668" value="" style="shape=partialRectangle;html=1;whiteSpace=wrap;connectable=0;strokeColor=inherit;overflow=hidden;fillColor=none;top=0;left=0;bottom=0;right=0;pointerEvents=1;" parent="LV0FwBpydXXZrUbya0PG-6649" vertex="1">
                    <mxGeometry x="108" width="6" height="6" as="geometry">
                        <mxRectangle width="6" height="6" as="alternateBounds"/>
                    </mxGeometry>
                </mxCell>
                <mxCell id="LV0FwBpydXXZrUbya0PG-6669" value="" style="shape=partialRectangle;html=1;whiteSpace=wrap;connectable=0;strokeColor=inherit;overflow=hidden;fillColor=none;top=0;left=0;bottom=0;right=0;pointerEvents=1;" parent="LV0FwBpydXXZrUbya0PG-6649" vertex="1">
                    <mxGeometry x="114" width="6" height="6" as="geometry">
                        <mxRectangle width="6" height="6" as="alternateBounds"/>
                    </mxGeometry>
                </mxCell>
                <mxCell id="LV0FwBpydXXZrUbya0PG-6670" value="" style="shape=tableRow;horizontal=0;startSize=0;swimlaneHead=0;swimlaneBody=0;strokeColor=inherit;top=0;left=0;bottom=0;right=0;collapsible=0;dropTarget=0;fillColor=none;points=[[0,0.5],[1,0.5]];portConstraint=eastwest;" parent="LV0FwBpydXXZrUbya0PG-6564" vertex="1">
                    <mxGeometry y="31" width="120" height="7" as="geometry"/>
                </mxCell>
                <mxCell id="LV0FwBpydXXZrUbya0PG-6671" value="" style="shape=partialRectangle;html=1;whiteSpace=wrap;connectable=0;strokeColor=inherit;overflow=hidden;fillColor=none;top=0;left=0;bottom=0;right=0;pointerEvents=1;" parent="LV0FwBpydXXZrUbya0PG-6670" vertex="1">
                    <mxGeometry width="6" height="7" as="geometry">
                        <mxRectangle width="6" height="7" as="alternateBounds"/>
                    </mxGeometry>
                </mxCell>
                <mxCell id="LV0FwBpydXXZrUbya0PG-6672" value="" style="shape=partialRectangle;html=1;whiteSpace=wrap;connectable=0;strokeColor=inherit;overflow=hidden;fillColor=none;top=0;left=0;bottom=0;right=0;pointerEvents=1;" parent="LV0FwBpydXXZrUbya0PG-6670" vertex="1">
                    <mxGeometry x="6" width="6" height="7" as="geometry">
                        <mxRectangle width="6" height="7" as="alternateBounds"/>
                    </mxGeometry>
                </mxCell>
                <mxCell id="LV0FwBpydXXZrUbya0PG-6673" value="" style="shape=partialRectangle;html=1;whiteSpace=wrap;connectable=0;strokeColor=inherit;overflow=hidden;fillColor=none;top=0;left=0;bottom=0;right=0;pointerEvents=1;" parent="LV0FwBpydXXZrUbya0PG-6670" vertex="1">
                    <mxGeometry x="12" width="6" height="7" as="geometry">
                        <mxRectangle width="6" height="7" as="alternateBounds"/>
                    </mxGeometry>
                </mxCell>
                <mxCell id="LV0FwBpydXXZrUbya0PG-6674" value="" style="shape=partialRectangle;html=1;whiteSpace=wrap;connectable=0;strokeColor=inherit;overflow=hidden;fillColor=none;top=0;left=0;bottom=0;right=0;pointerEvents=1;" parent="LV0FwBpydXXZrUbya0PG-6670" vertex="1">
                    <mxGeometry x="18" width="6" height="7" as="geometry">
                        <mxRectangle width="6" height="7" as="alternateBounds"/>
                    </mxGeometry>
                </mxCell>
                <mxCell id="LV0FwBpydXXZrUbya0PG-6675" value="" style="shape=partialRectangle;html=1;whiteSpace=wrap;connectable=0;strokeColor=inherit;overflow=hidden;fillColor=none;top=0;left=0;bottom=0;right=0;pointerEvents=1;" parent="LV0FwBpydXXZrUbya0PG-6670" vertex="1">
                    <mxGeometry x="24" width="6" height="7" as="geometry">
                        <mxRectangle width="6" height="7" as="alternateBounds"/>
                    </mxGeometry>
                </mxCell>
                <mxCell id="LV0FwBpydXXZrUbya0PG-6676" value="" style="shape=partialRectangle;html=1;whiteSpace=wrap;connectable=0;strokeColor=inherit;overflow=hidden;fillColor=none;top=0;left=0;bottom=0;right=0;pointerEvents=1;" parent="LV0FwBpydXXZrUbya0PG-6670" vertex="1">
                    <mxGeometry x="30" width="6" height="7" as="geometry">
                        <mxRectangle width="6" height="7" as="alternateBounds"/>
                    </mxGeometry>
                </mxCell>
                <mxCell id="LV0FwBpydXXZrUbya0PG-6677" value="" style="shape=partialRectangle;html=1;whiteSpace=wrap;connectable=0;strokeColor=inherit;overflow=hidden;fillColor=none;top=0;left=0;bottom=0;right=0;pointerEvents=1;" parent="LV0FwBpydXXZrUbya0PG-6670" vertex="1">
                    <mxGeometry x="36" width="6" height="7" as="geometry">
                        <mxRectangle width="6" height="7" as="alternateBounds"/>
                    </mxGeometry>
                </mxCell>
                <mxCell id="LV0FwBpydXXZrUbya0PG-6678" value="" style="shape=partialRectangle;html=1;whiteSpace=wrap;connectable=0;strokeColor=inherit;overflow=hidden;fillColor=none;top=0;left=0;bottom=0;right=0;pointerEvents=1;" parent="LV0FwBpydXXZrUbya0PG-6670" vertex="1">
                    <mxGeometry x="42" width="6" height="7" as="geometry">
                        <mxRectangle width="6" height="7" as="alternateBounds"/>
                    </mxGeometry>
                </mxCell>
                <mxCell id="LV0FwBpydXXZrUbya0PG-6679" value="" style="shape=partialRectangle;html=1;whiteSpace=wrap;connectable=0;strokeColor=inherit;overflow=hidden;fillColor=none;top=0;left=0;bottom=0;right=0;pointerEvents=1;" parent="LV0FwBpydXXZrUbya0PG-6670" vertex="1">
                    <mxGeometry x="48" width="6" height="7" as="geometry">
                        <mxRectangle width="6" height="7" as="alternateBounds"/>
                    </mxGeometry>
                </mxCell>
                <mxCell id="LV0FwBpydXXZrUbya0PG-6680" value="" style="shape=partialRectangle;html=1;whiteSpace=wrap;connectable=0;strokeColor=inherit;overflow=hidden;fillColor=none;top=0;left=0;bottom=0;right=0;pointerEvents=1;" parent="LV0FwBpydXXZrUbya0PG-6670" vertex="1">
                    <mxGeometry x="54" width="6" height="7" as="geometry">
                        <mxRectangle width="6" height="7" as="alternateBounds"/>
                    </mxGeometry>
                </mxCell>
                <mxCell id="LV0FwBpydXXZrUbya0PG-6681" value="" style="shape=partialRectangle;html=1;whiteSpace=wrap;connectable=0;strokeColor=inherit;overflow=hidden;fillColor=none;top=0;left=0;bottom=0;right=0;pointerEvents=1;" parent="LV0FwBpydXXZrUbya0PG-6670" vertex="1">
                    <mxGeometry x="60" width="6" height="7" as="geometry">
                        <mxRectangle width="6" height="7" as="alternateBounds"/>
                    </mxGeometry>
                </mxCell>
                <mxCell id="LV0FwBpydXXZrUbya0PG-6682" value="" style="shape=partialRectangle;html=1;whiteSpace=wrap;connectable=0;strokeColor=inherit;overflow=hidden;fillColor=none;top=0;left=0;bottom=0;right=0;pointerEvents=1;" parent="LV0FwBpydXXZrUbya0PG-6670" vertex="1">
                    <mxGeometry x="66" width="6" height="7" as="geometry">
                        <mxRectangle width="6" height="7" as="alternateBounds"/>
                    </mxGeometry>
                </mxCell>
                <mxCell id="LV0FwBpydXXZrUbya0PG-6683" value="" style="shape=partialRectangle;html=1;whiteSpace=wrap;connectable=0;strokeColor=inherit;overflow=hidden;fillColor=none;top=0;left=0;bottom=0;right=0;pointerEvents=1;" parent="LV0FwBpydXXZrUbya0PG-6670" vertex="1">
                    <mxGeometry x="72" width="6" height="7" as="geometry">
                        <mxRectangle width="6" height="7" as="alternateBounds"/>
                    </mxGeometry>
                </mxCell>
                <mxCell id="LV0FwBpydXXZrUbya0PG-6684" value="" style="shape=partialRectangle;html=1;whiteSpace=wrap;connectable=0;strokeColor=inherit;overflow=hidden;fillColor=none;top=0;left=0;bottom=0;right=0;pointerEvents=1;" parent="LV0FwBpydXXZrUbya0PG-6670" vertex="1">
                    <mxGeometry x="78" width="6" height="7" as="geometry">
                        <mxRectangle width="6" height="7" as="alternateBounds"/>
                    </mxGeometry>
                </mxCell>
                <mxCell id="LV0FwBpydXXZrUbya0PG-6685" value="" style="shape=partialRectangle;html=1;whiteSpace=wrap;connectable=0;strokeColor=inherit;overflow=hidden;fillColor=none;top=0;left=0;bottom=0;right=0;pointerEvents=1;" parent="LV0FwBpydXXZrUbya0PG-6670" vertex="1">
                    <mxGeometry x="84" width="6" height="7" as="geometry">
                        <mxRectangle width="6" height="7" as="alternateBounds"/>
                    </mxGeometry>
                </mxCell>
                <mxCell id="LV0FwBpydXXZrUbya0PG-6686" value="" style="shape=partialRectangle;html=1;whiteSpace=wrap;connectable=0;strokeColor=inherit;overflow=hidden;fillColor=none;top=0;left=0;bottom=0;right=0;pointerEvents=1;" parent="LV0FwBpydXXZrUbya0PG-6670" vertex="1">
                    <mxGeometry x="90" width="6" height="7" as="geometry">
                        <mxRectangle width="6" height="7" as="alternateBounds"/>
                    </mxGeometry>
                </mxCell>
                <mxCell id="LV0FwBpydXXZrUbya0PG-6687" value="" style="shape=partialRectangle;html=1;whiteSpace=wrap;connectable=0;strokeColor=inherit;overflow=hidden;fillColor=none;top=0;left=0;bottom=0;right=0;pointerEvents=1;" parent="LV0FwBpydXXZrUbya0PG-6670" vertex="1">
                    <mxGeometry x="96" width="6" height="7" as="geometry">
                        <mxRectangle width="6" height="7" as="alternateBounds"/>
                    </mxGeometry>
                </mxCell>
                <mxCell id="LV0FwBpydXXZrUbya0PG-6688" value="" style="shape=partialRectangle;html=1;whiteSpace=wrap;connectable=0;strokeColor=inherit;overflow=hidden;fillColor=none;top=0;left=0;bottom=0;right=0;pointerEvents=1;" parent="LV0FwBpydXXZrUbya0PG-6670" vertex="1">
                    <mxGeometry x="102" width="6" height="7" as="geometry">
                        <mxRectangle width="6" height="7" as="alternateBounds"/>
                    </mxGeometry>
                </mxCell>
                <mxCell id="LV0FwBpydXXZrUbya0PG-6689" value="" style="shape=partialRectangle;html=1;whiteSpace=wrap;connectable=0;strokeColor=inherit;overflow=hidden;fillColor=none;top=0;left=0;bottom=0;right=0;pointerEvents=1;" parent="LV0FwBpydXXZrUbya0PG-6670" vertex="1">
                    <mxGeometry x="108" width="6" height="7" as="geometry">
                        <mxRectangle width="6" height="7" as="alternateBounds"/>
                    </mxGeometry>
                </mxCell>
                <mxCell id="LV0FwBpydXXZrUbya0PG-6690" value="" style="shape=partialRectangle;html=1;whiteSpace=wrap;connectable=0;strokeColor=inherit;overflow=hidden;fillColor=none;top=0;left=0;bottom=0;right=0;pointerEvents=1;" parent="LV0FwBpydXXZrUbya0PG-6670" vertex="1">
                    <mxGeometry x="114" width="6" height="7" as="geometry">
                        <mxRectangle width="6" height="7" as="alternateBounds"/>
                    </mxGeometry>
                </mxCell>
                <mxCell id="LV0FwBpydXXZrUbya0PG-6691" value="" style="shape=tableRow;horizontal=0;startSize=0;swimlaneHead=0;swimlaneBody=0;strokeColor=inherit;top=0;left=0;bottom=0;right=0;collapsible=0;dropTarget=0;fillColor=none;points=[[0,0.5],[1,0.5]];portConstraint=eastwest;" parent="LV0FwBpydXXZrUbya0PG-6564" vertex="1">
                    <mxGeometry y="38" width="120" height="6" as="geometry"/>
                </mxCell>
                <mxCell id="LV0FwBpydXXZrUbya0PG-6692" value="" style="shape=partialRectangle;html=1;whiteSpace=wrap;connectable=0;strokeColor=inherit;overflow=hidden;fillColor=none;top=0;left=0;bottom=0;right=0;pointerEvents=1;" parent="LV0FwBpydXXZrUbya0PG-6691" vertex="1">
                    <mxGeometry width="6" height="6" as="geometry">
                        <mxRectangle width="6" height="6" as="alternateBounds"/>
                    </mxGeometry>
                </mxCell>
                <mxCell id="LV0FwBpydXXZrUbya0PG-6693" value="" style="shape=partialRectangle;html=1;whiteSpace=wrap;connectable=0;strokeColor=inherit;overflow=hidden;fillColor=none;top=0;left=0;bottom=0;right=0;pointerEvents=1;" parent="LV0FwBpydXXZrUbya0PG-6691" vertex="1">
                    <mxGeometry x="6" width="6" height="6" as="geometry">
                        <mxRectangle width="6" height="6" as="alternateBounds"/>
                    </mxGeometry>
                </mxCell>
                <mxCell id="LV0FwBpydXXZrUbya0PG-6694" value="" style="shape=partialRectangle;html=1;whiteSpace=wrap;connectable=0;strokeColor=inherit;overflow=hidden;fillColor=none;top=0;left=0;bottom=0;right=0;pointerEvents=1;" parent="LV0FwBpydXXZrUbya0PG-6691" vertex="1">
                    <mxGeometry x="12" width="6" height="6" as="geometry">
                        <mxRectangle width="6" height="6" as="alternateBounds"/>
                    </mxGeometry>
                </mxCell>
                <mxCell id="LV0FwBpydXXZrUbya0PG-6695" value="" style="shape=partialRectangle;html=1;whiteSpace=wrap;connectable=0;strokeColor=inherit;overflow=hidden;fillColor=none;top=0;left=0;bottom=0;right=0;pointerEvents=1;" parent="LV0FwBpydXXZrUbya0PG-6691" vertex="1">
                    <mxGeometry x="18" width="6" height="6" as="geometry">
                        <mxRectangle width="6" height="6" as="alternateBounds"/>
                    </mxGeometry>
                </mxCell>
                <mxCell id="LV0FwBpydXXZrUbya0PG-6696" value="" style="shape=partialRectangle;html=1;whiteSpace=wrap;connectable=0;strokeColor=inherit;overflow=hidden;fillColor=none;top=0;left=0;bottom=0;right=0;pointerEvents=1;" parent="LV0FwBpydXXZrUbya0PG-6691" vertex="1">
                    <mxGeometry x="24" width="6" height="6" as="geometry">
                        <mxRectangle width="6" height="6" as="alternateBounds"/>
                    </mxGeometry>
                </mxCell>
                <mxCell id="LV0FwBpydXXZrUbya0PG-6697" value="" style="shape=partialRectangle;html=1;whiteSpace=wrap;connectable=0;strokeColor=inherit;overflow=hidden;fillColor=none;top=0;left=0;bottom=0;right=0;pointerEvents=1;" parent="LV0FwBpydXXZrUbya0PG-6691" vertex="1">
                    <mxGeometry x="30" width="6" height="6" as="geometry">
                        <mxRectangle width="6" height="6" as="alternateBounds"/>
                    </mxGeometry>
                </mxCell>
                <mxCell id="LV0FwBpydXXZrUbya0PG-6698" value="" style="shape=partialRectangle;html=1;whiteSpace=wrap;connectable=0;strokeColor=inherit;overflow=hidden;fillColor=none;top=0;left=0;bottom=0;right=0;pointerEvents=1;" parent="LV0FwBpydXXZrUbya0PG-6691" vertex="1">
                    <mxGeometry x="36" width="6" height="6" as="geometry">
                        <mxRectangle width="6" height="6" as="alternateBounds"/>
                    </mxGeometry>
                </mxCell>
                <mxCell id="LV0FwBpydXXZrUbya0PG-6699" value="" style="shape=partialRectangle;html=1;whiteSpace=wrap;connectable=0;strokeColor=inherit;overflow=hidden;fillColor=none;top=0;left=0;bottom=0;right=0;pointerEvents=1;" parent="LV0FwBpydXXZrUbya0PG-6691" vertex="1">
                    <mxGeometry x="42" width="6" height="6" as="geometry">
                        <mxRectangle width="6" height="6" as="alternateBounds"/>
                    </mxGeometry>
                </mxCell>
                <mxCell id="LV0FwBpydXXZrUbya0PG-6700" value="" style="shape=partialRectangle;html=1;whiteSpace=wrap;connectable=0;strokeColor=inherit;overflow=hidden;fillColor=none;top=0;left=0;bottom=0;right=0;pointerEvents=1;" parent="LV0FwBpydXXZrUbya0PG-6691" vertex="1">
                    <mxGeometry x="48" width="6" height="6" as="geometry">
                        <mxRectangle width="6" height="6" as="alternateBounds"/>
                    </mxGeometry>
                </mxCell>
                <mxCell id="LV0FwBpydXXZrUbya0PG-6701" value="" style="shape=partialRectangle;html=1;whiteSpace=wrap;connectable=0;strokeColor=inherit;overflow=hidden;fillColor=none;top=0;left=0;bottom=0;right=0;pointerEvents=1;" parent="LV0FwBpydXXZrUbya0PG-6691" vertex="1">
                    <mxGeometry x="54" width="6" height="6" as="geometry">
                        <mxRectangle width="6" height="6" as="alternateBounds"/>
                    </mxGeometry>
                </mxCell>
                <mxCell id="LV0FwBpydXXZrUbya0PG-6702" value="" style="shape=partialRectangle;html=1;whiteSpace=wrap;connectable=0;strokeColor=inherit;overflow=hidden;fillColor=none;top=0;left=0;bottom=0;right=0;pointerEvents=1;" parent="LV0FwBpydXXZrUbya0PG-6691" vertex="1">
                    <mxGeometry x="60" width="6" height="6" as="geometry">
                        <mxRectangle width="6" height="6" as="alternateBounds"/>
                    </mxGeometry>
                </mxCell>
                <mxCell id="LV0FwBpydXXZrUbya0PG-6703" value="" style="shape=partialRectangle;html=1;whiteSpace=wrap;connectable=0;strokeColor=inherit;overflow=hidden;fillColor=none;top=0;left=0;bottom=0;right=0;pointerEvents=1;" parent="LV0FwBpydXXZrUbya0PG-6691" vertex="1">
                    <mxGeometry x="66" width="6" height="6" as="geometry">
                        <mxRectangle width="6" height="6" as="alternateBounds"/>
                    </mxGeometry>
                </mxCell>
                <mxCell id="LV0FwBpydXXZrUbya0PG-6704" value="" style="shape=partialRectangle;html=1;whiteSpace=wrap;connectable=0;strokeColor=inherit;overflow=hidden;fillColor=none;top=0;left=0;bottom=0;right=0;pointerEvents=1;" parent="LV0FwBpydXXZrUbya0PG-6691" vertex="1">
                    <mxGeometry x="72" width="6" height="6" as="geometry">
                        <mxRectangle width="6" height="6" as="alternateBounds"/>
                    </mxGeometry>
                </mxCell>
                <mxCell id="LV0FwBpydXXZrUbya0PG-6705" value="" style="shape=partialRectangle;html=1;whiteSpace=wrap;connectable=0;strokeColor=inherit;overflow=hidden;fillColor=none;top=0;left=0;bottom=0;right=0;pointerEvents=1;" parent="LV0FwBpydXXZrUbya0PG-6691" vertex="1">
                    <mxGeometry x="78" width="6" height="6" as="geometry">
                        <mxRectangle width="6" height="6" as="alternateBounds"/>
                    </mxGeometry>
                </mxCell>
                <mxCell id="LV0FwBpydXXZrUbya0PG-6706" value="" style="shape=partialRectangle;html=1;whiteSpace=wrap;connectable=0;strokeColor=inherit;overflow=hidden;fillColor=none;top=0;left=0;bottom=0;right=0;pointerEvents=1;" parent="LV0FwBpydXXZrUbya0PG-6691" vertex="1">
                    <mxGeometry x="84" width="6" height="6" as="geometry">
                        <mxRectangle width="6" height="6" as="alternateBounds"/>
                    </mxGeometry>
                </mxCell>
                <mxCell id="LV0FwBpydXXZrUbya0PG-6707" value="" style="shape=partialRectangle;html=1;whiteSpace=wrap;connectable=0;strokeColor=inherit;overflow=hidden;fillColor=none;top=0;left=0;bottom=0;right=0;pointerEvents=1;" parent="LV0FwBpydXXZrUbya0PG-6691" vertex="1">
                    <mxGeometry x="90" width="6" height="6" as="geometry">
                        <mxRectangle width="6" height="6" as="alternateBounds"/>
                    </mxGeometry>
                </mxCell>
                <mxCell id="LV0FwBpydXXZrUbya0PG-6708" value="" style="shape=partialRectangle;html=1;whiteSpace=wrap;connectable=0;strokeColor=inherit;overflow=hidden;fillColor=none;top=0;left=0;bottom=0;right=0;pointerEvents=1;" parent="LV0FwBpydXXZrUbya0PG-6691" vertex="1">
                    <mxGeometry x="96" width="6" height="6" as="geometry">
                        <mxRectangle width="6" height="6" as="alternateBounds"/>
                    </mxGeometry>
                </mxCell>
                <mxCell id="LV0FwBpydXXZrUbya0PG-6709" value="" style="shape=partialRectangle;html=1;whiteSpace=wrap;connectable=0;strokeColor=inherit;overflow=hidden;fillColor=none;top=0;left=0;bottom=0;right=0;pointerEvents=1;" parent="LV0FwBpydXXZrUbya0PG-6691" vertex="1">
                    <mxGeometry x="102" width="6" height="6" as="geometry">
                        <mxRectangle width="6" height="6" as="alternateBounds"/>
                    </mxGeometry>
                </mxCell>
                <mxCell id="LV0FwBpydXXZrUbya0PG-6710" value="" style="shape=partialRectangle;html=1;whiteSpace=wrap;connectable=0;strokeColor=inherit;overflow=hidden;fillColor=none;top=0;left=0;bottom=0;right=0;pointerEvents=1;" parent="LV0FwBpydXXZrUbya0PG-6691" vertex="1">
                    <mxGeometry x="108" width="6" height="6" as="geometry">
                        <mxRectangle width="6" height="6" as="alternateBounds"/>
                    </mxGeometry>
                </mxCell>
                <mxCell id="LV0FwBpydXXZrUbya0PG-6711" value="" style="shape=partialRectangle;html=1;whiteSpace=wrap;connectable=0;strokeColor=inherit;overflow=hidden;fillColor=none;top=0;left=0;bottom=0;right=0;pointerEvents=1;" parent="LV0FwBpydXXZrUbya0PG-6691" vertex="1">
                    <mxGeometry x="114" width="6" height="6" as="geometry">
                        <mxRectangle width="6" height="6" as="alternateBounds"/>
                    </mxGeometry>
                </mxCell>
                <mxCell id="LV0FwBpydXXZrUbya0PG-6712" value="" style="shape=tableRow;horizontal=0;startSize=0;swimlaneHead=0;swimlaneBody=0;strokeColor=inherit;top=0;left=0;bottom=0;right=0;collapsible=0;dropTarget=0;fillColor=none;points=[[0,0.5],[1,0.5]];portConstraint=eastwest;" parent="LV0FwBpydXXZrUbya0PG-6564" vertex="1">
                    <mxGeometry y="44" width="120" height="6" as="geometry"/>
                </mxCell>
                <mxCell id="LV0FwBpydXXZrUbya0PG-6713" value="" style="shape=partialRectangle;html=1;whiteSpace=wrap;connectable=0;strokeColor=inherit;overflow=hidden;fillColor=none;top=0;left=0;bottom=0;right=0;pointerEvents=1;" parent="LV0FwBpydXXZrUbya0PG-6712" vertex="1">
                    <mxGeometry width="6" height="6" as="geometry">
                        <mxRectangle width="6" height="6" as="alternateBounds"/>
                    </mxGeometry>
                </mxCell>
                <mxCell id="LV0FwBpydXXZrUbya0PG-6714" value="" style="shape=partialRectangle;html=1;whiteSpace=wrap;connectable=0;strokeColor=inherit;overflow=hidden;fillColor=none;top=0;left=0;bottom=0;right=0;pointerEvents=1;" parent="LV0FwBpydXXZrUbya0PG-6712" vertex="1">
                    <mxGeometry x="6" width="6" height="6" as="geometry">
                        <mxRectangle width="6" height="6" as="alternateBounds"/>
                    </mxGeometry>
                </mxCell>
                <mxCell id="LV0FwBpydXXZrUbya0PG-6715" value="" style="shape=partialRectangle;html=1;whiteSpace=wrap;connectable=0;strokeColor=inherit;overflow=hidden;fillColor=none;top=0;left=0;bottom=0;right=0;pointerEvents=1;" parent="LV0FwBpydXXZrUbya0PG-6712" vertex="1">
                    <mxGeometry x="12" width="6" height="6" as="geometry">
                        <mxRectangle width="6" height="6" as="alternateBounds"/>
                    </mxGeometry>
                </mxCell>
                <mxCell id="LV0FwBpydXXZrUbya0PG-6716" value="" style="shape=partialRectangle;html=1;whiteSpace=wrap;connectable=0;strokeColor=inherit;overflow=hidden;fillColor=none;top=0;left=0;bottom=0;right=0;pointerEvents=1;" parent="LV0FwBpydXXZrUbya0PG-6712" vertex="1">
                    <mxGeometry x="18" width="6" height="6" as="geometry">
                        <mxRectangle width="6" height="6" as="alternateBounds"/>
                    </mxGeometry>
                </mxCell>
                <mxCell id="LV0FwBpydXXZrUbya0PG-6717" value="" style="shape=partialRectangle;html=1;whiteSpace=wrap;connectable=0;strokeColor=inherit;overflow=hidden;fillColor=none;top=0;left=0;bottom=0;right=0;pointerEvents=1;" parent="LV0FwBpydXXZrUbya0PG-6712" vertex="1">
                    <mxGeometry x="24" width="6" height="6" as="geometry">
                        <mxRectangle width="6" height="6" as="alternateBounds"/>
                    </mxGeometry>
                </mxCell>
                <mxCell id="LV0FwBpydXXZrUbya0PG-6718" value="" style="shape=partialRectangle;html=1;whiteSpace=wrap;connectable=0;strokeColor=inherit;overflow=hidden;fillColor=none;top=0;left=0;bottom=0;right=0;pointerEvents=1;" parent="LV0FwBpydXXZrUbya0PG-6712" vertex="1">
                    <mxGeometry x="30" width="6" height="6" as="geometry">
                        <mxRectangle width="6" height="6" as="alternateBounds"/>
                    </mxGeometry>
                </mxCell>
                <mxCell id="LV0FwBpydXXZrUbya0PG-6719" value="" style="shape=partialRectangle;html=1;whiteSpace=wrap;connectable=0;strokeColor=inherit;overflow=hidden;fillColor=none;top=0;left=0;bottom=0;right=0;pointerEvents=1;" parent="LV0FwBpydXXZrUbya0PG-6712" vertex="1">
                    <mxGeometry x="36" width="6" height="6" as="geometry">
                        <mxRectangle width="6" height="6" as="alternateBounds"/>
                    </mxGeometry>
                </mxCell>
                <mxCell id="LV0FwBpydXXZrUbya0PG-6720" value="" style="shape=partialRectangle;html=1;whiteSpace=wrap;connectable=0;strokeColor=inherit;overflow=hidden;fillColor=none;top=0;left=0;bottom=0;right=0;pointerEvents=1;" parent="LV0FwBpydXXZrUbya0PG-6712" vertex="1">
                    <mxGeometry x="42" width="6" height="6" as="geometry">
                        <mxRectangle width="6" height="6" as="alternateBounds"/>
                    </mxGeometry>
                </mxCell>
                <mxCell id="LV0FwBpydXXZrUbya0PG-6721" value="" style="shape=partialRectangle;html=1;whiteSpace=wrap;connectable=0;strokeColor=inherit;overflow=hidden;fillColor=none;top=0;left=0;bottom=0;right=0;pointerEvents=1;" parent="LV0FwBpydXXZrUbya0PG-6712" vertex="1">
                    <mxGeometry x="48" width="6" height="6" as="geometry">
                        <mxRectangle width="6" height="6" as="alternateBounds"/>
                    </mxGeometry>
                </mxCell>
                <mxCell id="LV0FwBpydXXZrUbya0PG-6722" value="" style="shape=partialRectangle;html=1;whiteSpace=wrap;connectable=0;strokeColor=inherit;overflow=hidden;fillColor=none;top=0;left=0;bottom=0;right=0;pointerEvents=1;" parent="LV0FwBpydXXZrUbya0PG-6712" vertex="1">
                    <mxGeometry x="54" width="6" height="6" as="geometry">
                        <mxRectangle width="6" height="6" as="alternateBounds"/>
                    </mxGeometry>
                </mxCell>
                <mxCell id="LV0FwBpydXXZrUbya0PG-6723" value="" style="shape=partialRectangle;html=1;whiteSpace=wrap;connectable=0;strokeColor=inherit;overflow=hidden;fillColor=none;top=0;left=0;bottom=0;right=0;pointerEvents=1;" parent="LV0FwBpydXXZrUbya0PG-6712" vertex="1">
                    <mxGeometry x="60" width="6" height="6" as="geometry">
                        <mxRectangle width="6" height="6" as="alternateBounds"/>
                    </mxGeometry>
                </mxCell>
                <mxCell id="LV0FwBpydXXZrUbya0PG-6724" value="" style="shape=partialRectangle;html=1;whiteSpace=wrap;connectable=0;strokeColor=inherit;overflow=hidden;fillColor=none;top=0;left=0;bottom=0;right=0;pointerEvents=1;" parent="LV0FwBpydXXZrUbya0PG-6712" vertex="1">
                    <mxGeometry x="66" width="6" height="6" as="geometry">
                        <mxRectangle width="6" height="6" as="alternateBounds"/>
                    </mxGeometry>
                </mxCell>
                <mxCell id="LV0FwBpydXXZrUbya0PG-6725" value="" style="shape=partialRectangle;html=1;whiteSpace=wrap;connectable=0;strokeColor=inherit;overflow=hidden;fillColor=none;top=0;left=0;bottom=0;right=0;pointerEvents=1;" parent="LV0FwBpydXXZrUbya0PG-6712" vertex="1">
                    <mxGeometry x="72" width="6" height="6" as="geometry">
                        <mxRectangle width="6" height="6" as="alternateBounds"/>
                    </mxGeometry>
                </mxCell>
                <mxCell id="LV0FwBpydXXZrUbya0PG-6726" value="" style="shape=partialRectangle;html=1;whiteSpace=wrap;connectable=0;strokeColor=inherit;overflow=hidden;fillColor=none;top=0;left=0;bottom=0;right=0;pointerEvents=1;" parent="LV0FwBpydXXZrUbya0PG-6712" vertex="1">
                    <mxGeometry x="78" width="6" height="6" as="geometry">
                        <mxRectangle width="6" height="6" as="alternateBounds"/>
                    </mxGeometry>
                </mxCell>
                <mxCell id="LV0FwBpydXXZrUbya0PG-6727" value="" style="shape=partialRectangle;html=1;whiteSpace=wrap;connectable=0;strokeColor=inherit;overflow=hidden;fillColor=none;top=0;left=0;bottom=0;right=0;pointerEvents=1;" parent="LV0FwBpydXXZrUbya0PG-6712" vertex="1">
                    <mxGeometry x="84" width="6" height="6" as="geometry">
                        <mxRectangle width="6" height="6" as="alternateBounds"/>
                    </mxGeometry>
                </mxCell>
                <mxCell id="LV0FwBpydXXZrUbya0PG-6728" value="" style="shape=partialRectangle;html=1;whiteSpace=wrap;connectable=0;strokeColor=inherit;overflow=hidden;fillColor=none;top=0;left=0;bottom=0;right=0;pointerEvents=1;" parent="LV0FwBpydXXZrUbya0PG-6712" vertex="1">
                    <mxGeometry x="90" width="6" height="6" as="geometry">
                        <mxRectangle width="6" height="6" as="alternateBounds"/>
                    </mxGeometry>
                </mxCell>
                <mxCell id="LV0FwBpydXXZrUbya0PG-6729" value="" style="shape=partialRectangle;html=1;whiteSpace=wrap;connectable=0;strokeColor=inherit;overflow=hidden;fillColor=none;top=0;left=0;bottom=0;right=0;pointerEvents=1;" parent="LV0FwBpydXXZrUbya0PG-6712" vertex="1">
                    <mxGeometry x="96" width="6" height="6" as="geometry">
                        <mxRectangle width="6" height="6" as="alternateBounds"/>
                    </mxGeometry>
                </mxCell>
                <mxCell id="LV0FwBpydXXZrUbya0PG-6730" value="" style="shape=partialRectangle;html=1;whiteSpace=wrap;connectable=0;strokeColor=inherit;overflow=hidden;fillColor=none;top=0;left=0;bottom=0;right=0;pointerEvents=1;" parent="LV0FwBpydXXZrUbya0PG-6712" vertex="1">
                    <mxGeometry x="102" width="6" height="6" as="geometry">
                        <mxRectangle width="6" height="6" as="alternateBounds"/>
                    </mxGeometry>
                </mxCell>
                <mxCell id="LV0FwBpydXXZrUbya0PG-6731" value="" style="shape=partialRectangle;html=1;whiteSpace=wrap;connectable=0;strokeColor=inherit;overflow=hidden;fillColor=none;top=0;left=0;bottom=0;right=0;pointerEvents=1;" parent="LV0FwBpydXXZrUbya0PG-6712" vertex="1">
                    <mxGeometry x="108" width="6" height="6" as="geometry">
                        <mxRectangle width="6" height="6" as="alternateBounds"/>
                    </mxGeometry>
                </mxCell>
                <mxCell id="LV0FwBpydXXZrUbya0PG-6732" value="" style="shape=partialRectangle;html=1;whiteSpace=wrap;connectable=0;strokeColor=inherit;overflow=hidden;fillColor=none;top=0;left=0;bottom=0;right=0;pointerEvents=1;" parent="LV0FwBpydXXZrUbya0PG-6712" vertex="1">
                    <mxGeometry x="114" width="6" height="6" as="geometry">
                        <mxRectangle width="6" height="6" as="alternateBounds"/>
                    </mxGeometry>
                </mxCell>
                <mxCell id="LV0FwBpydXXZrUbya0PG-5970" value="&lt;font face=&quot;Helvetica&quot;&gt;GPU cores&lt;br&gt;&lt;/font&gt;" style="text;html=1;strokeColor=none;fillColor=none;align=center;verticalAlign=middle;whiteSpace=wrap;rounded=0;fontSize=17;fontColor=#FFFFFF;" parent="1" vertex="1">
                    <mxGeometry x="229" y="74" width="120" height="50" as="geometry"/>
                </mxCell>
                <mxCell id="LV0FwBpydXXZrUbya0PG-5974" value="" style="endArrow=classic;startArrow=classic;html=1;rounded=0;entryX=1;entryY=0.5;entryDx=0;entryDy=0;strokeWidth=2;strokeColor=#FFFFFF;" parent="1" target="UvHuP5o6jSuoLTm0AUZA-5950" edge="1">
                    <mxGeometry width="50" height="50" relative="1" as="geometry">
                        <mxPoint x="220" y="229" as="sourcePoint"/>
                        <mxPoint x="109.5" y="180" as="targetPoint"/>
                    </mxGeometry>
                </mxCell>
                <mxCell id="LV0FwBpydXXZrUbya0PG-6766" value="CPU cores" style="text;html=1;strokeColor=none;fillColor=none;align=center;verticalAlign=middle;whiteSpace=wrap;rounded=0;fontSize=17;fontColor=#FFFFFF;" parent="1" vertex="1">
                    <mxGeometry x="438" y="73" width="120" height="50" as="geometry"/>
                </mxCell>
                <mxCell id="UvHuP5o6jSuoLTm0AUZA-5957" value="&lt;font face=&quot;Helvetica&quot;&gt;GPU&lt;br&gt;&lt;/font&gt;" style="text;html=1;strokeColor=none;fillColor=none;align=center;verticalAlign=middle;whiteSpace=wrap;rounded=0;fontSize=17;fontColor=#FFFFFF;" parent="1" vertex="1">
                    <mxGeometry x="220" y="46" width="140" height="27" as="geometry"/>
                </mxCell>
                <mxCell id="LV0FwBpydXXZrUbya0PG-6780" value="APU" style="text;html=1;strokeColor=none;fillColor=none;align=center;verticalAlign=middle;whiteSpace=wrap;rounded=0;fontSize=17;fontColor=#FFFFFF;" parent="1" vertex="1">
                    <mxGeometry x="420" y="46" width="290" height="27" as="geometry"/>
                </mxCell>
                <mxCell id="UvHuP5o6jSuoLTm0AUZA-5950" value="" style="rounded=0;whiteSpace=wrap;html=1;fillColor=#9C2A44;fontColor=#FFFFFF;strokeColor=none;" parent="1" vertex="1">
                    <mxGeometry x="40" y="169" width="120" height="120" as="geometry"/>
                </mxCell>
                <mxCell id="5931" value="&lt;div&gt;CPU Memory&lt;br&gt;(RAM)&lt;/div&gt;" style="text;html=1;strokeColor=none;fillColor=none;align=center;verticalAlign=middle;whiteSpace=wrap;rounded=0;fontSize=17;fontColor=#FFFFFF;" vertex="1" parent="1">
                    <mxGeometry x="40" y="169" width="120" height="120" as="geometry"/>
                </mxCell>
            </root>
        </mxGraphModel>
    </diagram>
</mxfile>